<svg width="18" height="17" viewBox="0 0 18 17" fill="none" xmlns="http://www.w3.org/2000/svg">
<g id="bed 1">
<path id="Vector" d="M16.2875 9.09196L16.2234 9.04216V4.32413C16.2234 3.68365 15.9469 3.06934 15.4546 2.61603C14.9622 2.16272 14.2943 1.90745 13.5974 1.90625H4.13763C3.4407 1.90745 2.77276 2.16272 2.28042 2.61603C1.78807 3.06934 1.51156 3.68365 1.51156 4.32413V9.04668L1.44751 9.09196C1.15138 9.36485 0.984865 9.73439 0.984375 10.1198V13.982C0.984375 14.1105 1.03992 14.2338 1.13878 14.3246C1.23765 14.4155 1.37174 14.4665 1.51156 14.4665H4.13763C4.22455 14.4663 4.31007 14.4464 4.38657 14.4085C4.46308 14.3706 4.5282 14.3158 4.57612 14.2492L5.47283 13.0176H12.2671L13.1638 14.2492C13.2117 14.3158 13.2768 14.3706 13.3534 14.4085C13.4299 14.4464 13.5154 14.4663 13.6023 14.4665H16.2284C16.3673 14.4653 16.5002 14.4138 16.598 14.323C16.6958 14.2323 16.7506 14.1098 16.7506 13.982V10.1198C16.7501 9.73439 16.5836 9.36485 16.2875 9.09196ZM4.13763 2.87521H13.5974C14.0155 2.87521 14.4165 3.02786 14.7122 3.29959C15.0079 3.57131 15.174 3.93985 15.174 4.32413V7.23554C14.9374 6.92653 14.6218 6.67571 14.255 6.50516C13.8881 6.33462 13.4812 6.24957 13.0702 6.25752H4.66481C4.31978 6.25665 3.97797 6.31862 3.65916 6.43986C3.34034 6.56109 3.05082 6.7392 2.80735 6.96387C2.71815 7.0488 2.63582 7.1396 2.561 7.23554V4.32413C2.561 3.93985 2.72711 3.57131 3.02278 3.29959C3.31846 3.02786 3.71948 2.87521 4.13763 2.87521ZM14.6468 8.67087H3.08818C3.08818 8.2866 3.25429 7.91806 3.54997 7.64633C3.84564 7.37461 4.24666 7.22196 4.66481 7.22196H13.0702C13.4883 7.22196 13.8894 7.37461 14.185 7.64633C14.4807 7.91806 14.6468 8.2866 14.6468 8.67087ZM15.6963 13.5021H13.8733L12.9815 12.2615C12.933 12.1957 12.8677 12.1418 12.7912 12.1047C12.7147 12.0676 12.6295 12.0484 12.543 12.0487H5.18707C5.10059 12.0484 5.01536 12.0676 4.93889 12.1047C4.86242 12.1418 4.79706 12.1957 4.74857 12.2615L3.85679 13.4976H2.03382V10.1198C2.03382 10.0562 2.04745 9.99316 2.07395 9.93438C2.10044 9.8756 2.13927 9.8222 2.18822 9.77721C2.23718 9.73222 2.29529 9.69653 2.35926 9.67218C2.42322 9.64784 2.49177 9.63531 2.561 9.63531H15.174C15.3138 9.63531 15.4479 9.68635 15.5468 9.77721C15.6456 9.86807 15.7012 9.99129 15.7012 10.1198L15.6963 13.5021Z" fill="#181A20"/>
</g>
</svg>
