<svg width="17" height="17" viewBox="0 0 17 17" fill="none" xmlns="http://www.w3.org/2000/svg">
<g clipPath="url(#clip0_6554_3989)">
<path d="M16.0905 11.1022L14.6705 9.68219C14.3654 9.3909 13.9598 9.22838 13.538 9.22838C13.1162 9.22838 12.7106 9.3909 12.4055 9.68219L11.9055 10.1822C11.5663 10.5202 11.1069 10.71 10.628 10.71C10.1491 10.71 9.68975 10.5202 9.3505 10.1822C8.9655 9.79719 8.7205 9.53719 8.4755 9.28219C8.2305 9.02719 7.9755 8.75219 7.5755 8.35719C7.23781 8.01879 7.04816 7.56025 7.04816 7.08219C7.04816 6.60412 7.23781 6.14558 7.5755 5.80719L8.0755 5.30719C8.22461 5.15922 8.34291 4.98317 8.42358 4.78922C8.50425 4.59527 8.54569 4.38725 8.5455 4.17719C8.54369 3.75334 8.37481 3.3473 8.0755 3.04719L6.6555 1.61719C6.25436 1.21776 5.71159 0.993107 5.1455 0.992188C4.86666 0.992598 4.59064 1.04801 4.33324 1.15526C4.07585 1.26251 3.84214 1.41948 3.6455 1.61719L2.2905 2.96219C1.31407 3.93998 0.765625 5.26534 0.765625 6.64719C0.765625 8.02904 1.31407 9.35439 2.2905 10.3322C3.0705 11.1122 3.9605 11.9922 4.8455 12.9122C5.7305 13.8322 6.6005 14.6922 7.3755 15.4922C8.35309 16.4671 9.67738 17.0146 11.058 17.0146C12.4386 17.0146 13.7629 16.4671 14.7405 15.4922L16.0905 14.1422C16.4875 13.7435 16.712 13.2048 16.7155 12.6422C16.7204 12.3566 16.6676 12.073 16.5602 11.8084C16.4528 11.5438 16.293 11.3035 16.0905 11.1022ZM15.3355 13.3672L15.1905 13.4922L13.7405 12.0372C13.6922 11.9822 13.6332 11.9377 13.567 11.9064C13.5008 11.8751 13.429 11.8577 13.3558 11.8553C13.2826 11.853 13.2098 11.8656 13.1417 11.8925C13.0737 11.9194 13.0118 11.96 12.9601 12.0118C12.9083 12.0635 12.8677 12.1253 12.8408 12.1934C12.8139 12.2615 12.8013 12.3343 12.8037 12.4075C12.806 12.4806 12.8234 12.5525 12.8547 12.6187C12.886 12.6849 12.9305 12.7439 12.9855 12.7922L14.4605 14.2672L14.0105 14.7172C13.2326 15.4927 12.179 15.9282 11.0805 15.9282C9.98205 15.9282 8.92841 15.4927 8.1505 14.7172C7.3805 13.9472 6.5055 13.0572 5.6505 12.1672C4.7955 11.2772 3.8705 10.3622 3.0905 9.58219C2.31497 8.80428 1.87948 7.75064 1.87948 6.65219C1.87948 5.55374 2.31497 4.5001 3.0905 3.72219L3.5405 3.27219L4.9655 4.74219C5.06496 4.84496 5.20117 4.90401 5.34416 4.90636C5.48716 4.9087 5.62523 4.85414 5.728 4.75469C5.83077 4.65523 5.88983 4.51902 5.89217 4.37603C5.89452 4.23303 5.83996 4.09496 5.7405 3.99219L4.2405 2.49219L4.3855 2.34719C4.48404 2.24706 4.60158 2.16762 4.73123 2.11353C4.86088 2.05944 5.00002 2.03178 5.1405 2.03219C5.42396 2.03304 5.6955 2.14633 5.8955 2.34719L7.3205 3.79219C7.41941 3.89198 7.47508 4.02668 7.4755 4.16719C7.47556 4.23681 7.46191 4.30576 7.43531 4.37011C7.40872 4.43445 7.3697 4.49293 7.3205 4.54219L6.8205 5.04219C6.28313 5.58111 5.98136 6.31113 5.98136 7.07219C5.98136 7.83325 6.28313 8.56326 6.8205 9.10219C7.2405 9.49219 7.4705 9.73719 7.7405 9.99219C8.0105 10.2472 8.2405 10.5222 8.6355 10.9122C9.17443 11.4496 9.90444 11.7513 10.6655 11.7513C11.4266 11.7513 12.1566 11.4496 12.6955 10.9122L13.1955 10.4122C13.2976 10.3158 13.4326 10.2622 13.573 10.2622C13.7134 10.2622 13.8484 10.3158 13.9505 10.4122L15.3705 11.8322C15.4704 11.9309 15.5497 12.0485 15.6038 12.1781C15.6578 12.3077 15.6856 12.4467 15.6855 12.5872C15.6829 12.7334 15.6506 12.8775 15.5904 13.0108C15.5302 13.144 15.4435 13.2636 15.3355 13.3622V13.3672Z" fill="#181A20"/>
</g>
<defs>
<clipPath id="clip0_6554_3989">
<rect width="16" height="16" fill="white" transform="translate(0.742188 0.992188)"/>
</clipPath>
</defs>
</svg>
