<svg width="20" height="20" viewBox="0 0 20 20" fill="none" xmlns="http://www.w3.org/2000/svg">
<path d="M18.6312 1.36876C18.199 0.933758 17.6848 0.588801 17.1183 0.353856C16.5519 0.11891 15.9445 -0.0013579 15.3312 1.15649e-05H8.66249C7.53283 0.000429416 6.44162 0.410425 5.59117 1.15399C4.74073 1.89756 4.18872 2.92426 4.0375 4.04376C2.91913 4.19637 1.89392 4.74897 1.15163 5.59928C0.409329 6.44959 0.000212342 7.54003 0 8.66876V18.6688C0.00164368 19.0213 0.142428 19.359 0.39173 19.6083C0.641032 19.8576 0.978686 19.9984 1.33125 20H1.6625C1.86953 19.9998 2.0737 19.9517 2.25909 19.8595C2.44448 19.7674 2.60607 19.6336 2.73125 19.4688L3.75 18.125C3.93696 17.8773 4.17867 17.6762 4.45623 17.5375C4.73378 17.3987 5.03968 17.326 5.35 17.325H11.35C12.3956 17.3219 13.41 16.9679 14.2304 16.3197C15.0509 15.6714 15.63 14.7665 15.875 13.75C16.0221 13.8623 16.1525 13.9949 16.2625 14.1438L17.2625 15.4813C17.3873 15.6465 17.5489 15.7805 17.7343 15.8727C17.9198 15.9649 18.1241 16.0127 18.3312 16.0125H18.6625C18.8387 16.0125 19.0131 15.9777 19.1758 15.9101C19.3385 15.8425 19.4862 15.7434 19.6105 15.6186C19.7347 15.4937 19.8331 15.3455 19.9 15.1825C19.9668 15.0195 20.0008 14.8449 20 14.6688V4.66876C20.0014 4.05553 19.8811 3.44811 19.6461 2.88166C19.4112 2.31522 19.0662 1.801 18.6312 1.36876V1.36876ZM14.6687 12.3375C14.6125 13.4875 14.575 14.1438 13.6937 15.025C13.3849 15.3351 13.0176 15.581 12.6132 15.7483C12.2088 15.9157 11.7752 16.0012 11.3375 16H5.3375C4.82006 16.0007 4.30983 16.1213 3.84681 16.3523C3.38379 16.5832 2.98056 16.9183 2.66875 17.3313L1.66875 18.6625H1.33125V8.66251C1.33125 7.779 1.68222 6.93169 2.30695 6.30696C2.93168 5.68223 3.779 5.33126 4.6625 5.33126H11.3312C12.2147 5.33126 13.0621 5.68223 13.6868 6.30696C14.3115 6.93169 14.6625 7.779 14.6625 8.66251L14.6687 12.3375ZM18.6687 14.6688H18.3375L17.3375 13.3375C16.9917 12.8785 16.5331 12.5168 16.0062 12.2875V8.66876C16.0062 8.05512 15.8853 7.44751 15.6503 6.88066C15.4152 6.31381 15.0708 5.79886 14.6366 5.36524C14.2024 4.93163 13.687 4.58786 13.1198 4.3536C12.5527 4.11934 11.9449 3.99919 11.3312 4.00001H5.4C5.55406 3.24673 5.96349 2.56974 6.55907 2.08348C7.15466 1.59722 7.89987 1.33151 8.66874 1.33126H15.3312C16.2147 1.33126 17.0621 1.68223 17.6868 2.30696C18.3115 2.93169 18.6625 3.77901 18.6625 4.66251L18.6687 14.6688Z" fill="white"/>
<path d="M4.78906 11.3047H8.70017V12.6064H4.78906V11.3047Z" fill="white"/>
<path d="M4.78906 8.69531H11.3096V9.99698H4.78906V8.69531Z" fill="white"/>
</svg>
