<svg width="22" height="22" viewBox="0 0 22 22" fill="none" xmlns="http://www.w3.org/2000/svg">
<path d="M19.6312 2.36876C19.199 1.93376 18.6848 1.5888 18.1183 1.35386C17.5519 1.11891 16.9445 0.998642 16.3312 1.00001H9.66249C8.53283 1.00043 7.44162 1.41043 6.59117 2.15399C5.74073 2.89756 5.18872 3.92426 5.0375 5.04376C3.91913 5.19637 2.89392 5.74897 2.15163 6.59928C1.40933 7.44959 1.00021 8.54003 1 9.66876V19.6688C1.00164 20.0213 1.14243 20.359 1.39173 20.6083C1.64103 20.8576 1.97869 20.9984 2.33125 21H2.6625C2.86953 20.9998 3.0737 20.9517 3.25909 20.8595C3.44448 20.7674 3.60607 20.6336 3.73125 20.4688L4.75 19.125C4.93696 18.8773 5.17867 18.6762 5.45622 18.5375C5.73378 18.3987 6.03968 18.326 6.35 18.325H12.35C13.3956 18.3219 14.41 17.9679 15.2304 17.3197C16.0509 16.6714 16.63 15.7666 16.875 14.75C17.0221 14.8623 17.1525 14.9949 17.2625 15.1438L18.2625 16.4813C18.3873 16.6465 18.5489 16.7805 18.7343 16.8727C18.9198 16.9649 19.1241 17.0127 19.3312 17.0125H19.6625C19.8387 17.0125 20.0131 16.9777 20.1758 16.9101C20.3385 16.8425 20.4862 16.7434 20.6105 16.6186C20.7347 16.4937 20.8331 16.3455 20.9 16.1825C20.9668 16.0195 21.0008 15.8449 21 15.6688V5.66876C21.0014 5.05553 20.8811 4.44811 20.6461 3.88166C20.4112 3.31522 20.0662 2.801 19.6312 2.36876ZM15.6687 13.3375C15.6125 14.4875 15.575 15.1438 14.6937 16.025C14.3849 16.3351 14.0176 16.581 13.6132 16.7483C13.2088 16.9157 12.7752 17.0012 12.3375 17H6.3375C5.82006 17.0007 5.30983 17.1213 4.84681 17.3523C4.38379 17.5832 3.98056 17.9183 3.66875 18.3313L2.66875 19.6625H2.33125V9.66251C2.33125 8.779 2.68222 7.93169 3.30695 7.30696C3.93168 6.68223 4.779 6.33126 5.6625 6.33126H12.3312C13.2147 6.33126 14.0621 6.68223 14.6868 7.30696C15.3115 7.93169 15.6625 8.779 15.6625 9.66251L15.6687 13.3375ZM19.6687 15.6688H19.3375L18.3375 14.3375C17.9917 13.8785 17.5331 13.5168 17.0062 13.2875V9.66876C17.0062 9.05512 16.8853 8.44751 16.6503 7.88066C16.4152 7.31381 16.0708 6.79886 15.6366 6.36524C15.2024 5.93163 14.687 5.58786 14.1198 5.3536C13.5527 5.11934 12.9449 4.99919 12.3312 5.00001H6.4C6.55406 4.24673 6.96349 3.56974 7.55907 3.08348C8.15466 2.59722 8.89987 2.33151 9.66874 2.33126H16.3312C17.2147 2.33126 18.0621 2.68223 18.6868 3.30696C19.3115 3.93169 19.6625 4.77901 19.6625 5.66251L19.6687 15.6688Z" fill="#181A20"/>
<path d="M5.78906 12.3047H9.70017V13.6064H5.78906V12.3047Z" fill="#181A20"/>
<path d="M5.78906 9.69531H12.3096V10.997H5.78906V9.69531Z" fill="#181A20"/>
</svg>
