<svg width="22" height="22" viewBox="0 0 22 22" fill="none" xmlns="http://www.w3.org/2000/svg">
<path d="M11 21C9.02219 21 7.08879 20.4135 5.4443 19.3147C3.79981 18.2159 2.51809 16.6541 1.76121 14.8268C1.00433 12.9996 0.8063 10.9889 1.19215 9.0491C1.578 7.10929 2.53041 5.32746 3.92894 3.92894C5.32746 2.53041 7.10929 1.578 9.0491 1.19215C10.9889 0.8063 12.9996 1.00433 14.8268 1.76121C16.6541 2.51809 18.2159 3.79981 19.3147 5.4443C20.4135 7.08879 21 9.02219 21 11C21 13.6522 19.9464 16.1957 18.0711 18.0711C16.1957 19.9464 13.6522 21 11 21ZM11 2.33125C9.28549 2.33125 7.60947 2.83967 6.1839 3.7922C4.75834 4.74474 3.64724 6.09861 2.99112 7.68262C2.33501 9.26662 2.16334 11.0096 2.49782 12.6912C2.83231 14.3728 3.65793 15.9174 4.87027 17.1297C6.08262 18.3421 7.62724 19.1677 9.30881 19.5022C10.9904 19.8367 12.7334 19.665 14.3174 19.0089C15.9014 18.3528 17.2553 17.2417 18.2078 15.8161C19.1603 14.3905 19.6688 12.7145 19.6688 11C19.6671 8.70142 18.7533 6.49745 17.1279 4.8721C15.5026 3.24675 13.2986 2.33291 11 2.33125Z" fill="#181A20"/>
<path d="M8.45089 14.8525C8.23862 14.8539 8.02922 14.8034 7.84095 14.7053C7.65269 14.6072 7.49126 14.4646 7.37074 14.2899C7.25023 14.1151 7.17428 13.9135 7.14951 13.7027C7.12475 13.4919 7.15192 13.2782 7.22867 13.0803L8.55478 9.66416C8.65339 9.41206 8.80312 9.1831 8.99453 8.99169C9.18595 8.80028 9.4149 8.65055 9.667 8.55194L13.0831 7.23805C13.3188 7.14575 13.5763 7.12418 13.8241 7.17598C14.0719 7.22778 14.2991 7.3507 14.4781 7.52969C14.6571 7.70868 14.78 7.93597 14.8318 8.18374C14.8836 8.43151 14.8621 8.68901 14.7698 8.92471L13.4437 12.3286C13.3451 12.5807 13.1953 12.8097 13.0039 13.0011C12.8125 13.1925 12.5835 13.3422 12.3314 13.4408L8.91533 14.7547C8.76786 14.8156 8.6104 14.8488 8.45089 14.8525ZM13.5537 8.44194L10.1376 9.77416C10.0528 9.80669 9.97575 9.85669 9.91153 9.92091C9.84731 9.98513 9.79731 10.0621 9.76478 10.1469L8.45089 13.563L11.8609 12.2186C11.9457 12.1861 12.0227 12.1361 12.0869 12.0719C12.1511 12.0076 12.2011 11.9306 12.2337 11.8458L13.5537 8.44194Z" fill="#181A20"/>
</svg>
