<svg width="20" height="20" viewBox="0 0 20 20" fill="none" xmlns="http://www.w3.org/2000/svg">
<path d="M10 20C8.02219 20 6.08879 19.4135 4.4443 18.3147C2.79981 17.2159 1.51809 15.6541 0.761209 13.8268C0.00433281 11.9996 -0.1937 9.98891 0.192152 8.0491C0.578004 6.10929 1.53041 4.32746 2.92894 2.92894C4.32746 1.53041 6.10929 0.578004 8.0491 0.192152C9.98891 -0.1937 11.9996 0.00433281 13.8268 0.761209C15.6541 1.51809 17.2159 2.79981 18.3147 4.4443C19.4135 6.08879 20 8.02219 20 10C20 12.6522 18.9464 15.1957 17.0711 17.0711C15.1957 18.9464 12.6522 20 10 20V20ZM10 1.33125C8.28549 1.33125 6.60947 1.83967 5.1839 2.7922C3.75834 3.74474 2.64724 5.09861 1.99112 6.68262C1.33501 8.26662 1.16334 10.0096 1.49782 11.6912C1.83231 13.3728 2.65793 14.9174 3.87027 16.1297C5.08262 17.3421 6.62724 18.1677 8.30881 18.5022C9.99039 18.8367 11.7334 18.665 13.3174 18.0089C14.9014 17.3528 16.2553 16.2417 17.2078 14.8161C18.1603 13.3905 18.6688 11.7145 18.6688 10C18.6671 7.70142 17.7533 5.49745 16.1279 3.8721C14.5026 2.24675 12.2986 1.33291 10 1.33125V1.33125Z" fill="white"/>
<path d="M7.45089 13.8525C7.23862 13.8539 7.02922 13.8034 6.84095 13.7053C6.65269 13.6072 6.49126 13.4646 6.37074 13.2899C6.25023 13.1151 6.17428 12.9135 6.14951 12.7027C6.12475 12.4919 6.15192 12.2782 6.22867 12.0803L7.55478 8.66416C7.65339 8.41206 7.80312 8.1831 7.99453 7.99169C8.18595 7.80028 8.4149 7.65055 8.667 7.55194L12.0831 6.23805C12.3188 6.14575 12.5763 6.12418 12.8241 6.17598C13.0719 6.22778 13.2992 6.3507 13.4781 6.52969C13.6571 6.70868 13.78 6.93597 13.8318 7.18374C13.8836 7.43151 13.8621 7.68901 13.7698 7.92471L12.4437 11.3286C12.3451 11.5807 12.1953 11.8097 12.0039 12.0011C11.8125 12.1925 11.5835 12.3422 11.3314 12.4408L7.91533 13.7547C7.76786 13.8156 7.6104 13.8488 7.45089 13.8525V13.8525ZM12.5537 7.44194L9.13756 8.77416C9.05276 8.80669 8.97575 8.85669 8.91153 8.92091C8.84731 8.98513 8.79731 9.06214 8.76478 9.14694L7.45089 12.563L10.8609 11.2186C10.9457 11.1861 11.0227 11.1361 11.0869 11.0719C11.1511 11.0076 11.2011 10.9306 11.2337 10.8458L12.5537 7.44194Z" fill="white"/>
</svg>
