<svg width="16" height="14" viewBox="0 0 16 14" fill="none" xmlns="http://www.w3.org/2000/svg">
<g id="electricity 1" clipPath="url(#clip0_6638_943)">
<g id="Vector" filter="url(#filter0_d_6638_943)">
<path d="M13.1853 6.84599C13.1503 6.76783 13.0891 6.70076 13.0098 6.65356C12.9305 6.60637 12.8367 6.58126 12.7407 6.58155H10.1181L10.8782 1.2421C10.8886 1.15832 10.8696 1.07376 10.8238 0.999609C10.778 0.925461 10.7076 0.865221 10.6218 0.82686C10.5361 0.7885 10.439 0.773826 10.3435 0.784781C10.248 0.795737 10.1585 0.831805 10.087 0.888212L2.93911 6.69432C2.86967 6.75137 2.82141 6.82534 2.80058 6.90665C2.77975 6.98796 2.7873 7.07288 2.82226 7.15039C2.85722 7.22791 2.91798 7.29445 2.99667 7.34141C3.07536 7.38837 3.16835 7.41358 3.2636 7.41377H5.89071L5.12614 12.7532C5.11436 12.8375 5.13232 12.9229 5.17761 12.9979C5.2229 13.073 5.29335 13.1342 5.37951 13.1732C5.46645 13.2105 5.56416 13.2241 5.66003 13.2123C5.7559 13.2005 5.84553 13.1639 5.91738 13.1071L13.0652 7.30099C13.135 7.24435 13.1837 7.17072 13.2051 7.08961C13.2265 7.00849 13.2196 6.92363 13.1853 6.84599V6.84599ZM6.2241 11.7265L6.89087 7.05988C6.89904 7.00147 6.89296 6.94221 6.87303 6.88601C6.8531 6.82981 6.81977 6.77794 6.77524 6.73384C6.73071 6.68974 6.67599 6.6544 6.6147 6.63016C6.55341 6.60592 6.48694 6.59333 6.41968 6.59321H4.44602L9.78024 2.26877L9.11346 6.93543C9.10529 6.99384 9.11137 7.0531 9.13131 7.1093C9.15124 7.16551 9.18457 7.21737 9.2291 7.26147C9.27363 7.30557 9.32834 7.34091 9.38963 7.36515C9.45092 7.38939 9.51739 7.40199 9.58465 7.4021H11.5583L6.2241 11.7265Z" fill="white"/>
</g>
</g>
<defs>
<filter id="filter0_d_6638_943" x="-1.21094" y="0.78125" width="18.4297" height="20.4375" filterUnits="userSpaceOnUse" color-interpolation-filters="sRGB">
<feFlood flood-opacity="0" result="BackgroundImageFix"/>
<feColorMatrix in="SourceAlpha" type="matrix" values="0 0 0 0 0 0 0 0 0 0 0 0 0 0 0 0 0 0 127 0" result="hardAlpha"/>
<feOffset dy="4"/>
<feGaussianBlur stdDeviation="2"/>
<feComposite in2="hardAlpha" operator="out"/>
<feColorMatrix type="matrix" values="0 0 0 0 0 0 0 0 0 0 0 0 0 0 0 0 0 0 0.25 0"/>
<feBlend mode="normal" in2="BackgroundImageFix" result="effect1_dropShadow_6638_943"/>
<feBlend mode="normal" in="SourceGraphic" in2="effect1_dropShadow_6638_943" result="shape"/>
</filter>
<clipPath id="clip0_6638_943">
<rect width="16.0027" height="14" fill="white"/>
</clipPath>
</defs>
</svg>
