<svg width="18" height="17" viewBox="0 0 18 17" fill="none" xmlns="http://www.w3.org/2000/svg">
<g id="expand 1" clipPath="url(#clip0_6741_4031)">
<path id="Vector" d="M7.28906 0.945312H10.4423V1.90975H7.28906V0.945312Z" fill="#181A20"/>
<path id="Vector_2" d="M15.7013 13.9881C15.7013 14.1166 15.6458 14.2398 15.5469 14.3307C15.448 14.4215 15.3139 14.4726 15.1741 14.4726H13.0703V15.437H15.1741C15.5923 15.437 15.9933 15.2843 16.289 15.0126C16.5846 14.7409 16.7507 14.3724 16.7507 13.9881V12.0547H15.7013V13.9881Z" fill="#181A20"/>
<path id="Vector_3" d="M15.1741 0.945312H13.0703V1.90975H15.1741C15.2434 1.90975 15.3119 1.92228 15.3759 1.94663C15.4398 1.97097 15.4979 2.00666 15.5469 2.05165C15.5958 2.09664 15.6347 2.15004 15.6612 2.20882C15.6877 2.2676 15.7013 2.3306 15.7013 2.39423V4.32762H16.7507V2.39423C16.7507 2.00995 16.5846 1.64141 16.289 1.36969C15.9933 1.09797 15.5923 0.945313 15.1741 0.945312Z" fill="#181A20"/>
<path id="Vector_4" d="M2.03382 2.39423C2.03382 2.3306 2.04745 2.2676 2.07395 2.20882C2.10044 2.15004 2.13927 2.09664 2.18822 2.05165C2.23718 2.00666 2.29529 1.97097 2.35926 1.94663C2.42322 1.92228 2.49177 1.90975 2.561 1.90975H4.66481V0.945312H2.561C2.14285 0.945313 1.74183 1.09797 1.44616 1.36969C1.15048 1.64141 0.984375 2.00995 0.984375 2.39423V4.32762H2.03382V2.39423Z" fill="#181A20"/>
<path id="Vector_5" d="M15.7031 6.74219H16.7526V9.64002H15.7031V6.74219Z" fill="#181A20"/>
<path id="Vector_6" d="M13.0702 7.70262V4.80479C13.0702 4.6763 13.0146 4.55307 12.9158 4.46221C12.8169 4.37136 12.6828 4.32031 12.543 4.32031H9.38976V5.28927H11.2719L8.48812 7.84751C8.27783 7.75322 8.04712 7.70369 7.81313 7.70262H2.561C2.38089 7.70456 2.20252 7.7352 2.03382 7.79318V6.73819H0.984375V13.9828C0.984375 14.367 1.15048 14.7356 1.44616 15.0073C1.74183 15.279 2.14285 15.4317 2.561 15.4317H10.4441V14.4672H9.29614C9.35924 14.3122 9.39258 14.1483 9.39468 13.9828V9.15154C9.39352 8.9365 9.33963 8.72448 9.23702 8.53122L12.0207 5.97298V7.70262H13.0702ZM2.561 14.4672C2.42118 14.4672 2.28709 14.4162 2.18822 14.3253C2.08936 14.2345 2.03382 14.1113 2.03382 13.9828V9.15154C2.03511 9.02383 2.09123 8.90176 2.18996 8.81188C2.28868 8.722 2.42203 8.67158 2.561 8.67159H7.81806C7.95788 8.67159 8.09197 8.72263 8.19083 8.81349C8.2897 8.90434 8.34524 9.02757 8.34524 9.15607V13.9828C8.34524 14.1113 8.2897 14.2345 8.19083 14.3253C8.09197 14.4162 7.95788 14.4672 7.81806 14.4672H2.561Z" fill="#181A20"/>
</g>
<defs>
<clipPath id="clip0_6741_4031">
<rect width="17.737" height="16.3003" fill="white" transform="translate(0 0.0390625)"/>
</clipPath>
</defs>
</svg>
