<svg width="17" height="16" viewBox="0 0 17 16" fill="none" xmlns="http://www.w3.org/2000/svg">
<g id="fullscreen 1" clipPath="url(#clip0_6638_405)">
<path id="Vector" d="M14.4381 11.8947C14.4381 12.5009 14.1954 13.0823 13.7635 13.511C13.3316 13.9397 12.7458 14.1805 12.135 14.1805H4.75903C4.14822 14.1805 3.56242 13.9397 3.1305 13.511C2.69859 13.0823 2.45595 12.5009 2.45595 11.8947V4.57852C2.45538 4.27799 2.51453 3.98029 2.63002 3.70247C2.7455 3.42465 2.91506 3.17217 3.12897 2.95946C3.34289 2.74675 3.59698 2.578 3.87668 2.46286C4.15639 2.34772 4.45622 2.28845 4.75903 2.28846H8.90719V1.375H4.75903C4.335 1.37444 3.91501 1.45691 3.52314 1.61771C3.13127 1.7785 2.77522 2.01445 2.47538 2.31203C2.17554 2.60962 1.9378 2.963 1.77579 3.35192C1.61378 3.74084 1.53068 4.15767 1.53125 4.57852V11.8947C1.53068 12.3156 1.61378 12.7324 1.77579 13.1213C1.9378 13.5102 2.17554 13.8636 2.47538 14.1612C2.77522 14.4588 3.13127 14.6947 3.52314 14.8555C3.91501 15.0163 4.335 15.0988 4.75903 15.0982H12.1306C12.5547 15.0988 12.9747 15.0163 13.3665 14.8555C13.7584 14.6947 14.1145 14.4588 14.4143 14.1612C14.7141 13.8636 14.9519 13.5102 15.1139 13.1213C15.2759 12.7324 15.359 12.3156 15.3584 11.8947V7.77775H14.4381V11.8947Z" fill="#181A20"/>
<path id="Vector_2" d="M14.8925 1.375H10.7444V2.28845H13.769L8.11719 7.91498L8.76966 8.56254L14.4345 2.93602V5.93797H15.3548V1.83387C15.3548 1.71217 15.3061 1.59545 15.2194 1.5094C15.1327 1.42335 15.0151 1.375 14.8925 1.375V1.375Z" fill="#181A20"/>
</g>
<defs>
<clipPath id="clip0_6638_405">
<rect width="15.5556" height="15.4386" fill="white" transform="translate(0.664062 0.515625)"/>
</clipPath>
</defs>
</svg>
