<svg width="40" height="35" viewBox="0 0 40 35" fill="none" xmlns="http://www.w3.org/2000/svg">
<path fill-rule="evenodd" clip-rule="evenodd" d="M34.498 9.18884L20.6924 2.08189C20.518 1.99239 20.3207 1.94531 20.1199 1.94531C19.9191 1.94531 19.7218 1.99239 19.5474 2.08189L5.7418 9.18884C4.86073 9.64324 4.12824 10.2986 3.61811 11.0888C3.10797 11.879 2.83819 12.7763 2.83594 13.6902V27.875C2.83594 29.2493 3.44255 30.5673 4.52233 31.5391C5.60211 32.5109 7.06661 33.0569 8.59365 33.0569H31.6461C33.1732 33.0569 34.6377 32.5109 35.7174 31.5391C36.7972 30.5673 37.4038 29.2493 37.4038 27.875V13.6902C37.4027 12.7761 37.1334 11.8784 36.6231 11.088C36.1129 10.2976 35.3798 9.64248 34.498 9.18884ZM21.2758 22.6833C21.2846 21.5895 21.7693 20.5424 22.6261 19.7666C23.0509 19.3822 23.5558 19.077 24.1119 18.8684C24.668 18.6599 25.2644 18.5521 25.8668 18.5513C26.1734 18.5513 26.4674 18.6609 26.6841 18.856C26.9009 19.0511 27.0227 19.3157 27.0227 19.5916C27.0218 20.1338 26.9021 20.6705 26.6703 21.171C26.4386 21.6715 26.0995 22.1259 25.6724 22.5083C24.8104 23.2793 23.6469 23.7156 22.4316 23.7236H21.2758V22.6833ZM18.964 23.7236H17.819C17.2165 23.7228 16.6202 23.615 16.0641 23.4065C15.508 23.1979 15.0031 22.8927 14.5782 22.5083C13.7215 21.7325 13.2367 20.6854 13.2279 19.5916C13.2279 19.3157 13.3497 19.0511 13.5665 18.856C13.7832 18.6609 14.0772 18.5513 14.3838 18.5513C15.5991 18.5593 16.7625 18.9956 17.6245 19.7666C18.0517 20.149 18.3908 20.6034 18.6225 21.1039C18.8542 21.6044 18.9739 22.1411 18.9748 22.6833L18.964 23.7236ZM35.0921 27.875C35.0921 28.7001 34.7279 29.4914 34.0796 30.0748C33.4314 30.6583 32.5521 30.9861 31.6353 30.9861H21.2649V25.7944H22.4208C24.2542 25.7914 26.0125 25.1382 27.3143 23.9763C27.9579 23.399 28.4679 22.7124 28.8146 21.9564C29.1614 21.2004 29.338 20.39 29.3344 19.5722C29.3344 18.7471 28.9702 17.9557 28.3219 17.3723C27.6736 16.7888 26.7944 16.4611 25.8776 16.4611C24.9682 16.4596 24.0675 16.6204 23.2276 16.9341C22.3876 17.2478 21.6251 17.7083 20.9841 18.2888C20.6573 18.586 20.3642 18.9117 20.1091 19.2611C19.4778 18.4069 18.622 17.7062 17.6176 17.2211C16.6132 16.7361 15.4912 16.4817 14.3514 16.4805C13.4346 16.4805 12.5553 16.8083 11.9071 17.3917C11.2588 17.9752 10.8946 18.7665 10.8946 19.5916C10.8946 20.4087 11.0734 21.2178 11.4208 21.9728C11.7683 22.7277 12.2775 23.4136 12.9195 23.9914C13.5615 24.5692 14.3237 25.0275 15.1624 25.3402C16.0012 25.6529 16.9003 25.8138 17.8082 25.8138H18.964V30.9958H8.59365C7.67686 30.9958 6.79761 30.668 6.14933 30.0846C5.50106 29.5011 5.13686 28.7098 5.13686 27.8847V13.6902C5.13849 13.141 5.30116 12.6018 5.60843 12.1273C5.9157 11.6527 6.3567 11.2595 6.88686 10.9874L20.1199 4.18189L33.3637 10.9874C33.8919 11.2607 34.3307 11.6545 34.636 12.1289C34.9413 12.6034 35.1024 13.1419 35.1029 13.6902L35.0921 27.875Z" fill="#181A20"/>
</svg>
