<svg width="18" height="20" viewBox="0 0 18 20" fill="none" xmlns="http://www.w3.org/2000/svg">
<path d="M14.5337 20H3.45979C2.54272 19.9983 1.66371 19.6471 1.01524 19.0233C0.366779 18.3994 0.00171575 17.5538 0 16.6715V6.88588C0.00183194 6.34064 0.143129 5.8042 0.411423 5.32392C0.679718 4.84363 1.06676 4.43426 1.53841 4.13192L7.04941 0.578614C7.62323 0.201656 8.30191 0 8.99675 0C9.6916 0 10.3703 0.201656 10.9441 0.578614L16.4811 4.13192C16.9491 4.43639 17.3323 4.84669 17.5972 5.32684C17.862 5.80699 18.0003 6.34232 18 6.88588V16.6715C17.9983 17.5549 17.6323 18.4015 16.9825 19.0255C16.3326 19.6495 15.4519 20 14.5337 20V20ZM8.99675 1.34673C8.58761 1.34782 8.18792 1.46513 7.84782 1.68395L2.30436 5.23725C2.02208 5.41836 1.79039 5.66344 1.62966 5.95092C1.46893 6.23839 1.3841 6.55946 1.38262 6.88588V16.6715C1.38262 17.2015 1.60146 17.7098 1.99101 18.0846C2.38055 18.4593 2.90889 18.6699 3.45979 18.6699H14.5337C15.0846 18.6699 15.613 18.4593 16.0025 18.0846C16.392 17.7098 16.6109 17.2015 16.6109 16.6715V6.88588C16.6115 6.55735 16.5277 6.23376 16.3669 5.94393C16.2061 5.65411 15.9733 5.40705 15.6891 5.22476L10.1457 1.68395C9.80576 1.46479 9.40595 1.34745 8.99675 1.34673V1.34673Z" fill="white"/>
<path d="M6.39062 15.2109H11.6034V16.5126H6.39062V15.2109Z" fill="white"/>
</svg>
