<svg width="86" height="86" viewBox="0 0 86 86" fill="none" xmlns="http://www.w3.org/2000/svg">
<g clipPath="url(#clip0_3609_19079)">
<path d="M43 2.159C52.4215 2.16655 61.5508 5.43025 68.8418 11.3973C76.1328 17.3644 81.1372 25.6681 83.0077 34.902C84.8781 44.136 83.4995 53.7326 79.1053 62.0667C74.7111 70.4007 67.5715 76.9598 58.8956 80.6331C48.9295 84.7683 37.7321 84.7929 27.7479 80.7016C17.7637 76.6102 9.80341 68.7352 5.60484 58.7956C1.40627 48.856 1.31037 37.659 5.33805 27.649C9.36574 17.6389 17.1899 9.62867 27.1026 5.3669C32.1321 3.23933 37.5391 2.14826 43 2.159M43 0C19.251 0 0 19.251 0 43C0 66.749 19.251 86 43 86C66.749 86 86 66.749 86 43C86 19.251 66.749 0 43 0Z" fill="#BDBDBD"/>
<path d="M43.0001 22.9393C42.5707 22.9393 42.1588 23.1099 41.8551 23.4136C41.5515 23.7173 41.3809 24.1291 41.3809 24.5586V50.2866C41.3809 50.7161 41.5515 51.1279 41.8551 51.4316C42.1588 51.7353 42.5707 51.9059 43.0001 51.9059C43.4296 51.9059 43.8414 51.7353 44.1451 51.4316C44.4488 51.1279 44.6194 50.7161 44.6194 50.2866V24.5586C44.6194 24.1291 44.4488 23.7173 44.1451 23.4136C43.8414 23.1099 43.4296 22.9393 43.0001 22.9393V22.9393Z" fill="#BDBDBD"/>
<path d="M43.0001 59.8223C42.6799 59.8223 42.3668 59.9172 42.1005 60.0952C41.8342 60.2731 41.6267 60.526 41.5041 60.8219C41.3816 61.1177 41.3495 61.4433 41.412 61.7574C41.4745 62.0715 41.6287 62.36 41.8551 62.5865C42.0816 62.8129 42.3701 62.9672 42.6842 63.0296C42.9983 63.0921 43.3239 63.0601 43.6198 62.9375C43.9156 62.8149 44.1685 62.6074 44.3465 62.3411C44.5244 62.0748 44.6194 61.7618 44.6194 61.4415C44.6194 61.0121 44.4488 60.6002 44.1451 60.2965C43.8414 59.9929 43.4296 59.8223 43.0001 59.8223V59.8223Z" fill="#BDBDBD"/>
</g>
<defs>
<clipPath id="clip0_3609_19079">
<rect width="86" height="86" fill="white"/>
</clipPath>
</defs>
</svg>
