<svg width="36" height="31" viewBox="0 0 36 31" fill="none" xmlns="http://www.w3.org/2000/svg">
<path d="M33.008 19.9589L22.398 7.93385L23.888 4.20885C23.9955 3.9431 24.0258 3.65991 23.9766 3.3825C23.9274 3.10508 23.8 2.84133 23.6048 2.61286C23.4097 2.38439 23.1524 2.1977 22.854 2.06808C22.5556 1.93847 22.2245 1.86962 21.888 1.86719H14.158C13.8215 1.86962 13.4905 1.93847 13.1921 2.06808C12.8937 2.1977 12.6364 2.38439 12.4412 2.61286C12.2461 2.84133 12.1187 3.10508 12.0695 3.3825C12.0202 3.65991 12.0506 3.9431 12.158 4.20885L13.648 7.93385L3.00806 19.9589C2.3475 20.7227 1.99713 21.6424 2.00806 22.5839V24.0839C2.00675 24.6678 2.14364 25.2463 2.41091 25.7862C2.67818 26.326 3.07057 26.8166 3.56564 27.23C4.0607 27.6433 4.64872 27.9712 5.29604 28.195C5.94336 28.4187 6.63726 28.5339 7.33805 28.5339H28.678C30.0916 28.5339 31.4473 28.0659 32.4469 27.2329C33.4465 26.3999 34.008 25.2702 34.008 24.0922V22.5922C34.0211 21.6479 33.6706 20.725 33.008 19.9589ZM21.858 3.64219L20.438 7.20052H15.578L14.158 3.64219H21.858ZM31.858 24.0839C31.858 24.7911 31.5209 25.4694 30.9207 25.9695C30.3206 26.4696 29.5067 26.7505 28.658 26.7505H7.33805C6.48936 26.7505 5.67543 26.4696 5.07531 25.9695C4.4752 25.4694 4.13806 24.7911 4.13806 24.0839V22.5839C4.14636 22.026 4.36307 21.4843 4.75806 21.0339L15.348 8.97552H20.668L31.258 21.0339C31.659 21.4912 31.876 22.0425 31.878 22.6089L31.858 24.0839Z" fill="#181A20"/>
<path d="M21.2297 18.7625H15.8197V17.3375H21.8197V15.5625H19.0697V14.3125H16.9397V15.5542H14.7497C14.4659 15.5542 14.1937 15.6481 13.9931 15.8153C13.7924 15.9826 13.6797 16.2093 13.6797 16.4458V19.6458C13.6797 19.8823 13.7924 20.1091 13.9931 20.2763C14.1937 20.4436 14.4659 20.5375 14.7497 20.5375H20.1597V21.9625H14.1597V23.7375H16.9297V24.9792H19.0597V23.7375H21.2197C21.3602 23.7375 21.4993 23.7144 21.6291 23.6696C21.759 23.6248 21.8769 23.5591 21.9763 23.4763C22.0756 23.3935 22.1544 23.2952 22.2082 23.1871C22.262 23.0789 22.2897 22.9629 22.2897 22.8458V19.6458C22.2871 19.4122 22.1745 19.1888 21.9763 19.0236C21.7781 18.8584 21.51 18.7647 21.2297 18.7625Z" fill="#181A20"/>
</svg>
