<svg width="36" height="31" viewBox="0 0 36 31" fill="none" xmlns="http://www.w3.org/2000/svg">
<g clipPath="url(#clip0_6554_2615)">
<path d="M27.3136 18.0143C26.8667 18.0165 26.4238 17.9447 26.0105 17.803C25.5973 17.6614 25.2218 17.4528 24.9061 17.1893L23.1961 15.7643L21.3848 17.2831C21.164 17.4671 20.8646 17.5704 20.5523 17.5704C20.2401 17.5704 19.9406 17.4671 19.7198 17.2831C19.499 17.0991 19.375 16.8495 19.375 16.5893C19.375 16.3291 19.499 16.0796 19.7198 15.8956L22.4086 13.655C22.5157 13.5612 22.645 13.487 22.7883 13.437C22.9316 13.387 23.0858 13.3623 23.2411 13.3643C23.3964 13.3623 23.5506 13.387 23.6938 13.437C23.8371 13.487 23.9664 13.5612 24.0736 13.655L26.6161 15.7737C26.7732 15.8789 26.9614 15.9469 27.161 15.9707C27.3605 15.9945 27.5641 15.9732 27.7503 15.909C27.9366 15.8448 28.0987 15.7401 28.2198 15.6058C28.3409 15.4715 28.4164 15.3125 28.4386 15.1456C28.4384 15.0301 28.4105 14.9159 28.3564 14.8096C28.3023 14.7033 28.2231 14.6071 28.1236 14.5268L25.5361 12.3893C25.4201 12.3015 25.3274 12.1944 25.2639 12.0749C25.2005 11.9554 25.1678 11.8262 25.1678 11.6956C25.1678 11.5649 25.2005 11.4357 25.2639 11.3163C25.3274 11.1968 25.4201 11.0897 25.5361 11.0018L28.6748 8.38621C28.782 8.29249 28.9113 8.21829 29.0546 8.16827C29.1978 8.11825 29.352 8.0935 29.5073 8.09558C29.6626 8.0935 29.8168 8.11825 29.9601 8.16827C30.1033 8.21829 30.2326 8.29249 30.3398 8.38621L31.8248 9.62371C32.0315 9.77918 32.3001 9.86524 32.5786 9.86524C32.857 9.86524 33.1256 9.77918 33.3323 9.62371C33.5189 9.45144 33.6221 9.22763 33.6221 8.99558C33.6221 8.76353 33.5189 8.53972 33.3323 8.36746L31.8586 7.13933C31.7425 7.05146 31.6499 6.94436 31.5864 6.82489C31.523 6.70542 31.4902 6.57622 31.4902 6.44558C31.4902 6.31494 31.523 6.18574 31.5864 6.06628C31.6499 5.94681 31.7425 5.8397 31.8586 5.75183L32.9048 4.88933C33.2398 4.61085 33.4298 4.23364 33.4336 3.83933C33.4374 3.62707 33.3861 3.41663 33.2832 3.22245C33.1803 3.02826 33.0282 2.85493 32.8373 2.71433C32.4556 2.46395 31.9744 2.34315 31.4903 2.37619C31.0062 2.40923 30.555 2.59366 30.2273 2.89246C30.1113 2.97864 29.9761 3.04494 29.8294 3.08757C29.6827 3.13021 29.5273 3.14834 29.3722 3.14094C29.0589 3.126 28.7655 3.00795 28.5567 2.81277C28.3478 2.61759 28.2406 2.36126 28.2585 2.10017C28.2764 1.83909 28.4181 1.59463 28.6523 1.42058C29.4118 0.794279 30.4269 0.429934 31.4948 0.400386C32.5627 0.370838 33.6046 0.678266 34.4123 1.26121C34.8504 1.58524 35.1997 1.98402 35.4365 2.43048C35.6733 2.87693 35.7921 3.36062 35.7848 3.84871C35.7806 4.75545 35.3481 5.62436 34.5811 6.26746L34.3673 6.44558L35.0198 6.98933C35.6628 7.52391 36.0246 8.24944 36.0257 9.00633C36.0267 9.76322 35.6669 10.4894 35.0254 11.0253C34.3839 11.5611 33.5133 11.8626 32.605 11.8635C31.6968 11.8644 30.8253 11.5645 30.1823 11.03L29.5186 10.5143L28.0336 11.7518L29.7323 13.1768C30.0538 13.4388 30.3092 13.7516 30.4836 14.0969C30.6579 14.4422 30.7478 14.8131 30.7478 15.1878C30.7478 15.5624 30.6579 15.9333 30.4836 16.2786C30.3092 16.624 30.0538 16.9368 29.7323 17.1987C29.4143 17.4616 29.0366 17.6692 28.6213 17.8092C28.2061 17.9492 27.7615 18.019 27.3136 18.0143Z" fill="#181A20"/>
<path d="M27.2786 3.95537C27.1732 3.8587 27.0446 3.78145 26.9013 3.7286C26.7579 3.67574 26.6029 3.64844 26.4461 3.64844C26.2893 3.64844 26.1343 3.67574 25.9909 3.7286C25.8476 3.78145 25.719 3.8587 25.6136 3.95537L12.5974 14.7929C10.3378 14.1486 7.86877 14.2439 5.69029 15.0594C3.5118 15.875 1.78659 17.35 0.863919 19.1856C-0.0587472 21.0213 -0.109924 23.0805 0.72075 24.9465C1.55142 26.8124 3.20188 28.3456 5.33798 29.2356C7.47408 30.1257 9.93621 30.3061 12.2259 29.7403C14.5156 29.1745 16.4618 27.9049 17.6704 26.1883C18.879 24.4718 19.2598 22.4367 18.7357 20.4951C18.2116 18.5534 16.8217 16.8502 14.8474 15.7304L27.2786 5.33349C27.3928 5.2457 27.4839 5.13916 27.5463 5.02056C27.6086 4.90197 27.6408 4.7739 27.6408 4.64443C27.6408 4.51496 27.6086 4.38689 27.5463 4.2683C27.4839 4.14971 27.3928 4.04316 27.2786 3.95537ZM16.4899 22.171C16.4899 23.3354 16.0755 24.4737 15.2992 25.4419C14.5229 26.4101 13.4195 27.1647 12.1285 27.6103C10.8376 28.0559 9.41705 28.1725 8.04657 27.9454C6.6761 27.7182 5.41724 27.1575 4.42918 26.3341C3.44113 25.5107 2.76825 24.4617 2.49565 23.3196C2.22304 22.1775 2.36295 20.9937 2.89769 19.9179C3.43242 18.8421 4.33796 17.9226 5.49979 17.2757C6.66162 16.6288 8.02756 16.2835 9.42488 16.2835C10.3527 16.2835 11.2714 16.4358 12.1285 16.7317C12.9857 17.0275 13.7645 17.4612 14.4206 18.0079C15.0766 18.5546 15.597 19.2036 15.9521 19.9179C16.3071 20.6322 16.4899 21.3978 16.4899 22.171Z" fill="#181A20"/>
<path d="M7.17284 25.0129C6.92572 25.042 6.67401 25.0017 6.45733 24.8985C6.24065 24.7953 6.07131 24.635 5.97596 24.4428C5.88061 24.2506 5.86467 24.0374 5.93063 23.8368C5.9966 23.6362 6.14073 23.4596 6.34034 23.3348L7.46534 22.3973C7.57097 22.3031 7.69783 22.2272 7.83867 22.1739C7.97952 22.1205 8.13158 22.0909 8.28619 22.0865C8.4408 22.0821 8.59492 22.1032 8.73976 22.1485C8.8846 22.1938 9.01732 22.2624 9.13034 22.3504C9.24336 22.4384 9.33446 22.5442 9.39846 22.6615C9.46245 22.7789 9.49807 22.9056 9.5033 23.0345C9.50852 23.1633 9.48324 23.2917 9.4289 23.4124C9.37456 23.5331 9.29222 23.6437 9.18659 23.7379L8.06159 24.6754C7.95341 24.7837 7.81733 24.8703 7.66346 24.9287C7.50959 24.9872 7.3419 25.0159 7.17284 25.0129Z" fill="#181A20"/>
</g>
<defs>
<clipPath id="clip0_6554_2615">
<rect width="35.9999" height="30" fill="white" transform="translate(0.0078125 0.203125)"/>
</clipPath>
</defs>
</svg>
