<svg width="20" height="19" viewBox="0 0 20 19" fill="none" xmlns="http://www.w3.org/2000/svg">
<path d="M9.99976 18.9994C9.57941 19 9.16425 18.9066 8.78467 18.726C8.40509 18.5454 8.07071 18.2822 7.80601 17.9556L1.57476 10.3119C1.04629 9.76936 0.636275 9.12297 0.370692 8.41369C0.105109 7.7044 -0.010251 6.94768 0.0319231 6.19148C0.0740971 5.43528 0.272885 4.69608 0.615691 4.02073C0.958497 3.34537 1.43785 2.74859 2.02337 2.26818C2.60888 1.78778 3.28781 1.43423 4.01711 1.22995C4.74642 1.02566 5.51021 0.975089 6.26008 1.08144C7.00995 1.18778 7.72956 1.44873 8.37331 1.84774C9.01706 2.24675 9.57091 2.77513 9.99976 3.39939C10.195 3.11256 10.4168 2.84471 10.6623 2.59939C11.685 1.57002 13.0748 0.989092 14.5258 0.984404C15.2443 0.982082 15.9562 1.1213 16.6209 1.39411C17.2856 1.66692 17.8901 2.06798 18.3998 2.57439C18.9095 3.0808 19.3144 3.68264 19.5915 4.34556C19.8686 5.00847 20.0124 5.71947 20.0148 6.43796C20.0171 7.15646 19.8779 7.86837 19.605 8.53306C19.3322 9.19775 18.9312 9.8022 18.4248 10.3119L12.1748 17.9556C11.9124 18.2801 11.581 18.542 11.2049 18.7226C10.8287 18.9031 10.417 18.9977 9.99976 18.9994V18.9994ZM5.46851 2.33064C4.65422 2.33456 3.85918 2.57867 3.183 3.03239C2.50682 3.48612 1.97955 4.12928 1.66726 4.88132C1.35497 5.63336 1.27153 6.46083 1.4274 7.26008C1.58327 8.05933 1.97152 8.79481 2.54351 9.37439L2.58726 9.42439L8.83726 17.0931C8.98214 17.2579 9.16048 17.3899 9.3604 17.4804C9.56032 17.5708 9.77722 17.6176 9.99664 17.6176C10.2161 17.6176 10.433 17.5708 10.6329 17.4804C10.8328 17.3899 11.0111 17.2579 11.156 17.0931L17.406 9.42439L17.4498 9.37439C17.892 8.93562 18.2295 8.40263 18.437 7.8152C18.6445 7.22777 18.7167 6.60107 18.6481 5.98186C18.5795 5.36264 18.372 4.76691 18.0411 4.23909C17.7101 3.71128 17.2642 3.26503 16.7367 2.93362C16.2091 2.60222 15.6136 2.39423 14.9944 2.32516C14.3752 2.2561 13.7485 2.32775 13.1609 2.53476C12.5733 2.74178 12.04 3.07881 11.6009 3.52072C11.1618 3.96263 10.8281 4.498 10.6248 5.08689C10.5765 5.21359 10.4909 5.32264 10.3793 5.39959C10.2677 5.47653 10.1353 5.51773 9.99976 5.51773C9.86419 5.51773 9.73183 5.47653 9.62021 5.39959C9.50859 5.32264 9.42299 5.21359 9.37476 5.08689C9.0889 4.27974 8.55966 3.58115 7.86001 3.08748C7.16037 2.59381 6.32479 2.32938 5.46851 2.33064V2.33064Z" fill="white"/>
</svg>
