<svg width="16" height="16" viewBox="0 0 16 16" fill="none" xmlns="http://www.w3.org/2000/svg">
<g id="like 1" clipPath="url(#clip0_6638_415)">
<path id="Vector" d="M7.88436 15.1798C7.55742 15.1803 7.23451 15.1082 6.93929 14.9687C6.64406 14.8293 6.38398 14.6262 6.17811 14.3741L1.33158 8.47364C0.920552 8.05484 0.601651 7.55588 0.395086 7.00836C0.188522 6.46084 0.0987979 5.8767 0.1316 5.29297C0.164402 4.70923 0.319015 4.13862 0.585641 3.61729C0.852268 3.09597 1.22509 2.63529 1.6805 2.26445C2.1359 1.89361 2.66395 1.6207 3.23119 1.463C3.79843 1.30531 4.39248 1.26627 4.97572 1.34836C5.55895 1.43045 6.11865 1.63189 6.61934 1.9399C7.12003 2.24791 7.5508 2.65578 7.88436 3.13767C8.03624 2.91625 8.20876 2.70949 8.39963 2.52012C9.1951 1.72552 10.276 1.27708 11.4046 1.27346C11.9635 1.27167 12.5172 1.37914 13.0341 1.58973C13.5511 1.80032 14.0213 2.10991 14.4177 2.50082C14.8141 2.89174 15.1291 3.35632 15.3446 3.86804C15.5601 4.37976 15.672 4.92861 15.6738 5.48323C15.6756 6.03786 15.5673 6.58741 15.3551 7.10051C15.1429 7.6136 14.831 8.08019 14.4371 8.47364L9.57602 14.3741C9.37192 14.6245 9.11424 14.8267 8.82165 14.9661C8.52906 15.1055 8.20889 15.1785 7.88436 15.1798V15.1798ZM4.36005 2.31266C3.72671 2.31568 3.10835 2.50412 2.58243 2.85437C2.05652 3.20461 1.64642 3.70109 1.40353 4.28161C1.16063 4.86214 1.09574 5.50089 1.21697 6.11785C1.3382 6.73481 1.64017 7.30256 2.08506 7.74996L2.11908 7.78855L6.98019 13.7083C7.09287 13.8355 7.23159 13.9374 7.38708 14.0072C7.54257 14.077 7.71127 14.1131 7.88193 14.1131C8.05258 14.1131 8.22128 14.077 8.37677 14.0072C8.53226 13.9374 8.67098 13.8355 8.78366 13.7083L13.6448 7.78855L13.6788 7.74996C14.0228 7.41125 14.2853 6.99982 14.4466 6.54637C14.608 6.09291 14.6642 5.60914 14.6108 5.13115C14.5575 4.65316 14.3961 4.19329 14.1387 3.78586C13.8813 3.37842 13.5345 3.03394 13.1242 2.77812C12.7139 2.5223 12.2506 2.36175 11.7691 2.30843C11.2875 2.25512 10.8 2.31043 10.343 2.47023C9.88599 2.63003 9.47123 2.8902 9.12968 3.23132C8.78812 3.57245 8.5286 3.98572 8.37047 4.4403C8.33295 4.5381 8.26638 4.62228 8.17956 4.68168C8.09275 4.74107 7.9898 4.77288 7.88436 4.77288C7.77891 4.77288 7.67596 4.74107 7.58915 4.68168C7.50233 4.62228 7.43576 4.5381 7.39825 4.4403C7.17591 3.81723 6.76428 3.27797 6.22011 2.89689C5.67594 2.51581 5.02605 2.31169 4.36005 2.31266V2.31266Z" fill="#181A20"/>
</g>
<defs>
<clipPath id="clip0_6638_415">
<rect width="15.5555" height="15.4386" fill="white" transform="translate(0.109375 0.515625)"/>
</clipPath>
</defs>
</svg>
