<svg width="21" height="22" viewBox="0 0 21 22" fill="none" xmlns="http://www.w3.org/2000/svg">
<path d="M19.7003 14.6644C19.4963 14.6644 19.3007 14.7419 19.1565 14.8798C19.0123 15.0178 18.9312 15.2049 18.9312 15.4C18.9293 16.7615 18.3631 18.0667 17.3566 19.0294C16.3501 19.9921 14.9856 20.5338 13.5622 20.5356H7.43125C6.00912 20.532 4.64642 19.9895 3.64149 19.027C2.63656 18.0645 2.07127 16.7603 2.06937 15.4V6.6C2.07128 5.23851 2.63755 3.9333 3.64404 2.97057C4.65052 2.00785 6.01506 1.46619 7.43844 1.46438H13.5694C14.9915 1.46801 16.3542 2.01047 17.3591 2.973C18.3641 3.93552 18.9294 5.23969 18.9312 6.6C18.9209 6.70211 18.933 6.80517 18.9667 6.90255C19.0005 6.99993 19.0552 7.08948 19.1273 7.16545C19.1993 7.24141 19.2872 7.30212 19.3853 7.34366C19.4834 7.3852 19.5895 7.40666 19.6967 7.40666C19.804 7.40666 19.91 7.3852 20.0081 7.34366C20.1062 7.30212 20.1941 7.24141 20.2662 7.16545C20.3383 7.08948 20.3929 6.99993 20.4267 6.90255C20.4605 6.80517 20.4725 6.70211 20.4622 6.6C20.4603 4.85132 19.7337 3.17468 18.4417 1.93753C17.1496 0.700381 15.3975 0.00363835 13.5694 0L7.43125 0C5.60184 0.00181994 3.8479 0.69776 2.55431 1.93511C1.26073 3.17245 0.533153 4.85013 0.53125 6.6V15.4C0.533153 17.1499 1.26073 18.8275 2.55431 20.0649C3.8479 21.3022 5.60184 21.9982 7.43125 22H13.5622C15.3916 21.9982 17.1455 21.3022 18.4391 20.0649C19.7327 18.8275 20.4603 17.1499 20.4622 15.4C20.4622 15.2061 20.3822 15.02 20.2395 14.8823C20.0968 14.7445 19.903 14.6662 19.7003 14.6644V14.6644Z" fill="white"/>
<path d="M19.6966 10.2617H10.8129L12.5738 8.57735C12.6804 8.43462 12.7302 8.26014 12.7142 8.08539C12.6981 7.91064 12.6173 7.74712 12.4864 7.62433C12.3554 7.50154 12.1829 7.42756 11.9999 7.41574C11.8169 7.40391 11.6355 7.45502 11.4885 7.55985L8.41941 10.4955C8.27589 10.6333 8.19531 10.82 8.19531 11.0145C8.19531 11.2091 8.27589 11.3957 8.41941 11.5336L11.4885 14.4349C11.6353 14.5581 11.8256 14.6233 12.0208 14.6172C12.216 14.6111 12.4014 14.5342 12.5395 14.4021C12.6776 14.27 12.758 14.0926 12.7644 13.9059C12.7708 13.7192 12.7026 13.5371 12.5738 13.3967L10.8129 11.7124H19.6966C19.8868 11.6947 20.0634 11.6099 20.1918 11.4746C20.3202 11.3392 20.3914 11.163 20.3914 10.9802C20.3914 10.7974 20.3202 10.6211 20.1918 10.4857C20.0634 10.3504 19.8868 10.2656 19.6966 10.248V10.2617Z" fill="white"/>
</svg>
