<svg width="23" height="22" viewBox="0 0 23 22" fill="none" xmlns="http://www.w3.org/2000/svg">
<g clipPath="url(#clip0_6509_8490)">
<path d="M20.7003 14.6644C20.4963 14.6644 20.3007 14.7419 20.1565 14.8798C20.0123 15.0178 19.9312 15.2049 19.9312 15.4C19.9293 16.7615 19.3631 18.0667 18.3566 19.0294C17.3501 19.9921 15.9856 20.5338 14.5622 20.5356H8.43125C7.00912 20.532 5.64642 19.9895 4.64149 19.027C3.63656 18.0645 3.07127 16.7603 3.06937 15.4V6.6C3.07128 5.23851 3.63755 3.9333 4.64404 2.97057C5.65052 2.00785 7.01506 1.46619 8.43844 1.46438H14.5694C15.9915 1.46801 17.3542 2.01047 18.3591 2.973C19.3641 3.93552 19.9294 5.2397 19.9312 6.6C19.9209 6.70211 19.933 6.80517 19.9667 6.90255C20.0005 6.99993 20.0552 7.08948 20.1273 7.16545C20.1993 7.24141 20.2873 7.30212 20.3853 7.34366C20.4834 7.3852 20.5895 7.40666 20.6967 7.40666C20.804 7.40666 20.91 7.3852 21.0081 7.34366C21.1062 7.30212 21.1941 7.24141 21.2662 7.16545C21.3383 7.08948 21.3929 6.99993 21.4267 6.90255C21.4605 6.80517 21.4725 6.70211 21.4622 6.6C21.4603 4.85132 20.7337 3.17468 19.4417 1.93753C18.1496 0.700381 16.3975 0.00363835 14.5694 0L8.43125 0C6.60184 0.00181994 4.8479 0.69776 3.55431 1.93511C2.26073 3.17245 1.53315 4.85013 1.53125 6.6V15.4C1.53315 17.1499 2.26073 18.8275 3.55431 20.0649C4.8479 21.3022 6.60184 21.9982 8.43125 22H14.5622C16.3916 21.9982 18.1455 21.3022 19.4391 20.0649C20.7327 18.8275 21.4603 17.1499 21.4622 15.4C21.4622 15.2061 21.3822 15.02 21.2395 14.8823C21.0968 14.7445 20.903 14.6662 20.7003 14.6644Z" fill="#181A20"/>
<path d="M20.6966 10.2617H11.8129L13.5738 8.57735C13.6804 8.43462 13.7302 8.26014 13.7142 8.08539C13.6981 7.91064 13.6173 7.74712 13.4864 7.62433C13.3554 7.50154 13.1829 7.42756 12.9999 7.41574C12.8169 7.40391 12.6355 7.45502 12.4885 7.55985L9.41941 10.4955C9.27589 10.6333 9.19531 10.82 9.19531 11.0145C9.19531 11.2091 9.27589 11.3957 9.41941 11.5336L12.4885 14.4349C12.6353 14.5581 12.8256 14.6233 13.0208 14.6172C13.216 14.6111 13.4014 14.5342 13.5395 14.4021C13.6776 14.27 13.758 14.0926 13.7644 13.9059C13.7708 13.7192 13.7026 13.5371 13.5738 13.3967L11.8129 11.7124H20.6966C20.8868 11.6947 21.0634 11.6099 21.1918 11.4746C21.3202 11.3392 21.3914 11.163 21.3914 10.9802C21.3914 10.7974 21.3202 10.6211 21.1918 10.4857C21.0634 10.3504 20.8868 10.2656 20.6966 10.248V10.2617Z" fill="#181A20"/>
</g>
<defs>
<clipPath id="clip0_6509_8490">
<rect width="23" height="22" fill="white"/>
</clipPath>
</defs>
</svg>
