<svg width="17" height="16" viewBox="0 0 17 16" fill="none" xmlns="http://www.w3.org/2000/svg">
<g id="new-tab 1" clipPath="url(#clip0_6638_410)">
<path id="Vector" d="M15.171 5.43622C15.0431 5.30833 14.891 5.20686 14.7234 5.13767C14.5558 5.06848 14.376 5.03294 14.1945 5.0331H11.8914V2.74732C11.8914 2.38336 11.7457 2.0343 11.4864 1.77694C11.2271 1.51958 10.8754 1.375 10.5087 1.375H3.13272C2.766 1.375 2.4143 1.51958 2.15499 1.77694C1.89568 2.0343 1.75 2.38336 1.75 2.74732V10.0678C1.75157 10.4313 1.89752 10.7796 2.15617 11.037C2.28405 11.1649 2.43619 11.2664 2.6038 11.3356C2.77141 11.4047 2.95118 11.4403 3.13272 11.4401H5.43581V13.7259C5.43581 14.0899 5.58149 14.4389 5.8408 14.6963C6.1001 14.9536 6.4518 15.0982 6.81852 15.0982H14.1945C14.5607 15.0967 14.9116 14.9518 15.171 14.6951C15.2999 14.5682 15.4021 14.4172 15.4718 14.2508C15.5415 14.0845 15.5773 13.9061 15.5772 13.7259V6.40971C15.5779 6.22882 15.5424 6.04959 15.4726 5.88246C15.4029 5.71533 15.3004 5.56364 15.171 5.43622V5.43622ZM3.13272 10.5267C3.07163 10.5251 3.01149 10.5113 2.95583 10.4863C2.90017 10.4612 2.85013 10.4254 2.80864 10.3809C2.72356 10.295 2.67551 10.1796 2.67469 10.0592V2.74732C2.67551 2.6269 2.72356 2.51154 2.80864 2.42568C2.85122 2.38348 2.90175 2.35002 2.95735 2.32721C3.01296 2.3044 3.07255 2.29269 3.13272 2.29274H10.5087C10.6305 2.29274 10.7475 2.34049 10.8341 2.42562C10.9206 2.51075 10.9699 2.62637 10.971 2.74732V5.0331H6.82284C6.45613 5.0331 6.10443 5.17768 5.84512 5.43504C5.58581 5.6924 5.44013 6.04146 5.44013 6.40542V10.5224L3.13272 10.5267ZM14.6568 13.7259C14.6569 13.7856 14.6451 13.8448 14.6221 13.8999C14.5991 13.9551 14.5654 14.0053 14.5229 14.0475C14.4366 14.1324 14.3202 14.1801 14.1988 14.1805H6.82284C6.76213 14.1805 6.70201 14.1686 6.64591 14.1456C6.58982 14.1225 6.53885 14.0887 6.49592 14.0461C6.45298 14.0035 6.41893 13.9529 6.39569 13.8972C6.37246 13.8415 6.3605 13.7819 6.3605 13.7216V6.40971C6.36473 6.28957 6.41587 6.17577 6.50309 6.09236C6.54566 6.05016 6.5962 6.0167 6.6518 5.99389C6.70741 5.97108 6.767 5.95936 6.82717 5.95942H14.1945C14.3171 5.95942 14.4347 6.00776 14.5214 6.09382C14.6081 6.17987 14.6568 6.29659 14.6568 6.41829V13.7259Z" fill="#181A20"/>
<path id="Vector_2" d="M10.9672 8.23438H10.0468V9.6067H8.66406V10.5202H10.0468V11.8968H10.9672V10.5202H12.3542V9.6067H10.9672V8.23438Z" fill="#181A20"/>
</g>
<defs>
<clipPath id="clip0_6638_410">
<rect width="15.5556" height="15.4386" fill="white" transform="translate(0.882812 0.515625)"/>
</clipPath>
</defs>
</svg>
