<svg width="16" height="17" viewBox="0 0 16 17" fill="none" xmlns="http://www.w3.org/2000/svg">
<g clipPath="url(#clip0_6620_2669)">
<path d="M8 0.609375C6.41775 0.609375 4.87103 1.07347 3.55544 1.94296C2.23985 2.81246 1.21447 4.04831 0.608967 5.49423C0.00346625 6.94015 -0.15496 8.5312 0.153721 10.0662C0.462403 11.6012 1.22433 13.0111 2.34315 14.1178C3.46197 15.2244 4.88743 15.9781 6.43928 16.2834C7.99113 16.5887 9.59966 16.432 11.0615 15.8331C12.5233 15.2342 13.7727 14.22 14.6518 12.9187C15.5308 11.6174 16 10.0875 16 8.52242C16 6.42375 15.1571 4.41104 13.6569 2.92705C12.1566 1.44307 10.1217 0.609375 8 0.609375V0.609375ZM8 15.382C6.62839 15.382 5.28758 14.9797 4.14712 14.226C3.00667 13.4722 2.11779 12.4009 1.5929 11.1475C1.06801 9.89405 0.930669 8.51481 1.19826 7.18417C1.46585 5.85354 2.12634 4.63127 3.09622 3.67194C4.0661 2.7126 5.30179 2.05928 6.64705 1.7946C7.99231 1.52992 9.38671 1.66577 10.6539 2.18496C11.9211 2.70414 13.0042 3.58336 13.7662 4.71142C14.5283 5.83948 14.935 7.16571 14.935 8.52242C14.9337 10.3413 14.2026 12.0853 12.9023 13.3715C11.602 14.6576 9.83887 15.3807 8 15.382Z" fill="black"/>
<path d="M9.60166 6.14873H6.60166L6.75666 5.99541C6.84627 5.89441 6.89368 5.76346 6.88925 5.62914C6.88483 5.49483 6.82891 5.36721 6.73284 5.27218C6.63677 5.17716 6.50775 5.12184 6.37196 5.11747C6.23617 5.11309 6.10378 5.15998 6.00166 5.24862L4.95666 6.30205C4.85682 6.40122 4.80076 6.53548 4.80076 6.67544C4.80076 6.8154 4.85682 6.94966 4.95666 7.04884L6.00166 8.10226C6.10378 8.1909 6.23617 8.23779 6.37196 8.23342C6.50775 8.22904 6.63677 8.17373 6.73284 8.0787C6.82891 7.98368 6.88483 7.85606 6.88925 7.72174C6.89368 7.58743 6.84627 7.45648 6.75666 7.35547L6.60166 7.20215H9.60166C10.026 7.20215 10.433 7.36889 10.733 7.66569C11.0331 7.96249 11.2017 8.36503 11.2017 8.78476V9.31395C11.2017 9.73368 11.0331 10.1362 10.733 10.433C10.433 10.7298 10.026 10.8966 9.60166 10.8966H5.33666C5.2624 10.8894 5.18744 10.8977 5.11662 10.921C5.0458 10.9442 4.98067 10.9818 4.92543 11.0314C4.87018 11.081 4.82603 11.1415 4.79582 11.209C4.76561 11.2765 4.75 11.3495 4.75 11.4233C4.75 11.4971 4.76561 11.5701 4.79582 11.6375C4.82603 11.705 4.87018 11.7655 4.92543 11.8151C4.98067 11.8647 5.0458 11.9023 5.11662 11.9256C5.18744 11.9488 5.2624 11.9571 5.33666 11.95H9.60166C9.95163 11.95 10.2982 11.8818 10.6215 11.7493C10.9448 11.6169 11.2386 11.4227 11.4861 11.1779C11.7336 10.9331 11.9299 10.6425 12.0638 10.3227C12.1977 10.0029 12.2667 9.66012 12.2667 9.31395V8.78476C12.2667 8.08564 11.9859 7.41516 11.4861 6.92081C10.9863 6.42645 10.3085 6.14873 9.60166 6.14873Z" fill="black"/>
</g>
<defs>
<clipPath id="clip0_6620_2669">
<rect width="16" height="15.8261" fill="white" transform="translate(0 0.609375)"/>
</clipPath>
</defs>
</svg>
