<svg width="22" height="22" viewBox="0 0 22 22" fill="none" xmlns="http://www.w3.org/2000/svg">
<path d="M19.6312 2.36876C19.199 1.93376 18.6848 1.5888 18.1183 1.35386C17.5519 1.11891 16.9445 0.998642 16.3312 1.00001H5.66875C5.05541 0.999189 4.44794 1.11939 3.88113 1.35372C3.31432 1.58806 2.79931 1.93192 2.36561 2.36562C1.93192 2.79932 1.58805 3.31432 1.35372 3.88113C1.11938 4.44794 0.999181 5.05542 1 5.66876V19C1 19.4198 1.13208 19.8289 1.37752 20.1694C1.62296 20.51 1.96932 20.7646 2.36755 20.8974C2.76577 21.0301 3.19567 21.0342 3.59634 20.909C3.99701 20.7839 4.34814 20.5358 4.6 20.2L5.375 19.125C5.56196 18.8773 5.80367 18.6762 6.08123 18.5375C6.35879 18.3987 6.66468 18.326 6.975 18.325H16.3312C17.5668 18.3234 18.7515 17.8327 19.6263 16.9602C20.5012 16.0877 20.995 14.9043 21 13.6688V5.66876C21.0014 5.05553 20.8811 4.44811 20.6461 3.88166C20.4112 3.31522 20.0662 2.801 19.6312 2.36876ZM19.6625 13.6688C19.6608 14.5517 19.3093 15.3981 18.685 16.0225C18.0606 16.6469 17.2142 16.9984 16.3312 17H7C6.48257 17.0007 5.97233 17.1213 5.50931 17.3523C5.04629 17.5832 4.64306 17.9183 4.33125 18.3313L3.53125 19.4C3.44664 19.5107 3.32959 19.5922 3.19643 19.6331C3.06327 19.674 2.92065 19.6723 2.7885 19.6283C2.65634 19.5842 2.54124 19.5 2.45926 19.3874C2.37729 19.2747 2.33254 19.1393 2.33125 19V5.66876C2.33043 5.23024 2.41619 4.79588 2.58363 4.39058C2.75106 3.98528 2.99687 3.61703 3.30695 3.30696C3.61703 2.99688 3.98528 2.75107 4.39057 2.58364C4.79587 2.4162 5.23023 2.33044 5.66875 2.33126H16.3312C17.2147 2.33126 18.0621 2.68223 18.6868 3.30696C19.3115 3.93169 19.6625 4.77901 19.6625 5.66251V13.6688Z" fill="#181A20"/>
<path fill-rule="evenodd" clip-rule="evenodd" d="M7.02351 5.13281L7.52462 5.75003L8.26406 6.03115L7.83017 6.69726L7.79351 7.4917L7.02351 7.28392L6.25962 7.4917L6.22295 6.69726L5.78906 6.03115L6.52851 5.75003L7.02351 5.13281Z" fill="#181A20"/>
<path fill-rule="evenodd" clip-rule="evenodd" d="M10.2874 5.13281L10.7824 5.75003L11.528 6.03115L11.0941 6.69726L11.0513 7.4917L10.2874 7.28392L9.51743 7.4917L9.48076 6.69726L9.04688 6.03115L9.78632 5.75003L10.2874 5.13281Z" fill="#181A20"/>
<path fill-rule="evenodd" clip-rule="evenodd" d="M13.5452 5.13281L14.0464 5.75003L14.7858 6.03115L14.3519 6.69726L14.3152 7.4917L13.5452 7.28392L12.7814 7.4917L12.7386 6.69726L12.3047 6.03115L13.0502 5.75003L13.5452 5.13281Z" fill="#181A20"/>
<path d="M5.78906 12.9531H11.0018V14.2548H5.78906V12.9531Z" fill="#181A20"/>
<path d="M5.78906 9.69531H16.8685V10.997H5.78906V9.69531Z" fill="#181A20"/>
</svg>
