<svg width="20" height="20" viewBox="0 0 20 20" fill="none" xmlns="http://www.w3.org/2000/svg">
<path d="M18.6312 1.36876C18.199 0.933758 17.6848 0.588801 17.1183 0.353856C16.5519 0.11891 15.9445 -0.0013579 15.3312 1.15649e-05H4.66875C4.05541 -0.000811159 3.44794 0.119388 2.88113 0.353723C2.31432 0.588058 1.79931 0.931924 1.36561 1.36562C0.931916 1.79932 0.588051 2.31432 0.353716 2.88113C0.119381 3.44794 -0.000818529 4.05542 4.19502e-06 4.66876V18C4.19502e-06 18.4198 0.132079 18.8289 0.37752 19.1694C0.62296 19.51 0.969324 19.7646 1.36755 19.8974C1.76577 20.0301 2.19567 20.0342 2.59634 19.909C2.99701 19.7839 3.34814 19.5358 3.6 19.2L4.375 18.125C4.56196 17.8773 4.80367 17.6762 5.08123 17.5375C5.35879 17.3987 5.66468 17.326 5.975 17.325H15.3312C16.5668 17.3234 17.7515 16.8327 18.6263 15.9602C19.5012 15.0877 19.995 13.9043 20 12.6688V4.66876C20.0014 4.05553 19.8811 3.44811 19.6461 2.88166C19.4112 2.31522 19.0662 1.801 18.6312 1.36876V1.36876ZM18.6625 12.6688C18.6608 13.5517 18.3093 14.3981 17.685 15.0225C17.0606 15.6469 16.2142 15.9984 15.3312 16H6C5.48257 16.0007 4.97233 16.1213 4.50931 16.3523C4.04629 16.5832 3.64306 16.9183 3.33125 17.3313L2.53125 18.4C2.44664 18.5107 2.32959 18.5922 2.19643 18.6331C2.06327 18.674 1.92065 18.6723 1.7885 18.6283C1.65634 18.5842 1.54124 18.5 1.45926 18.3874C1.37729 18.2747 1.33254 18.1393 1.33125 18V4.66876C1.33043 4.23024 1.41619 3.79588 1.58363 3.39058C1.75106 2.98528 1.99687 2.61703 2.30695 2.30696C2.61703 1.99688 2.98528 1.75107 3.39057 1.58364C3.79587 1.4162 4.23023 1.33044 4.66875 1.33126H15.3312C16.2147 1.33126 17.0621 1.68223 17.6868 2.30696C18.3115 2.93169 18.6625 3.77901 18.6625 4.66251V12.6688Z" fill="white"/>
<path fill-rule="evenodd" clip-rule="evenodd" d="M6.02351 4.13281L6.52462 4.75003L7.26406 5.03115L6.83017 5.69726L6.79351 6.4917L6.02351 6.28392L5.25962 6.4917L5.22295 5.69726L4.78906 5.03115L5.52851 4.75003L6.02351 4.13281Z" fill="white"/>
<path fill-rule="evenodd" clip-rule="evenodd" d="M9.28743 4.13281L9.78243 4.75003L10.528 5.03115L10.0941 5.69726L10.0513 6.4917L9.28743 6.28392L8.51743 6.4917L8.48076 5.69726L8.04688 5.03115L8.78632 4.75003L9.28743 4.13281Z" fill="white"/>
<path fill-rule="evenodd" clip-rule="evenodd" d="M12.5452 4.13281L13.0464 4.75003L13.7858 5.03115L13.3519 5.69726L13.3152 6.4917L12.5452 6.28392L11.7814 6.4917L11.7386 5.69726L11.3047 5.03115L12.0502 4.75003L12.5452 4.13281Z" fill="white"/>
<path d="M4.78906 11.9531H10.0018V13.2548H4.78906V11.9531Z" fill="white"/>
<path d="M4.78906 8.69531H15.8685V9.99698H4.78906V8.69531Z" fill="white"/>
</svg>
