<svg width="16" height="17" viewBox="0 0 16 17" fill="none" xmlns="http://www.w3.org/2000/svg">
<g clipPath="url(#clip0_6824_2404)">
<path d="M15.5556 0.09375H5.7778C5.53214 0.09375 5.33334 0.292542 5.33334 0.538208C5.33334 0.783875 5.53214 0.982667 5.7778 0.982667H14.4827L0.130219 15.3351C-0.0434062 15.5087 -0.0434062 15.79 0.130219 15.9635C0.21701 16.0503 0.33076 16.0938 0.444469 16.0938C0.558177 16.0938 0.671885 16.0503 0.758719 15.9635L15.1111 1.61112V10.316C15.1111 10.5617 15.3099 10.7605 15.5556 10.7605C15.8013 10.7605 16.0001 10.5617 16.0001 10.316V0.538208C16 0.292542 15.8012 0.09375 15.5556 0.09375Z" fill="#181A20"/>
</g>
<defs>
<clipPath id="clip0_6824_2404">
<rect width="16" height="16" fill="white" transform="translate(0 0.09375)"/>
</clipPath>
</defs>
</svg>
