<svg width="20" height="20" viewBox="0 0 20 20" fill="none" xmlns="http://www.w3.org/2000/svg">
<path d="M20 19.053L16.5484 15.6015C18.1482 13.7564 18.9695 11.3625 18.8393 8.92395C18.7091 6.4854 17.6377 4.19253 15.8507 2.52823C14.0636 0.863925 11.7004 -0.0419124 9.25881 0.00149071C6.81718 0.0448939 4.48768 1.03415 2.76092 2.76092C1.03415 4.48768 0.0448939 6.81718 0.00149071 9.25881C-0.0419124 11.7004 0.863925 14.0636 2.52823 15.8507C4.19253 17.6377 6.4854 18.7091 8.92395 18.8393C11.3625 18.9695 13.7564 18.1482 15.6015 16.5484L19.053 20L20 19.053ZM1.40274 9.45844C1.40151 7.8649 1.87292 6.30681 2.75734 4.98123C3.64176 3.65566 4.89946 2.62217 6.37133 2.0115C7.84321 1.40083 9.46314 1.24041 11.0262 1.55054C12.5893 1.86066 14.0252 2.6274 15.1525 3.75376C16.2797 4.88013 17.0476 6.3155 17.3589 7.87832C17.6702 9.44115 17.5111 11.0612 16.9015 12.5335C16.292 14.0059 15.2595 15.2644 13.9346 16.1498C12.6097 17.0353 11.052 17.5079 9.45844 17.5079C7.32352 17.5063 5.27642 16.6579 3.76622 15.1488C2.25602 13.6398 1.40604 11.5934 1.40274 9.45844V9.45844Z" fill="black"/>
<path d="M5.49219 7.46094H13.3939V8.77483H5.49219V7.46094Z" fill="black"/>
<path d="M5.49219 10.1016H9.43997V11.4155H5.49219V10.1016Z" fill="black"/>
</svg>
