<svg width="21" height="22" viewBox="0 0 21 22" fill="none" xmlns="http://www.w3.org/2000/svg">
<g clipPath="url(#clip0_6526_4020)">
<path d="M20.4663 20.2918L15.8303 15.606C17.3166 13.8531 18.0735 11.5864 17.9419 9.28155C17.8104 6.97675 16.8007 4.81304 15.1247 3.24449C13.4488 1.67594 11.2368 0.824493 8.95315 0.868837C6.66945 0.91318 4.49152 1.84986 2.87641 3.48232C1.2613 5.11477 0.334567 7.31608 0.290694 9.6243C0.246821 11.9325 1.08922 14.1682 2.64111 15.8621C4.19299 17.5561 6.33372 18.5766 8.61404 18.7096C10.8944 18.8425 13.137 18.0776 14.8713 16.5753L19.5073 21.261C19.637 21.3761 19.8052 21.4369 19.9776 21.4312C20.1501 21.4256 20.314 21.3538 20.436 21.2304C20.558 21.1071 20.629 20.9415 20.6347 20.7672C20.6403 20.5928 20.5801 20.4229 20.4663 20.2918ZM1.69372 9.82265C1.69372 8.33377 2.13046 6.87831 2.94872 5.64026C3.76698 4.40222 4.93003 3.43716 6.29084 2.8671C7.65166 2.29704 9.14914 2.14756 10.594 2.43756C12.0388 2.72756 13.3662 3.44402 14.4083 4.49637C15.4503 5.54871 16.1603 6.88971 16.4484 8.34982C16.7366 9.80994 16.59 11.3236 16.0271 12.6995C15.4643 14.0755 14.5105 15.2518 13.2863 16.0799C12.0621 16.908 10.6225 17.3507 9.14939 17.3519C7.17364 17.3503 5.2792 16.5566 3.88154 15.1452C2.48387 13.7337 1.69709 11.8196 1.69372 9.82265Z" fill="white"/>
</g>
<defs>
<clipPath id="clip0_6526_4020">
<rect width="20.3221" height="20.5403" fill="white" transform="translate(0.34375 0.921875)"/>
</clipPath>
</defs>
</svg>
