<svg width="22" height="22" viewBox="0 0 22 22" fill="none" xmlns="http://www.w3.org/2000/svg">
<path d="M21 20.053L17.5484 16.6015C19.1482 14.7564 19.9695 12.3625 19.8393 9.92395C19.7091 7.4854 18.6377 5.19253 16.8507 3.52823C15.0636 1.86393 12.7004 0.958088 10.2588 1.00149C7.81718 1.04489 5.48768 2.03415 3.76092 3.76092C2.03415 5.48768 1.04489 7.81718 1.00149 10.2588C0.958088 12.7004 1.86393 15.0636 3.52823 16.8507C5.19253 18.6377 7.4854 19.7091 9.92395 19.8393C12.3625 19.9695 14.7564 19.1482 16.6015 17.5484L20.053 21L21 20.053ZM2.40274 10.4584C2.40151 8.8649 2.87292 7.30681 3.75734 5.98123C4.64176 4.65566 5.89946 3.62217 7.37133 3.0115C8.84321 2.40083 10.4631 2.24041 12.0262 2.55054C13.5893 2.86066 15.0252 3.6274 16.1525 4.75376C17.2797 5.88013 18.0476 7.3155 18.3589 8.87832C18.6702 10.4411 18.5111 12.0612 17.9015 13.5335C17.292 15.0059 16.2595 16.2644 14.9346 17.1498C13.6097 18.0353 12.052 18.5079 10.4584 18.5079C8.32352 18.5063 6.27642 17.6579 4.76622 16.1488C3.25602 14.6398 2.40604 12.5934 2.40274 10.4584Z" fill="#181A20"/>
<path d="M6.49219 8.46094H14.3939V9.77483H6.49219V8.46094Z" fill="#181A20"/>
<path d="M6.49219 11.1016H10.44V12.4155H6.49219V11.1016Z" fill="#181A20"/>
</svg>
