<svg width="40" height="35" viewBox="0 0 40 35" fill="none" xmlns="http://www.w3.org/2000/svg">
<g clipPath="url(#clip0_6554_2696)">
<path d="M32.974 4.67985H7.08854C6.23383 4.67408 5.3863 4.82061 4.59481 5.11099C3.80331 5.40137 3.08349 5.82987 2.47685 6.37178C1.87021 6.91369 1.38873 7.55831 1.06017 8.26846C0.731617 8.97862 0.562476 9.74028 0.5625 10.5095L0.5625 24.4986C0.5625 26.0447 1.24494 27.5275 2.4597 28.6208C3.67445 29.7141 5.32201 30.3283 7.03993 30.3283H26.4844C26.6649 30.344 26.8471 30.3257 27.0192 30.2743C27.1913 30.2229 27.3496 30.1397 27.4839 30.03C27.6182 29.9203 27.7255 29.7866 27.7989 29.6373C27.8724 29.4881 27.9103 29.3267 27.9103 29.1634C27.9103 29.0002 27.8724 28.8388 27.7989 28.6896C27.7255 28.5403 27.6182 28.4066 27.4839 28.2969C27.3496 28.1872 27.1913 28.104 27.0192 28.0526C26.8471 28.0012 26.6649 27.9828 26.4844 27.9986H7.03993C6.00853 27.9986 5.01938 27.6299 4.29007 26.9735C3.56076 26.3171 3.15104 25.4269 3.15104 24.4986V18.6689H32.9497C33.2713 18.6408 33.5698 18.506 33.7869 18.2906C34.0041 18.0753 34.1244 17.7949 34.1244 17.5041C34.1244 17.2132 34.0041 16.9328 33.7869 16.7175C33.5698 16.5022 33.2713 16.3673 32.9497 16.3392H3.19965V10.5095C3.19965 9.58128 3.60937 8.69104 4.33868 8.03467C5.06799 7.37829 6.05714 7.00954 7.08854 7.00954H32.974C34.0054 7.00954 34.9945 7.37829 35.7238 8.03467C36.4531 8.69104 36.8629 9.58128 36.8629 10.5095V11.6799H7.06424C6.74261 11.7079 6.44412 11.8428 6.22694 12.0581C6.00976 12.2735 5.88945 12.5539 5.88945 12.8447C5.88945 13.1355 6.00976 13.4159 6.22694 13.6313C6.44412 13.8466 6.74261 13.9815 7.06424 14.0095H36.8629V17.4986C36.8941 17.7881 37.0439 18.0567 37.2832 18.2522C37.5224 18.4476 37.834 18.5559 38.1571 18.5559C38.4803 18.5559 38.7918 18.4476 39.0311 18.2522C39.2704 18.0567 39.4202 17.7881 39.4514 17.4986V10.5095C39.4514 8.96341 38.7689 7.48061 37.5542 6.38733C36.3394 5.29405 34.6919 4.67985 32.974 4.67985Z" fill="#181A20"/>
<path d="M38.5417 21.0573L34.6528 19.887C34.3884 19.8085 34.103 19.8085 33.8385 19.887L29.9497 21.0573C29.6941 21.1343 29.4714 21.281 29.3125 21.4769C29.1535 21.6729 29.0662 21.9084 29.0625 22.151V24.3385C29.0609 25.2974 29.323 26.2417 29.8256 27.0872C30.3282 27.9326 31.0555 28.6529 31.9427 29.1838L33.5226 30.1354C33.7353 30.2619 33.9846 30.3294 34.2396 30.3294C34.4946 30.3294 34.7439 30.2619 34.9566 30.1354L36.5365 29.1838C37.4321 28.6557 38.1677 27.9353 38.6769 27.0875C39.186 26.2398 39.4528 25.2913 39.4531 24.3276V22.1401C39.4452 21.8967 39.3532 21.6616 39.1898 21.4675C39.0265 21.2734 38.7999 21.13 38.5417 21.0573ZM36.8403 24.3385C36.8415 24.9139 36.6846 25.4807 36.3835 25.9883C36.0824 26.4959 35.6465 26.9286 35.1146 27.2479L34.2517 27.762L33.3767 27.237C32.8448 26.9177 32.4089 26.485 32.1078 25.9774C31.8067 25.4698 31.6498 24.903 31.651 24.3276V22.9713L34.2396 22.1948L36.8281 22.9713L36.8403 24.3385Z" fill="#181A20"/>
<path d="M7.06541 23.3438C6.74378 23.3718 6.4453 23.5067 6.22812 23.722C6.01094 23.9374 5.89062 24.2178 5.89062 24.5086C5.89062 24.7994 6.01094 25.0798 6.22812 25.2952C6.4453 25.5105 6.74378 25.6454 7.06541 25.6734H10.9665C11.2881 25.6454 11.5866 25.5105 11.8037 25.2952C12.0209 25.0798 12.1412 24.7994 12.1412 24.5086C12.1412 24.2178 12.0209 23.9374 11.8037 23.722C11.5866 23.5067 11.2881 23.3718 10.9665 23.3438H7.06541Z" fill="#181A20"/>
</g>
<defs>
<clipPath id="clip0_6554_2696">
<rect width="38.8889" height="35" fill="white" transform="translate(0.5625)"/>
</clipPath>
</defs>
</svg>
