<svg width="43" height="36" viewBox="0 0 43 36" fill="none" xmlns="http://www.w3.org/2000/svg">
<path d="M21.6043 33.2572C21.4102 33.2584 21.2185 33.2217 21.0443 33.1503L15.3626 30.7878C12.6709 29.6724 10.408 27.9509 8.83051 25.8183C7.25303 23.6858 6.42409 21.2276 6.43766 18.7225V6.91974C6.43761 6.64718 6.56592 6.38549 6.795 6.19095C7.02409 5.9964 7.33564 5.88456 7.66266 5.87947H11.711C13.367 5.87218 14.9861 5.47078 16.3776 4.72252L20.8926 2.31141C21.0931 2.20498 21.3258 2.14844 21.5635 2.14844C21.8011 2.14844 22.0339 2.20498 22.2343 2.31141L26.7493 4.72252C28.1408 5.47078 29.7599 5.87218 31.416 5.87947H35.4643C35.6331 5.87289 35.8017 5.89493 35.9599 5.94425C36.1182 5.99358 36.2628 6.06916 36.3849 6.16642C36.5071 6.26368 36.6043 6.3806 36.6707 6.51009C36.737 6.63958 36.7711 6.77894 36.7709 6.91974V18.7225C36.7802 21.228 35.9467 23.6856 34.3651 25.8164C32.7835 27.9473 30.517 29.6661 27.8226 30.7781L22.141 33.1406C21.9748 33.2125 21.7914 33.2524 21.6043 33.2572ZM8.91099 7.97947V18.7225C8.90388 20.8422 9.60944 22.9211 10.9477 24.7236C12.2859 26.5262 14.2034 27.9803 16.4826 28.9211L21.6043 31.06L26.726 28.9211C29.0052 27.9803 30.9227 26.5262 32.2609 24.7236C33.5992 22.9211 34.3047 20.8422 34.2976 18.7225V7.97947H31.4976C29.3496 7.97934 27.2472 7.46285 25.4426 6.49196L21.6043 4.41141L17.766 6.47252C15.9639 7.45027 13.8613 7.97354 11.711 7.97947H8.91099Z" fill="#181A20"/>
<path d="M21.6 18.4818C20.4924 18.4818 19.4097 18.2081 18.4888 17.6953C17.5679 17.1825 16.8501 16.4537 16.4263 15.601C16.0024 14.7482 15.8915 13.8099 16.1076 12.9047C16.3237 11.9994 16.857 11.1679 17.6402 10.5153C18.4234 9.86263 19.4212 9.41817 20.5075 9.23811C21.5938 9.05804 22.7197 9.15046 23.743 9.50367C24.7663 9.85688 25.6409 10.455 26.2562 11.2224C26.8715 11.9899 27.2 12.8921 27.2 13.8151C27.1969 15.052 26.6059 16.2375 25.5564 17.1121C24.5068 17.9867 23.0843 18.4792 21.6 18.4818ZM21.6 11.2193C20.9839 11.2193 20.3817 11.3715 19.8694 11.6567C19.3571 11.942 18.9579 12.3474 18.7221 12.8217C18.4863 13.2961 18.4247 13.818 18.5449 14.3215C18.665 14.8251 18.9617 15.2876 19.3974 15.6506C19.833 16.0137 20.388 16.2609 20.9923 16.3611C21.5965 16.4612 22.2229 16.4098 22.792 16.2133C23.3612 16.0169 23.8477 15.6842 24.19 15.2573C24.5323 14.8304 24.715 14.3285 24.715 13.8151C24.7119 13.1283 24.3824 12.4706 23.7985 11.9859C23.2147 11.5011 22.4241 11.229 21.6 11.229V11.2193Z" fill="#181A20"/>
<path d="M29.0661 24.1885H26.5811C26.5781 23.6401 26.3153 23.1149 25.8499 22.7271C25.3845 22.3393 24.7542 22.1203 24.0961 22.1177H19.1028C18.4437 22.1177 17.8117 22.3359 17.3456 22.7242C16.8796 23.1126 16.6178 23.6393 16.6178 24.1885H14.1328C14.1328 23.0901 14.6564 22.0367 15.5885 21.2599C16.5205 20.4832 17.7847 20.0469 19.1028 20.0469H24.0845C25.4037 20.0469 26.669 20.4829 27.6029 21.2593C28.5368 22.0358 29.063 23.0892 29.0661 24.1885Z" fill="#181A20"/>
</svg>
