<svg width="16" height="14" viewBox="0 0 16 14" fill="none" xmlns="http://www.w3.org/2000/svg">
<g id="share (1) 1" clipPath="url(#clip0_6766_3684)">
<path id="Vector" d="M13.0662 8.86952C12.602 8.87011 12.1446 8.9672 11.7317 9.1528C11.3188 9.33839 10.9621 9.60718 10.6912 9.93702L5.76622 7.87639C5.91187 7.40968 5.90146 6.91621 5.73622 6.45452L10.7662 4.13577C11.2171 4.63017 11.8627 4.95941 12.5765 5.05898C13.2903 5.15856 14.0209 5.02127 14.6251 4.67403C15.2293 4.3268 15.6635 3.79465 15.8426 3.18188C16.0217 2.5691 15.9328 1.91989 15.5934 1.36148C15.2539 0.80307 14.6883 0.375717 14.0075 0.163179C13.3267 -0.0493591 12.5797 -0.0317583 11.913 0.212532C11.2462 0.456822 10.7077 0.910189 10.4031 1.48378C10.0985 2.05736 10.0497 2.70982 10.2662 3.31327L5.23622 5.63202C4.85327 5.21244 4.32966 4.90845 3.73901 4.76279C3.14836 4.61713 2.52039 4.63712 1.9434 4.81996C1.36642 5.0028 0.869438 5.33929 0.522358 5.78211C0.175278 6.22492 -0.00444515 6.7518 0.00846209 7.28863C0.0213693 7.82546 0.226258 8.34525 0.594315 8.77491C0.962372 9.20456 1.47508 9.52246 2.06035 9.68391C2.64561 9.84535 3.27399 9.84222 3.85712 9.67495C4.44024 9.50768 4.94878 9.18469 5.31122 8.75139L10.2362 10.7945C10.0796 11.3121 10.1121 11.8597 10.3292 12.3603C10.5463 12.8609 10.937 13.2895 11.4467 13.5859C11.9563 13.8823 12.5592 14.0316 13.1708 14.013C13.7823 13.9943 14.3719 13.8085 14.8566 13.4818C15.3414 13.155 15.6971 12.7037 15.8738 12.191C16.0505 11.6784 16.0393 11.1302 15.8418 10.6234C15.6444 10.1166 15.2705 9.67663 14.7727 9.36522C14.2749 9.05381 13.6782 8.88658 13.0662 8.88702V8.86952ZM13.0662 0.937643C13.4351 0.937643 13.7957 1.03335 14.1024 1.21266C14.4091 1.39198 14.6481 1.64684 14.7893 1.94503C14.9304 2.24321 14.9673 2.57133 14.8954 2.88788C14.8234 3.20443 14.6458 3.49521 14.385 3.72343C14.1241 3.95165 13.7918 4.10707 13.4301 4.17004C13.0683 4.233 12.6933 4.20069 12.3525 4.07717C12.0117 3.95366 11.7205 3.7445 11.5155 3.47614C11.3106 3.20778 11.2012 2.89227 11.2012 2.56952C11.2012 2.13631 11.3975 1.72079 11.7472 1.41406C12.0968 1.10733 12.5711 0.934427 13.0662 0.933268V0.937643ZM2.93622 8.86952C2.56757 8.86952 2.20719 8.77392 1.9006 8.5948C1.59401 8.41568 1.35497 8.16107 1.21366 7.86314C1.07236 7.56521 1.03514 7.23732 1.10669 6.92089C1.17825 6.60445 1.35538 6.31367 1.6157 6.08528C1.87603 5.85688 2.20787 5.70112 2.56932 5.63766C2.93076 5.5742 3.30559 5.60589 3.64646 5.72873C3.98733 5.85158 4.27895 6.06006 4.48448 6.32784C4.69001 6.59563 4.80023 6.9107 4.80122 7.23327C4.80122 7.66647 4.60489 8.082 4.25527 8.38873C3.90566 8.69546 3.4313 8.86836 2.93622 8.86952ZM13.0712 13.0695C12.7024 13.0695 12.3418 12.9738 12.0351 12.7945C11.7284 12.6152 11.4893 12.3603 11.3482 12.0621C11.207 11.7639 11.1701 11.4358 11.2421 11.1193C11.314 10.8027 11.4916 10.512 11.7525 10.2837C12.0133 10.0555 12.3456 9.90009 12.7074 9.83712C13.0691 9.77416 13.4441 9.80647 13.7849 9.92999C14.1257 10.0535 14.417 10.2627 14.6219 10.531C14.8268 10.7994 14.9362 11.1149 14.9362 11.4376C14.9349 11.8708 14.7373 12.2859 14.3867 12.5918C14.0362 12.8977 13.5613 13.0695 13.0662 13.0695H13.0712Z" fill="black"/>
</g>
<defs>
<clipPath id="clip0_6766_3684">
<rect width="16" height="14" fill="white"/>
</clipPath>
</defs>
</svg>
