<svg width="14" height="16" viewBox="0 0 14 16" fill="none" xmlns="http://www.w3.org/2000/svg">
<g id="shower 1">
<path id="Vector" d="M10.2377 0.890625H6.82424C6.12071 0.892976 5.44658 1.24366 4.94944 1.8659C4.4523 2.48813 4.17265 3.33124 4.17171 4.21062H3.4108C2.90846 4.2118 2.42696 4.46176 2.07175 4.90575C1.71654 5.34975 1.51656 5.95161 1.51562 6.57951V8.00174C1.51563 8.12786 1.55571 8.24882 1.62706 8.338C1.69841 8.42719 1.79518 8.47729 1.89608 8.47729H7.2047C7.3056 8.47729 7.40238 8.42719 7.47373 8.338C7.54507 8.24882 7.58516 8.12786 7.58516 8.00174V6.57951C7.58422 5.95161 7.38425 5.34975 7.02904 4.90575C6.67383 4.46176 6.19233 4.2118 5.68998 4.21062H4.92907C4.93001 3.58272 5.12998 2.98086 5.48519 2.53687C5.8404 2.09287 6.3219 1.84291 6.82424 1.84174H10.2377C10.74 1.84291 11.2215 2.09287 11.5767 2.53687C11.932 2.98086 12.1319 3.58272 12.1329 4.21062V14.6373H12.8938V4.21062C12.8928 3.33047 12.6127 2.4867 12.1148 1.86433C11.6169 1.24196 10.9418 0.891801 10.2377 0.890625V0.890625ZM5.68643 5.15729C5.9882 5.15729 6.2776 5.30713 6.49099 5.57385C6.70437 5.84057 6.82424 6.20232 6.82424 6.57951V7.52618H2.27298V6.57951C2.27298 6.20232 2.39286 5.84057 2.60624 5.57385C2.81962 5.30713 3.10903 5.15729 3.4108 5.15729H5.68643Z" fill="#181A20"/>
<path id="Vector_2" d="M1.89844 9.89844H2.6558V13.2184H1.89844V9.89844Z" fill="#181A20"/>
<path id="Vector_3" d="M3.41406 9.89844H4.17142V11.3207H3.41406V9.89844Z" fill="#181A20"/>
<path id="Vector_4" d="M3.41406 12.7422H4.17142V14.64H3.41406V12.7422Z" fill="#181A20"/>
<path id="Vector_5" d="M4.92969 9.89844H5.68705V12.2673H4.92969V9.89844Z" fill="#181A20"/>
<path id="Vector_6" d="M4.92969 13.2109H5.68705V14.1576H4.92969V13.2109Z" fill="#181A20"/>
<path id="Vector_7" d="M6.44531 9.89844H7.20267V11.3207H6.44531V9.89844Z" fill="#181A20"/>
<path id="Vector_8" d="M6.44531 12.2656H7.20267V15.1101H6.44531V12.2656Z" fill="#181A20"/>
</g>
</svg>
