<svg width="26" height="23" viewBox="0 0 26 23" fill="none" xmlns="http://www.w3.org/2000/svg">
<g clipPath="url(#clip0_6526_4024)">
<path d="M11.1548 4.7046H24.4565C24.5727 4.71463 24.69 4.70293 24.8008 4.67024C24.9116 4.63756 25.0136 4.58461 25.1 4.51481C25.1865 4.44501 25.2556 4.3599 25.3028 4.26494C25.3501 4.16998 25.3745 4.06727 25.3745 3.96342C25.3745 3.85956 25.3501 3.75686 25.3028 3.6619C25.2556 3.56694 25.1865 3.48182 25.1 3.41202C25.0136 3.34222 24.9116 3.28928 24.8008 3.25659C24.69 3.22391 24.5727 3.2122 24.4565 3.22223H11.1548C10.9477 3.2401 10.7556 3.3259 10.6157 3.46293C10.4759 3.59995 10.3984 3.77837 10.3984 3.96342C10.3984 4.14847 10.4759 4.32689 10.6157 4.46391C10.7556 4.60093 10.9477 4.68673 11.1548 4.7046V4.7046Z" fill="white"/>
<path d="M1.08994 4.70342H2.76438C2.8956 5.02032 3.10712 5.30608 3.38252 5.53856L3.96936 6.06748C4.20193 6.27475 4.47817 6.43919 4.78227 6.55139C5.08638 6.66358 5.41238 6.72134 5.74161 6.72134C6.07084 6.72134 6.39684 6.66358 6.70094 6.55139C7.00505 6.43919 7.28129 6.27475 7.51386 6.06748L8.07722 5.53856C8.31026 5.3317 8.49513 5.08599 8.62128 4.81551C8.74742 4.54502 8.81235 4.25506 8.81235 3.96223C8.81235 3.6694 8.74742 3.37944 8.62128 3.10895C8.49513 2.83847 8.31026 2.59276 8.07722 2.3859L7.48256 1.85698C7.24999 1.64971 6.97375 1.48527 6.66964 1.37307C6.36554 1.26088 6.03954 1.20312 5.71031 1.20312C5.38108 1.20312 5.05508 1.26088 4.75098 1.37307C4.44687 1.48527 4.17063 1.64971 3.93806 1.85698L3.38252 2.3859C3.12127 2.62195 2.92334 2.90743 2.80351 3.22104H1.08994C0.973723 3.21102 0.856432 3.22272 0.745603 3.25541C0.634774 3.28809 0.532857 3.34103 0.446399 3.41084C0.359941 3.48064 0.290854 3.56575 0.243576 3.66071C0.196298 3.75567 0.171875 3.85838 0.171875 3.96223C0.171875 4.06608 0.196298 4.16879 0.243576 4.26375C0.290854 4.35871 0.359941 4.44382 0.446399 4.51363C0.532857 4.58343 0.634774 4.63637 0.745603 4.66905C0.856432 4.70174 0.973723 4.71345 1.08994 4.70342V4.70342ZM4.53272 3.43679L5.11956 2.90787C5.27647 2.7689 5.48888 2.69087 5.71031 2.69087C5.93174 2.69087 6.14415 2.7689 6.30106 2.90787L6.89572 3.43679C7.05197 3.57635 7.13969 3.76528 7.13969 3.96223C7.13969 4.15918 7.05197 4.34811 6.89572 4.48767L6.30888 5.01659C6.15198 5.15556 5.93956 5.23359 5.71813 5.23359C5.4967 5.23359 5.28429 5.15556 5.12738 5.01659L4.54055 4.48767C4.38221 4.34996 4.29166 4.16206 4.28873 3.96511C4.28579 3.76815 4.37071 3.57818 4.5249 3.43679H4.53272Z" fill="white"/>
<path d="M24.451 10.6441H18.2462C18.13 10.6341 18.0127 10.6458 17.9019 10.6785C17.791 10.7112 17.6891 10.7641 17.6027 10.8339C17.5162 10.9037 17.4471 10.9888 17.3998 11.0838C17.3525 11.1787 17.3281 11.2814 17.3281 11.3853C17.3281 11.4891 17.3525 11.5919 17.3998 11.6868C17.4471 11.7818 17.5162 11.8669 17.6027 11.9367C17.6891 12.0065 17.791 12.0594 17.9019 12.0921C18.0127 12.1248 18.13 12.1365 18.2462 12.1265H24.5058C24.7129 12.1086 24.9051 12.0228 25.0449 11.8858C25.1847 11.7488 25.2622 11.5703 25.2622 11.3853C25.2622 11.2002 25.1847 11.0218 25.0449 10.8848C24.9051 10.7478 24.7129 10.662 24.5058 10.6441H24.451Z" fill="white"/>
<path d="M1.0845 12.127H9.82448C9.94431 12.4406 10.1422 12.7261 10.4035 12.9621L10.9903 13.4911C11.2229 13.6983 11.4991 13.8628 11.8032 13.975C12.1074 14.0872 12.4333 14.1449 12.7626 14.1449C13.0918 14.1449 13.4178 14.0872 13.7219 13.975C14.026 13.8628 14.3023 13.6983 14.5348 13.4911L15.1217 12.9621C15.5899 12.5446 15.8529 11.979 15.8529 11.3893C15.8529 10.7996 15.5899 10.2339 15.1217 9.81644L14.5348 9.29448C14.3023 9.08721 14.026 8.92277 13.7219 8.81057C13.4178 8.69838 13.0918 8.64063 12.7626 8.64062C12.4333 8.64063 12.1074 8.69838 11.8032 8.81057C11.4991 8.92277 11.2229 9.08721 10.9903 9.29448L10.4035 9.8234C10.1422 10.0594 9.94431 10.3449 9.82448 10.6585H1.0845C0.877427 10.6764 0.685248 10.7622 0.545418 10.8992C0.405588 11.0363 0.328125 11.2147 0.328125 11.3997C0.328125 11.5848 0.405588 11.7632 0.545418 11.9002C0.685248 12.0372 0.877427 12.123 1.0845 12.1409V12.127ZM11.5928 10.8604L12.1797 10.3314C12.3366 10.1925 12.549 10.1145 12.7704 10.1145C12.9918 10.1145 13.2042 10.1925 13.3612 10.3314L13.9558 10.8604C14.1121 10.9999 14.1998 11.1889 14.1998 11.3858C14.1998 11.5828 14.1121 11.7717 13.9558 11.9113L13.369 12.4402C13.2121 12.5791 12.9997 12.6572 12.7782 12.6572C12.5568 12.6572 12.3444 12.5791 12.1875 12.4402L11.6006 11.9113C11.4423 11.7735 11.3518 11.5856 11.3488 11.3887C11.3459 11.1917 11.4308 11.0018 11.585 10.8604H11.5928Z" fill="white"/>
<path d="M21.6058 16.7085C21.3732 16.5013 21.097 16.3368 20.7929 16.2246C20.4888 16.1124 20.1628 16.0547 19.8335 16.0547C19.5043 16.0547 19.1783 16.1124 18.8742 16.2246C18.5701 16.3368 18.2939 16.5013 18.0613 16.7085L17.4666 17.2305C17.2054 17.4666 17.0074 17.752 16.8876 18.0656H1.08994C0.973723 18.0556 0.856432 18.0673 0.745603 18.1C0.634774 18.1327 0.532857 18.1856 0.446399 18.2554C0.359941 18.3252 0.290854 18.4104 0.243576 18.5053C0.196298 18.6003 0.171875 18.703 0.171875 18.8068C0.171875 18.9107 0.196298 19.0134 0.243576 19.1084C0.290854 19.2033 0.359941 19.2884 0.446399 19.3582C0.532857 19.428 0.634774 19.481 0.745603 19.5137C0.856432 19.5463 0.973723 19.558 1.08994 19.548H16.8954C17.0153 19.8616 17.2132 20.1471 17.4745 20.3832L18.0613 20.9121C18.2939 21.1194 18.5701 21.2838 18.8742 21.396C19.1783 21.5082 19.5043 21.5659 19.8335 21.5659C20.1628 21.5659 20.4888 21.5082 20.7929 21.396C21.097 21.2838 21.3732 21.1194 21.6058 20.9121L22.1926 20.3832C22.6609 19.9657 22.9238 19.4 22.9238 18.8103C22.9238 18.2206 22.6609 17.655 22.1926 17.2375L21.6058 16.7085ZM21.019 19.3323L20.4321 19.8612C20.2752 20.0002 20.0628 20.0782 19.8414 20.0782C19.6199 20.0782 19.4075 20.0002 19.2506 19.8612L18.6638 19.3323C18.5075 19.1927 18.4198 19.0038 18.4198 18.8068C18.4198 18.6099 18.5075 18.421 18.6638 18.2814L19.2506 17.7525C19.4075 17.6135 19.6199 17.5355 19.8414 17.5355C20.0628 17.5355 20.2752 17.6135 20.4321 17.7525L21.0268 18.2814C21.182 18.4219 21.2683 18.6113 21.2668 18.8083C21.2654 19.0052 21.1762 19.1936 21.019 19.3323V19.3323Z" fill="white"/>
<path d="M24.4521 19.5505C24.3146 19.5514 24.1791 19.5221 24.0574 19.4653C23.9357 19.4084 23.8316 19.3258 23.7543 19.2247C23.677 19.1236 23.6289 19.0071 23.6142 18.8854C23.5995 18.7638 23.6187 18.6409 23.6701 18.5274C23.7096 18.4373 23.768 18.3547 23.8421 18.2839C23.9595 18.1811 24.1084 18.1116 24.2701 18.0838C24.4318 18.056 24.5991 18.0713 24.751 18.1278C24.903 18.1843 25.0328 18.2794 25.1243 18.4012C25.2158 18.5231 25.2648 18.6662 25.2653 18.8128C25.2682 18.91 25.248 19.0067 25.2063 19.0966C25.1645 19.1865 25.1021 19.2677 25.0229 19.3348C24.8707 19.4691 24.6664 19.5463 24.4521 19.5505V19.5505Z" fill="white"/>
</g>
<defs>
<clipPath id="clip0_6526_4024">
<rect width="25.0384" height="22.2704" fill="white" transform="translate(0.25 0.25)"/>
</clipPath>
</defs>
</svg>
