<svg width="22" height="22" viewBox="0 0 22 22" fill="none" xmlns="http://www.w3.org/2000/svg">
<g clipPath="url(#clip0_7000_12233)">
<rect width="22" height="22" fill="black"/>
<path d="M11.0028 13.9353C9.98708 13.9353 8.99416 13.6341 8.14961 13.0698C7.30507 12.5055 6.64682 11.7034 6.25812 10.765C5.86941 9.8266 5.76771 8.79399 5.96587 7.79778C6.16403 6.80157 6.65315 5.88648 7.37138 5.16825C8.08961 4.45002 9.00469 3.9609 10.0009 3.76274C10.9971 3.56459 12.0297 3.66629 12.9681 4.05499C13.9065 4.44369 14.7086 5.10194 15.2729 5.94649C15.8372 6.79104 16.1384 7.78396 16.1384 8.79969C16.1366 10.1612 15.595 11.4664 14.6322 12.4291C13.6695 13.3918 12.3643 13.9335 11.0028 13.9353ZM11.0028 5.13531C10.2781 5.13531 9.5696 5.35023 8.967 5.75287C8.36439 6.15552 7.89472 6.72782 7.61737 7.39739C7.34003 8.06697 7.26746 8.80375 7.40885 9.51457C7.55024 10.2254 7.89924 10.8783 8.41171 11.3908C8.92418 11.9033 9.57711 12.2523 10.2879 12.3937C10.9987 12.535 11.7355 12.4625 12.4051 12.1851C13.0747 11.9078 13.647 11.4381 14.0496 10.8355C14.4523 10.2329 14.6672 9.52443 14.6672 8.79969C14.6654 7.8284 14.2787 6.8974 13.5919 6.21059C12.9051 5.52378 11.9741 5.13713 11.0028 5.13531V5.13531Z" fill="white"/>
<path d="M11 0C8.82441 0 6.69767 0.645139 4.88873 1.85383C3.07979 3.06253 1.66989 4.7805 0.83733 6.79048C0.00476609 8.80047 -0.213071 11.0122 0.211367 13.146C0.635804 15.2798 1.68345 17.2398 3.22183 18.7782C4.76021 20.3166 6.72022 21.3642 8.85401 21.7886C10.9878 22.2131 13.1995 21.9952 15.2095 21.1627C17.2195 20.3301 18.9375 18.9202 20.1462 17.1113C21.3549 15.3023 22 13.1756 22 11C22 8.08262 20.8411 5.28473 18.7782 3.22183C16.7153 1.15893 13.9174 0 11 0V0ZM5.19063 18.5625C5.67093 18.0352 6.25583 17.6136 6.90803 17.3248C7.56024 17.036 8.26546 16.8862 8.97876 16.885H13.0213C13.7346 16.8862 14.4398 17.036 15.092 17.3248C15.7442 17.6136 16.3291 18.0352 16.8094 18.5625C15.1481 19.8536 13.104 20.5546 11 20.5546C8.89598 20.5546 6.85192 19.8536 5.19063 18.5625V18.5625ZM17.875 17.5588C17.2565 16.8789 16.5029 16.3357 15.6623 15.9639C14.8218 15.5922 13.9128 15.4001 12.9938 15.4H8.97876C8.0643 15.4039 7.16065 15.5979 6.3251 15.9695C5.48956 16.3411 4.74035 16.8823 4.12501 17.5588C2.83624 16.208 1.97231 14.5087 1.64038 12.6715C1.30844 10.8344 1.5231 8.94018 2.25772 7.22388C2.99235 5.50757 4.21462 4.04467 5.77296 3.01659C7.33131 1.98851 9.15715 1.44049 11.0241 1.44049C12.891 1.44049 14.7168 1.98851 16.2752 3.01659C17.8335 4.04467 19.0558 5.50757 19.7904 7.22388C20.525 8.94018 20.7397 10.8344 20.4078 12.6715C20.0758 14.5087 19.2119 16.208 17.9231 17.5588H17.875Z" fill="white"/>
</g>
<defs>
<clipPath id="clip0_7000_12233">
<rect width="22" height="22" fill="white"/>
</clipPath>
</defs>
</svg>
