<svg width="9" height="6" viewBox="0 0 9 6" fill="none" xmlns="http://www.w3.org/2000/svg">
<path id="Vector" d="M4.71773 5.3056L8.53484 1.59428C8.6232 1.50844 8.67187 1.39385 8.67187 1.27167C8.67187 1.14949 8.6232 1.0349 8.53484 0.949066L8.2538 0.675753C8.07068 0.497906 7.77304 0.497906 7.59019 0.675753L4.38481 3.79224L1.17588 0.672295C1.08752 0.586456 0.969737 0.539062 0.844141 0.539062C0.718405 0.539062 0.60062 0.586456 0.512194 0.672295L0.231225 0.945608C0.142868 1.03151 0.0941925 1.14603 0.0941925 1.26821C0.0941925 1.39039 0.142868 1.50498 0.231225 1.59082L4.05182 5.3056C4.14045 5.39164 4.2588 5.4389 4.3846 5.43863C4.5109 5.4389 4.62917 5.39164 4.71773 5.3056Z" fill="#041E42"/>
</svg>
