<svg width="20" height="20" viewBox="0 0 20 20" fill="none" xmlns="http://www.w3.org/2000/svg">
<path d="M19.4125 5.91875C19.2275 5.73237 19.0075 5.58449 18.765 5.48365C18.5226 5.38281 18.2626 5.33102 18 5.33125H14.6687V2C14.6687 1.46957 14.458 0.960859 14.083 0.585786C13.7079 0.210714 13.1992 0 12.6687 0H2C1.46957 0 0.960858 0.210714 0.585786 0.585786C0.210713 0.960859 0 1.46957 0 2V12.6688C0.00226949 13.1986 0.213372 13.7061 0.5875 14.0813C0.772459 14.2676 0.992517 14.4155 1.23496 14.5163C1.4774 14.6172 1.73742 14.669 2 14.6687H5.33125V18C5.33125 18.5304 5.54196 19.0391 5.91703 19.4142C6.2921 19.7893 6.80081 20 7.33124 20H18C18.5298 19.9977 19.0373 19.7866 19.4125 19.4125C19.5989 19.2275 19.7467 19.0075 19.8476 18.765C19.9484 18.5226 20.0002 18.2626 20 18V7.3375C20.001 7.07387 19.9496 6.81267 19.8488 6.56909C19.7479 6.32552 19.5996 6.10445 19.4125 5.91875V5.91875ZM2 13.3375C1.91164 13.3351 1.82465 13.3151 1.74414 13.2786C1.66364 13.2421 1.59126 13.1899 1.53125 13.125C1.40818 12.9999 1.33869 12.8317 1.3375 12.6562V2C1.33869 1.8245 1.40818 1.65637 1.53125 1.53125C1.59283 1.46975 1.66592 1.42098 1.74635 1.38774C1.82678 1.35449 1.91297 1.33742 2 1.3375H12.6687C12.845 1.33749 13.0142 1.40709 13.1394 1.53116C13.2647 1.65522 13.3358 1.82372 13.3375 2V5.33125H7.33749C6.80706 5.33125 6.29835 5.54196 5.92328 5.91704C5.54821 6.29211 5.3375 6.80082 5.3375 7.33125V13.3312L2 13.3375ZM18.6687 18C18.6688 18.087 18.6517 18.1732 18.6185 18.2537C18.5853 18.3341 18.5365 18.4072 18.475 18.4687C18.3502 18.5924 18.1819 18.662 18.0062 18.6625H7.33749C7.24967 18.6625 7.16271 18.6452 7.08157 18.6116C7.00044 18.578 6.92672 18.5287 6.86462 18.4666C6.80252 18.4045 6.75326 18.3308 6.71965 18.2497C6.68604 18.1685 6.66874 18.0816 6.66874 17.9938V7.3375C6.67487 7.16241 6.74883 6.99656 6.87499 6.875C6.93657 6.8135 7.00966 6.76473 7.09009 6.73149C7.17052 6.69824 7.25671 6.68117 7.34374 6.68125H18C18.1773 6.68125 18.3474 6.75171 18.4729 6.87712C18.5983 7.00254 18.6687 7.17264 18.6687 7.35V18Z" fill="white"/>
<path d="M13.2572 10H11.9556V11.9556H10V13.2572H11.9556V15.2189H13.2572V13.2572H15.2189V11.9556H13.2572V10Z" fill="white"/>
</svg>
