<svg width="129" height="52" viewBox="0 0 129 52" fill="none" xmlns="http://www.w3.org/2000/svg">
<g clipPath="url(#clip0_6733_27842)">
<g clipPath="url(#clip1_6733_27842)">
<g clipPath="url(#clip2_6733_27842)">
<g clipPath="url(#clip3_6733_27842)">
<g clipPath="url(#clip4_6733_27842)">
<path d="M68.6074 31.1949H63.4453V29.7331L64.6306 29.5021V22.4999L63.4453 22.2719V20.8013H64.6306H67.4545L72.0725 27.4555H72.1178V22.4999L70.6087 22.2719V20.8013H74.5791H75.7708V22.2719L74.5791 22.4999V31.1949H71.8426L67.1371 24.6839H67.0918V29.5021L68.6074 29.7331V31.1949ZM85.512 31.1949H76.1918V29.7331L77.3835 29.5021V22.4999L76.1918 22.2719V20.8013H85.3857V23.801H83.2904L83.2257 22.728H80.1589V24.8622H83.8345V26.7831H80.1589V29.2594H83.3779L83.4394 28.1397H85.512V31.1949ZM91.5744 31.344C90.6374 31.344 89.8051 31.2631 89.0775 31.1013C88.35 30.9396 87.6245 30.6355 86.9013 30.1892V27.4906H89.0451L89.2815 28.8764C89.4499 29.046 89.7479 29.1893 90.1753 29.3062C90.6028 29.4232 91.0692 29.4816 91.5744 29.4816C91.9284 29.4816 92.2242 29.4427 92.4617 29.3647C92.6992 29.2848 92.8784 29.1688 92.9993 29.0168C93.1202 28.8647 93.1806 28.6815 93.1806 28.4671C93.1806 28.2625 93.1234 28.0793 93.009 27.9175C92.8967 27.7557 92.711 27.6027 92.452 27.4585C92.1951 27.3123 91.8475 27.1632 91.4092 27.0111C90.4226 26.7266 89.6129 26.4362 88.9804 26.1399C88.3478 25.8456 87.8782 25.4967 87.5716 25.0932C87.2629 24.6878 87.1086 24.1849 87.1086 23.5846C87.1086 23.0096 87.2899 22.5068 87.6526 22.076C88.0175 21.6452 88.5183 21.3061 89.1552 21.0586C89.7943 20.811 90.524 20.6804 91.3444 20.6668C92.2836 20.6473 93.1137 20.7321 93.8348 20.9212C94.558 21.1083 95.196 21.3919 95.7487 21.7719V24.2775H93.6955L93.3684 22.8859C93.1893 22.8059 92.9345 22.7328 92.6042 22.6666C92.2717 22.5984 91.9176 22.5643 91.542 22.5643C91.2224 22.5643 90.9375 22.6023 90.687 22.6783C90.4366 22.7543 90.238 22.8693 90.0912 23.0233C89.9465 23.1753 89.8742 23.3653 89.8742 23.5934C89.8742 23.7785 89.9346 23.9442 90.0555 24.0904C90.1786 24.2346 90.3923 24.3798 90.6967 24.526C91.0033 24.6703 91.4308 24.8379 91.9792 25.0289C93.2853 25.3758 94.2774 25.8095 94.9553 26.3299C95.6332 26.8523 95.9721 27.5598 95.9721 28.4525C95.9721 29.0665 95.7876 29.5888 95.4184 30.0196C95.0492 30.4503 94.5354 30.7788 93.8769 31.0049C93.2184 31.231 92.4509 31.344 91.5744 31.344ZM104.311 31.1949H99.1329V29.7331L100.334 29.5021V22.7426H98.5564L98.4852 23.8653H96.3899V20.8013H107.086V23.8653H104.969L104.904 22.7426H103.11V29.5021L104.311 29.7331V31.1949ZM110.542 31.1949H106.232V29.7331L107.038 29.6249L110.471 20.8013H113.473L116.912 29.6249L117.718 29.7331V31.1949H113.418V29.7331L114.169 29.6044L113.822 28.4759H110.121L109.791 29.6044L110.542 29.7331V31.1949ZM111.798 23.608L110.707 26.7188H113.23L112.106 23.5729L111.98 23.2075H111.931L111.798 23.608ZM123.379 31.1949H118.217V29.7331L119.412 29.5021V22.4999L118.217 22.2719V20.7954H123.878C124.789 20.7954 125.579 20.926 126.248 21.1872C126.92 21.4484 127.437 21.8207 127.799 22.304C128.162 22.7874 128.344 23.3595 128.344 24.0202C128.344 24.6303 128.161 25.1965 127.796 25.7189C127.429 26.2432 126.927 26.6632 126.29 26.979C125.651 27.2967 124.924 27.4526 124.108 27.4468L122.187 27.4263V29.5021L123.379 29.7331V31.1949ZM128.858 31.1949H125.507L123.955 27.1398L126.368 26.3972L127.767 29.4904L128.858 29.7389V31.1949ZM122.187 22.7163V25.5055H123.91C124.448 25.5055 124.861 25.3924 125.15 25.1663C125.44 24.9402 125.584 24.6137 125.584 24.1869C125.584 23.7425 125.438 23.3868 125.144 23.1197C124.848 22.8508 124.426 22.7163 123.878 22.7163H122.187Z" fill="#F8F2F1"/>
</g>
</g>
</g>
</g>
<g clipPath="url(#clip5_6733_27842)">
<g clipPath="url(#clip6_6733_27842)">
<path d="M0.148438 26.0032C0.148438 11.6162 13.0672 -0.046875 29.0032 -0.046875C44.9392 -0.046875 57.8579 11.6162 57.8579 26.0032C57.8579 40.3903 44.9392 52.0533 29.0032 52.0533C13.0672 52.0533 0.148438 40.3903 0.148438 26.0032ZM29.0032 51.0903C44.3501 51.0903 56.7912 39.8584 56.7912 26.0032C56.7912 12.148 44.3501 0.916174 29.0032 0.916323C13.6563 0.916323 1.21517 12.1482 1.21534 26.0032C1.21534 39.8584 13.6564 51.0903 29.0032 51.0903Z" fill="#EB6753"/>
<path d="M29.0037 51.7902C44.7804 51.7902 57.57 40.2438 57.57 26.0006C57.57 11.7573 44.7804 0.210938 29.0037 0.210938C13.227 0.210938 0.4375 11.7573 0.4375 26.0006C0.4375 40.2438 13.227 51.7902 29.0037 51.7902Z" fill="#EB6753"/>
<g clipPath="url(#clip7_6733_27842)">
<g clipPath="url(#clip8_6733_27842)">
<path d="M29.0017 10.8438L14.4766 18.423V33.5815L29.0017 41.1608L43.5268 33.5815V18.423L29.0017 10.8438ZM21.0506 20.9494L29.0017 12.3676L36.553 20.9494H21.0506ZM36.6863 21.7515L29.0017 34.183L20.9174 21.7515H36.6863ZM28.1577 34.4237L15.8536 32.6191L20.2067 22.2327L28.1577 34.4237ZM37.397 22.2728L42.1498 32.6592L29.8457 34.4638L37.397 22.2728ZM37.5302 20.8291L30.1566 12.3676L42.1498 18.6235L37.5302 20.8291ZM20.029 20.8291L15.8536 18.6235L27.758 12.4077L20.029 20.8291ZM19.5848 21.5108L15.365 31.5363V19.3052L19.5848 21.5108ZM28.5575 35.3059V39.9978L16.0757 33.5013L28.5575 35.3059ZM29.4459 35.3059L41.9277 33.5013L29.4459 39.9978V35.3059ZM38.0188 21.5108L42.6829 19.2651V31.6566L38.0188 21.5108Z" fill="#FDFDFD"/>
</g>
</g>
</g>
</g>
</g>
<defs>
<clipPath id="clip0_6733_27842">
<rect width="128.708" height="52.1002" fill="white" transform="translate(0.148438 -0.046875)"/>
</clipPath>
<clipPath id="clip1_6733_27842">
<rect width="65.4131" height="10.6802" fill="white" transform="translate(63.4453 20.6641)"/>
</clipPath>
<clipPath id="clip2_6733_27842">
<rect width="65.4131" height="10.6802" fill="white" transform="translate(63.4453 20.6641)"/>
</clipPath>
<clipPath id="clip3_6733_27842">
<rect width="65.4131" height="10.6802" fill="white" transform="translate(63.4453 20.6641)"/>
</clipPath>
<clipPath id="clip4_6733_27842">
<rect width="65.4131" height="10.6802" fill="white" transform="translate(63.4453 20.6641)"/>
</clipPath>
<clipPath id="clip5_6733_27842">
<rect width="57.7095" height="52.1002" fill="white" transform="translate(0.148438 -0.046875)"/>
</clipPath>
<clipPath id="clip6_6733_27842">
<rect width="57.7095" height="52.1002" fill="white" transform="translate(0.148438 -0.046875)"/>
</clipPath>
<clipPath id="clip7_6733_27842">
<rect width="29.0503" height="30.317" fill="white" transform="translate(14.4766 10.8438)"/>
</clipPath>
<clipPath id="clip8_6733_27842">
<rect width="29.0503" height="30.317" fill="white" transform="translate(14.4766 10.8438)"/>
</clipPath>
</defs>
</svg>
