<svg width="40" height="40" viewBox="0 0 40 40" fill="none" xmlns="http://www.w3.org/2000/svg">
<g clipPath="url(#clip0_6726_9595)">
<path d="M0 19.9914C0 8.95044 8.94596 0 19.9814 0C31.0168 0 39.9627 8.95044 39.9627 19.9914C39.9627 31.0323 31.0168 39.9827 19.9814 39.9827C8.94596 39.9827 0 31.0323 0 19.9914ZM19.9814 39.5773C30.793 39.5773 39.5575 30.8084 39.5575 19.9914C39.5575 9.17434 30.793 0.405481 19.9814 0.405364C9.16976 0.405364 0.405278 9.17423 0.405162 19.9914C0.405162 30.8084 9.16964 39.5773 19.9814 39.5773Z" fill="#EB6753"/>
<path d="M19.979 39.1803C30.5729 39.1803 39.1611 30.5878 39.1611 19.9886C39.1611 9.38929 30.5729 0.796875 19.979 0.796875C9.38499 0.796875 0.796875 9.38929 0.796875 19.9886C0.796875 30.5878 9.38499 39.1803 19.979 39.1803Z" fill="#EB6753"/>
<g clipPath="url(#clip1_6726_9595)">
<g clipPath="url(#clip2_6726_9595)">
<g clipPath="url(#clip3_6726_9595)">
<g clipPath="url(#clip4_6726_9595)">
<g clipPath="url(#clip5_6726_9595)">
<g clipPath="url(#clip6_6726_9595)">
<g clipPath="url(#clip7_6726_9595)">
<path d="M9.51538 28.9171H7.55469V28.3018L8.00488 28.2046V25.2571L7.55469 25.1612V24.5421H8.00488H9.07748L10.8315 27.3431H10.8487V25.2571L10.2755 25.1612V24.5421H11.7836H12.2362V25.1612L11.7836 25.2571V28.9171H10.7442L8.95694 26.1765H8.93972V28.2046L9.51538 28.3018V28.9171ZM15.9362 28.9171H12.3961V28.3018L12.8488 28.2046V25.2571L12.3961 25.1612V24.5421H15.8882V25.8048H15.0924L15.0678 25.3531H13.903V26.2515H15.2991V27.0601H13.903V28.1024H15.1256L15.149 27.6311H15.9362V28.9171ZM18.2389 28.9799C17.883 28.9799 17.5669 28.9459 17.2905 28.8778C17.0141 28.8097 16.7386 28.6817 16.4639 28.4938V27.3579H17.2782L17.368 27.9412C17.432 28.0126 17.5451 28.0729 17.7075 28.1221C17.8699 28.1714 18.047 28.196 18.2389 28.196C18.3734 28.196 18.4857 28.1796 18.5759 28.1467C18.6661 28.1131 18.7342 28.0643 18.7801 28.0003C18.826 27.9363 18.849 27.8592 18.849 27.7689C18.849 27.6828 18.8272 27.6057 18.7838 27.5376C18.7411 27.4695 18.6706 27.4051 18.5722 27.3444C18.4746 27.2828 18.3426 27.2201 18.1761 27.1561C17.8014 27.0363 17.4939 26.914 17.2536 26.7893C17.0133 26.6654 16.835 26.5186 16.7185 26.3487C16.6013 26.1781 16.5426 25.9664 16.5426 25.7137C16.5426 25.4717 16.6115 25.26 16.7493 25.0787C16.8879 24.8974 17.0781 24.7546 17.32 24.6504C17.5627 24.5462 17.8399 24.4913 18.1515 24.4855C18.5082 24.4773 18.8235 24.513 19.0974 24.5926C19.3721 24.6714 19.6145 24.7907 19.8244 24.9507V26.0054H19.0445L18.9203 25.4196C18.8522 25.386 18.7555 25.3552 18.63 25.3273C18.5037 25.2986 18.3693 25.2842 18.2266 25.2842C18.1052 25.2842 17.997 25.3002 17.9018 25.3322C17.8067 25.3642 17.7313 25.4126 17.6755 25.4774C17.6206 25.5414 17.5931 25.6214 17.5931 25.7174C17.5931 25.7954 17.6161 25.8651 17.662 25.9266C17.7087 25.9873 17.7899 26.0485 17.9055 26.11C18.022 26.1707 18.1843 26.2413 18.3926 26.3217C18.8887 26.4677 19.2655 26.6503 19.523 26.8693C19.7805 27.0892 19.9093 27.387 19.9093 27.7628C19.9093 28.0212 19.8392 28.2411 19.6989 28.4224C19.5587 28.6037 19.3635 28.742 19.1134 28.8371C18.8633 28.9323 18.5718 28.9799 18.2389 28.9799ZM23.0766 28.9171H21.1098V28.3018L21.5661 28.2046V25.3593H20.8908L20.8638 25.8319H20.0679V24.5421H24.1308V25.8319H23.3263L23.3017 25.3593H22.6203V28.2046L23.0766 28.3018V28.9171ZM25.4432 28.9171H23.8061V28.3018L24.1123 28.2563L25.4162 24.5421H26.5564L27.8627 28.2563L28.169 28.3018V28.9171H26.5355V28.3018L26.8209 28.2477L26.6893 27.7726H25.2833L25.1579 28.2477L25.4432 28.3018V28.9171ZM25.9205 25.7236L25.506 27.033H26.4642L26.0374 25.7088L25.9894 25.555H25.9709L25.9205 25.7236ZM30.3191 28.9171H28.3585V28.3018L28.8123 28.2046V25.2571L28.3585 25.1612V24.5397H30.5086C30.8546 24.5397 31.1548 24.5946 31.409 24.7046C31.664 24.8145 31.8604 24.9712 31.9982 25.1747C32.1359 25.3782 32.2048 25.619 32.2048 25.8971C32.2048 26.1539 32.1355 26.3922 31.9969 26.6121C31.8575 26.8328 31.6669 27.0096 31.425 27.1425C31.1822 27.2763 30.9059 27.3419 30.5959 27.3394L29.8665 27.3308V28.2046L30.3191 28.3018V28.9171ZM32.4004 28.9171H31.1273L30.5381 27.2102L31.4545 26.8976L31.9859 28.1997L32.4004 28.3043V28.9171ZM29.8665 25.3482V26.5223H30.5209C30.7251 26.5223 30.8821 26.4747 30.992 26.3795C31.1019 26.2843 31.1568 26.1469 31.1568 25.9672C31.1568 25.7802 31.101 25.6305 30.9895 25.518C30.8772 25.4048 30.7169 25.3482 30.5086 25.3482H29.8665Z" fill="#FBFCFA"/>
</g>
</g>
</g>
</g>
<g clipPath="url(#clip8_6726_9595)">
<g clipPath="url(#clip9_6726_9595)">
<path d="M19.9814 11L14.6094 14.1065V20.3195L19.9814 23.4259L25.3534 20.3195V14.1065L19.9814 11ZM17.0407 15.142L19.9814 11.6246L22.7742 15.142H17.0407ZM22.8235 15.4707L19.9814 20.566L16.9915 15.4707H22.8235ZM19.6693 20.6646L15.1186 19.925L16.7286 15.6679L19.6693 20.6646ZM23.0863 15.6844L24.8441 19.9414L20.2935 20.6811L23.0863 15.6844ZM23.1356 15.0927L20.4085 11.6246L24.8441 14.1887L23.1356 15.0927ZM16.6629 15.0927L15.1186 14.1887L19.5214 11.641L16.6629 15.0927ZM16.4986 15.3721L14.9379 19.4812V14.4681L16.4986 15.3721ZM19.8171 21.0262V22.9493L15.2008 20.2866L19.8171 21.0262ZM20.1457 21.0262L24.762 20.2866L20.1457 22.9493V21.0262ZM23.3163 15.3721L25.0413 14.4516V19.5305L23.3163 15.3721Z" fill="#FBFCFA"/>
</g>
</g>
</g>
</g>
</g>
</g>
<defs>
<clipPath id="clip0_6726_9595">
<rect width="39.9627" height="39.9827" fill="white"/>
</clipPath>
<clipPath id="clip1_6726_9595">
<rect width="24.8457" height="17.9829" fill="white" transform="translate(7.55469 11)"/>
</clipPath>
<clipPath id="clip2_6726_9595">
<rect width="24.8457" height="17.9829" fill="white" transform="translate(7.55469 11)"/>
</clipPath>
<clipPath id="clip3_6726_9595">
<rect width="24.8457" height="17.9829" fill="white" transform="translate(7.55469 11)"/>
</clipPath>
<clipPath id="clip4_6726_9595">
<rect width="24.8457" height="4.49564" fill="white" transform="translate(7.55469 24.4844)"/>
</clipPath>
<clipPath id="clip5_6726_9595">
<rect width="24.8457" height="4.49564" fill="white" transform="translate(7.55469 24.4844)"/>
</clipPath>
<clipPath id="clip6_6726_9595">
<rect width="24.8457" height="4.49564" fill="white" transform="translate(7.55469 24.4844)"/>
</clipPath>
<clipPath id="clip7_6726_9595">
<rect width="24.8457" height="4.49564" fill="white" transform="translate(7.55469 24.4844)"/>
</clipPath>
<clipPath id="clip8_6726_9595">
<rect width="10.744" height="12.4259" fill="white" transform="translate(14.6094 11)"/>
</clipPath>
<clipPath id="clip9_6726_9595">
<rect width="10.744" height="12.4259" fill="white" transform="translate(14.6094 11)"/>
</clipPath>
</defs>
</svg>
