<svg width="93" height="26" viewBox="0 0 93 26" fill="none" xmlns="http://www.w3.org/2000/svg">
<g clipPath="url(#clip0_6554_2559)">
<path fill-rule="evenodd" clip-rule="evenodd" d="M57.5813 19.6584C52.2085 23.2314 44.3945 25.1355 37.6544 25.1355C28.6639 25.1757 19.9797 22.1991 13.2986 16.7874C12.8106 16.3774 13.233 15.8205 13.8544 16.1435C20.3243 19.4927 27.5682 21.4497 35.0189 21.8612C42.4697 22.2727 49.9252 21.1275 56.802 18.5154C57.7114 18.1944 58.4606 19.0764 57.5813 19.6584Z" fill="#222222"/>
<path fill-rule="evenodd" clip-rule="evenodd" d="M59.8347 17.3441C59.151 16.5531 55.2768 16.9631 53.5503 17.1681C53.029 17.2271 52.9311 16.8171 53.4203 16.5241C56.5141 14.5621 61.56 15.1471 62.147 15.7921C62.7339 16.4371 61.9847 21.0061 59.0865 23.1731C58.6307 23.4951 58.2072 23.3191 58.4028 22.8801C59.0531 21.4161 60.5184 18.1641 59.8347 17.3441Z" fill="#222222"/>
<path fill-rule="evenodd" clip-rule="evenodd" d="M53.6451 2.7603V0.86031C53.6414 0.797848 53.6524 0.735394 53.6773 0.676991C53.7022 0.618589 53.7405 0.565551 53.7897 0.521321C53.8388 0.477092 53.8978 0.442644 53.9627 0.420247C54.0276 0.39785 54.0971 0.388003 54.1665 0.391316H63.6058C63.7484 0.388066 63.8866 0.435437 63.9907 0.523213C64.0947 0.61099 64.1561 0.732103 64.1616 0.86031V2.4713C64.1616 2.7353 63.9015 3.08631 63.4457 3.67131L58.5621 9.93932C60.4232 9.84914 62.2778 10.2016 63.9393 10.9613C64.0835 11.0355 64.2041 11.1418 64.2895 11.27C64.375 11.3982 64.4224 11.5439 64.4273 11.6933V13.7143C64.4273 14.0073 64.1016 14.3293 63.7436 14.1533C62.203 13.436 60.4925 13.064 58.7577 13.0691C57.0229 13.0741 55.3151 13.456 53.7796 14.1823C53.7019 14.2073 53.6186 14.2151 53.5369 14.2049C53.4551 14.1946 53.3774 14.1668 53.3102 14.1236C53.243 14.0805 53.1884 14.0234 53.1511 13.9571C53.1138 13.8909 53.0949 13.8175 53.096 13.7433V11.8073C53.0639 11.3547 53.189 10.9042 53.4539 10.5183L59.1235 3.2253H54.2065C54.0639 3.22855 53.9257 3.18118 53.8216 3.0934C53.7176 3.00563 53.6562 2.88451 53.6507 2.75631L53.6451 2.7603ZM19.2286 14.5603H16.3593C16.2309 14.5487 16.1103 14.4995 16.0161 14.4202C15.9219 14.3408 15.8593 14.2358 15.838 14.1213V0.886311C15.8435 0.758104 15.9049 0.636991 16.0089 0.549214C16.1129 0.461438 16.2512 0.414067 16.3938 0.417317H19.0618C19.1939 0.418933 19.3206 0.464813 19.417 0.54601C19.5134 0.627207 19.5727 0.737871 19.5832 0.856313V2.58431H19.6488C19.9023 1.87 20.4017 1.24667 21.0748 0.804372C21.7479 0.362077 22.5599 0.123708 23.3935 0.123708C24.2271 0.123708 25.0391 0.362077 25.7122 0.804372C26.3853 1.24667 26.8847 1.87 27.1382 2.58431C27.4239 1.84787 27.9629 1.21242 28.6771 0.7701C29.3913 0.327781 30.2435 0.101594 31.1102 0.124318C31.7536 0.112641 32.3908 0.239502 32.9687 0.494344C33.5465 0.749186 34.0482 1.12462 34.4319 1.58931C35.3435 2.70231 35.1479 4.31331 35.1479 5.74831V14.1253C35.1424 14.2535 35.0809 14.3746 34.9769 14.4624C34.8729 14.5502 34.7346 14.5976 34.592 14.5943H31.7595C31.6238 14.587 31.4959 14.5352 31.3999 14.4488C31.3038 14.3624 31.2463 14.2473 31.2381 14.1253V7.0963C31.2817 6.26595 31.2598 5.43387 31.1725 4.60631C31.1128 4.25403 30.9016 3.93692 30.5846 3.72332C30.2675 3.50971 29.8698 3.41672 29.4772 3.46431C29.1034 3.47402 28.741 3.58178 28.4344 3.77437C28.1279 3.96697 27.8906 4.23598 27.7518 4.5483C27.5159 5.37992 27.4281 6.23994 27.4917 7.0963V14.1253C27.4862 14.2535 27.4248 14.3746 27.3208 14.4624C27.2167 14.5502 27.0785 14.5976 26.9359 14.5943H24.0711C23.9355 14.587 23.8075 14.5352 23.7115 14.4488C23.6154 14.3624 23.5579 14.2473 23.5497 14.1253V7.0963C23.5497 5.6313 23.8098 3.43532 21.791 3.43532C19.74 3.43532 19.8044 5.5443 19.8044 7.0963V14.1253C19.784 14.2505 19.7129 14.3646 19.6048 14.4456C19.4967 14.5266 19.3592 14.5689 19.2186 14.5643L19.2286 14.5603ZM72.3025 0.12032C76.568 0.12032 78.8803 3.40031 78.8803 7.58931C78.8803 11.6313 76.3401 14.8533 72.3025 14.8533C68.1348 14.8533 65.8547 11.5733 65.8547 7.47231C65.8225 3.34231 68.1337 0.12032 72.3025 0.12032ZM72.3025 2.84432C70.1903 2.84432 70.0558 5.45131 70.0558 7.06231C70.0558 8.67331 70.0235 12.1293 72.2702 12.1293C74.4847 12.1293 74.6148 9.3463 74.6148 7.6483C74.6548 6.46466 74.5122 5.28176 74.1912 4.13332C74.1022 3.74976 73.8617 3.40819 73.5142 3.17193C73.1667 2.93566 72.7359 2.8207 72.3014 2.84832L72.3025 2.84432ZM84.382 14.5603H81.5172C81.3816 14.553 81.2537 14.5012 81.1576 14.4148C81.0616 14.3283 81.004 14.2133 80.9958 14.0913V0.827321C81.0138 0.706069 81.0801 0.594768 81.1822 0.514058C81.2844 0.433348 81.4157 0.388669 81.5517 0.388295H84.2197C84.3409 0.391939 84.4575 0.43117 84.5516 0.499959C84.6457 0.568748 84.7123 0.66333 84.7411 0.769307V2.7903H84.8067C85.6204 0.974303 86.7276 0.125295 88.7142 0.125295C89.3752 0.0982803 90.0325 0.227327 90.6209 0.499593C91.2093 0.771858 91.7082 1.17787 92.0682 1.6773C92.8174 2.7323 92.8174 4.5183 92.8174 5.8073V14.1553C92.7978 14.2734 92.73 14.3808 92.6273 14.4566C92.5246 14.5323 92.3943 14.5711 92.2616 14.5653H89.3968C89.2731 14.5548 89.1562 14.5095 89.0626 14.436C88.969 14.3624 88.9035 14.2642 88.8754 14.1553V6.95031C88.8754 5.48631 89.0711 3.37731 87.0845 3.37731C86.7248 3.39241 86.3774 3.49963 86.0831 3.68636C85.7889 3.87309 85.5601 4.13153 85.4237 4.43129C85.0753 5.23251 84.92 6.09109 84.9679 6.95031V14.0973C84.9498 14.226 84.8805 14.3445 84.7728 14.4307C84.6651 14.517 84.5262 14.5651 84.382 14.5663V14.5603ZM46.1235 8.2333C46.2299 9.1765 46.0497 10.128 45.6021 10.9863C45.4205 11.3255 45.1397 11.6139 44.7897 11.8203C44.4397 12.0268 44.0338 12.1437 43.6155 12.1583C42.5039 12.1583 41.8569 11.3963 41.8569 10.2833C41.8569 8.08331 44.038 7.67632 46.1224 7.67632L46.1235 8.2333ZM49.0216 14.5333C48.9288 14.6062 48.813 14.6511 48.6904 14.6617C48.5677 14.6723 48.4445 14.648 48.338 14.5923C47.6747 14.1095 47.1124 13.5244 46.6771 12.8643C46.1094 13.4887 45.386 13.9838 44.5657 14.3096C43.7454 14.6354 42.8512 14.7826 41.9558 14.7393C41.3683 14.7703 40.7802 14.6866 40.2321 14.4938C39.6839 14.301 39.1887 14.0037 38.7803 13.6224C38.372 13.2411 38.0602 12.7849 37.8665 12.285C37.6728 11.785 37.6017 11.2533 37.658 10.7263C37.6243 9.82551 37.9 8.93725 38.4476 8.18248C38.9953 7.42771 39.7882 6.84313 40.7185 6.50832C42.4661 5.98689 44.2844 5.68141 46.1235 5.6003V5.27831C46.2208 4.63508 46.0958 3.98048 45.7655 3.40331C45.5783 3.18497 45.336 3.00991 45.0585 2.89269C44.7811 2.77547 44.4766 2.71946 44.1703 2.7293C43.6403 2.6877 43.1118 2.82287 42.6854 3.10906C42.259 3.39524 41.9645 3.81245 41.858 4.2813C41.7924 4.5153 41.6356 4.75029 41.3699 4.75029L38.6018 4.48632C38.535 4.47786 38.4707 4.45735 38.4129 4.42601C38.3551 4.39468 38.3049 4.35316 38.2653 4.30394C38.2258 4.25473 38.1977 4.19883 38.1827 4.13961C38.1678 4.08039 38.1663 4.01906 38.1783 3.95931C38.8297 0.913309 41.858 0.00529941 44.5927 0.00529941C46.1643 -0.0551533 47.7063 0.403285 48.9283 1.2943C50.3279 2.4663 50.1978 4.0473 50.1978 5.7463V9.7593C50.216 10.651 50.5987 11.5054 51.2728 12.1593C51.4685 12.3933 51.5007 12.6863 51.2728 12.8333C50.6491 13.2753 49.6053 14.0953 49.0216 14.5333ZM8.51643 8.2333C8.62286 9.1765 8.44265 10.128 7.99505 10.9863C7.81345 11.3255 7.53258 11.6139 7.18259 11.8203C6.8326 12.0268 6.42672 12.1437 6.00849 12.1583C4.8968 12.1583 4.2498 11.3963 4.2498 10.2833C4.2498 8.08331 6.43091 7.67632 8.51532 7.67632L8.51643 8.2333ZM11.3824 14.5333C11.2896 14.6062 11.1737 14.6511 11.051 14.6617C10.9284 14.6723 10.8052 14.648 10.6987 14.5923C10.0355 14.1095 9.47307 13.5244 9.03781 12.8643C8.47007 13.4887 7.7467 13.9838 6.92638 14.3096C6.10606 14.6354 5.21192 14.7826 4.3165 14.7393C3.72896 14.7703 3.14091 14.6866 2.59277 14.4938C2.04462 14.301 1.54937 14.0037 1.14103 13.6224C0.732693 13.2411 0.420948 12.7849 0.22722 12.285C0.0334925 11.785 -0.0376223 11.2533 0.0187459 10.7263C-0.0150092 9.82551 0.260696 8.93725 0.808335 8.18248C1.35598 7.42771 2.14892 6.84313 3.07919 6.50832C4.82684 5.98689 6.64513 5.68141 8.48419 5.6003V5.27831C8.58152 4.63508 8.45656 3.98048 8.12624 3.40331C7.93906 3.18497 7.69668 3.00991 7.41924 2.89269C7.1418 2.77547 6.83728 2.71946 6.53096 2.7293C6.00098 2.6877 5.47251 2.82287 5.04613 3.10906C4.61975 3.39524 4.32524 3.81245 4.21868 4.2813C4.15309 4.5153 3.99077 4.75029 3.73064 4.75029L0.962562 4.48632C0.89571 4.47786 0.831438 4.45735 0.773612 4.42601C0.715786 4.39468 0.665588 4.35316 0.626035 4.30394C0.586482 4.25473 0.558381 4.19883 0.543426 4.13961C0.52847 4.08039 0.526965 4.01906 0.538998 3.95931C1.19044 0.913309 4.21867 0.00529941 6.9534 0.00529941C8.525 -0.0551533 10.067 0.403285 11.289 1.2943C12.6886 2.4663 12.5585 4.0473 12.5585 5.7463V9.7593C12.5768 10.6509 12.9595 11.5053 13.6335 12.1593C13.8292 12.3933 13.8614 12.6863 13.6335 12.8333C13.0143 13.2723 11.9727 14.0923 11.3868 14.5333H11.3824Z" fill="#222222"/>
</g>
<defs>
<clipPath id="clip0_6554_2559">
<rect width="92.8176" height="25.138" fill="white"/>
</clipPath>
</defs>
</svg>
