<svg width="92" height="20" viewBox="0 0 92 20" fill="none" xmlns="http://www.w3.org/2000/svg">
<g clipPath="url(#clip0_6554_2564)">
<path d="M21.8414 18.332H16.7644L15.208 14.963H6.75148L5.33631 18.332H0.34375L7.97099 1.315H13.436L21.8414 18.332ZM10.7735 5.381L7.99434 11.993H13.8195L10.7735 5.381ZM40.2809 1.315H44.3863V18.332H39.6706V7.7L34.5669 13.039H33.8454L28.7416 7.7V18.332H24.0226V1.315H28.1358L34.2056 7.628L40.2809 1.315ZM56.3358 1.315C63.2427 1.315 66.7923 5.182 66.7923 9.848C66.7923 14.738 63.3527 18.332 55.8089 18.332H47.986V1.315H56.3358ZM52.7039 15.213H55.7822C60.5257 15.213 61.9398 12.313 61.9398 9.822C61.9398 6.902 60.1922 4.433 55.7266 4.433H52.7039V15.213ZM76.1737 5.35L70.2274 0H91.8751V19.474L85.9287 14.125V5.35H76.1737ZM76.1671 6.422L70.0462 11.929V19.638H78.615L84.737 14.131H76.1671V6.422Z" fill="#222222"/>
</g>
<defs>
<clipPath id="clip0_6554_2564">
<rect width="91.5314" height="19.638" fill="white" transform="translate(0.34375)"/>
</clipPath>
</defs>
</svg>
