<svg width="83" height="42" viewBox="0 0 83 42" fill="none" xmlns="http://www.w3.org/2000/svg">
<path d="M27.1419 37.4396H23.7969V25.5156H27.1419V37.4396Z" fill="#222222"/>
<path d="M54.1112 28.9311C53.2476 28.5096 52.2801 28.2901 51.2976 28.293C50.8203 28.2694 50.3427 28.3348 49.8947 28.4849C49.4467 28.6349 49.0379 28.8664 48.694 29.165C48.3501 29.4637 48.0785 29.8232 47.8962 30.2207C47.7139 30.6182 47.6248 31.0452 47.6346 31.4751C47.6245 31.9051 47.7134 32.3323 47.8955 32.73C48.0776 33.1277 48.3491 33.4873 48.6929 33.7861C49.0369 34.085 49.4458 34.3167 49.894 34.4668C50.3423 34.6168 50.8201 34.6821 51.2976 34.6582C52.2793 34.6602 53.2461 34.4423 54.1112 34.0249V37.2251C53.1231 37.4975 52.0965 37.6402 51.0631 37.6489C50.1409 37.6873 49.2198 37.5552 48.3567 37.2607C47.4936 36.9663 46.7068 36.5158 46.0449 35.937C45.3828 35.3584 44.8596 34.6641 44.5076 33.8965C44.1556 33.1289 43.9823 32.3043 43.9983 31.4741C43.9832 30.6443 44.1572 29.8203 44.5096 29.0532C44.862 28.2862 45.3852 27.5924 46.0471 27.0142C46.7091 26.4361 47.4956 25.9861 48.3583 25.6919C49.2209 25.3976 50.1414 25.2653 51.0631 25.3032C52.0975 25.3057 53.1254 25.4501 54.1112 25.7319V28.9311ZM19.1967 28.9311C18.3347 28.5089 17.3679 28.2895 16.3863 28.2939C15.9086 28.2696 15.4305 28.3347 14.9819 28.4844C14.5333 28.6341 14.1239 28.8653 13.7795 29.1641C13.4348 29.4627 13.1626 29.8223 12.9799 30.2202C12.7972 30.6181 12.7079 31.0457 12.7178 31.4761C12.7079 31.9065 12.797 32.3344 12.9795 32.7324C13.162 33.1304 13.434 33.49 13.7784 33.7891C14.123 34.0879 14.5325 34.3195 14.9813 34.4692C15.4301 34.6189 15.9084 34.6837 16.3863 34.6592C17.3671 34.6622 18.3332 34.4443 19.1967 34.0259V37.2261C18.2078 37.5 17.1798 37.6426 16.1451 37.6499C15.2233 37.6883 14.3026 37.5562 13.4398 37.2617C12.577 36.9672 11.7907 36.5168 11.1292 35.938C10.4678 35.3591 9.94535 34.6646 9.59411 33.897C9.24286 33.1293 9.07029 32.3051 9.08705 31.4751C9.07176 30.6457 9.24545 29.8224 9.59743 29.0557C9.94942 28.2889 10.4722 27.5951 11.1337 27.0171C11.7951 26.4391 12.581 25.9892 13.4431 25.6948C14.3051 25.4004 15.225 25.2677 16.1462 25.3052C17.1813 25.3063 18.2101 25.45 19.1967 25.7319V28.9311ZM64.6344 28.3389C64.1765 28.3349 63.7225 28.4137 63.2989 28.5703C62.8754 28.7269 62.4911 28.9584 62.1687 29.251C61.8464 29.5433 61.5924 29.8908 61.4219 30.2729C61.2514 30.6551 61.1678 31.0643 61.176 31.4761C61.1674 31.8881 61.2507 32.2972 61.421 32.6797C61.5913 33.0622 61.8452 33.4104 62.1676 33.7031C62.4901 33.9959 62.8745 34.2275 63.2982 34.3843C63.7219 34.5411 64.1763 34.6201 64.6344 34.6162C65.0925 34.62 65.5469 34.5411 65.9706 34.3843C66.3943 34.2275 66.7788 33.9958 67.1013 33.7031C67.4239 33.4105 67.678 33.0627 67.8487 32.6802C68.0194 32.2977 68.1032 31.8882 68.0951 31.4761C68.1021 31.0639 68.0172 30.6546 67.8453 30.2725C67.6735 29.8903 67.4182 29.5429 67.0946 29.251C66.7721 28.9586 66.3878 28.7274 65.9643 28.5708C65.5408 28.4142 65.0868 28.3351 64.6289 28.3389H64.6344ZM71.6325 31.4751C71.6409 32.2987 71.4645 33.1156 71.1138 33.8765C70.763 34.6373 70.2453 35.3267 69.5914 35.9033C68.9375 36.48 68.161 36.9321 67.3083 37.2324C66.4556 37.5328 65.5443 37.6748 64.6289 37.6509C63.7136 37.675 62.8023 37.5331 61.9496 37.2329C61.0969 36.9327 60.3203 36.4808 59.6663 35.9043C59.0123 35.3276 58.4944 34.638 58.1436 33.8769C57.7929 33.1159 57.6166 32.2989 57.6253 31.4751C57.6174 30.6517 57.7943 29.8352 58.1454 29.0747C58.4965 28.3142 59.0146 27.6255 59.6685 27.0493C60.3224 26.473 61.0989 26.0212 61.9514 25.7212C62.8039 25.4212 63.715 25.2791 64.63 25.3032C65.5449 25.2795 66.4557 25.422 67.308 25.7222C68.1602 26.0223 68.9365 26.4741 69.5903 27.0503C70.244 27.6265 70.7619 28.3149 71.1129 29.0752C71.464 29.8355 71.6411 30.6518 71.6336 31.4751H71.6325ZM39.8195 28.2251C38.9664 28.0137 38.0891 27.8921 37.2048 27.8623C35.8641 27.8623 35.136 28.2619 35.136 28.8389C35.136 29.5659 36.1187 29.8191 36.669 29.9751L37.5917 30.2393C38.468 30.4059 39.2564 30.8331 39.8298 31.4521C40.4032 32.0711 40.7281 32.8454 40.7522 33.6509C40.7522 36.6509 37.824 37.6509 35.2638 37.6509C34.0521 37.6408 32.8439 37.532 31.6542 37.3252V34.5791C32.6815 34.8478 33.7429 34.9969 34.8125 35.0229C36.48 35.0229 37.2415 34.5851 37.2415 33.9101C37.2415 33.3101 36.5745 32.9571 35.7496 32.7231C35.5484 32.6621 35.2427 32.5771 35.0359 32.5151C33.1727 31.9851 31.6197 30.9998 31.6197 29.0268C31.6197 26.7968 33.4763 25.2993 36.559 25.2993C37.6584 25.3127 38.7524 25.4397 39.8195 25.6782V28.2231V28.2251Z" fill="#222222"/>
<path d="M5.54043 12.7031C5.53925 12.3078 5.36364 11.9289 5.05223 11.6499C4.74083 11.3709 4.31907 11.2148 3.87955 11.2153C3.44032 11.2151 3.01893 11.3712 2.70762 11.6499C2.39631 11.9286 2.22052 12.307 2.21875 12.7021V15.833C2.23087 16.2225 2.41094 16.5926 2.72092 16.8647C3.0309 17.1369 3.44643 17.2896 3.87955 17.291C4.31319 17.2911 4.72968 17.1387 5.04002 16.8662C5.35037 16.5938 5.52998 16.223 5.54043 15.833V12.7031ZM14.6618 8.59522C14.6618 8.19898 14.4868 7.81875 14.1753 7.53857C13.8638 7.2584 13.4414 7.10107 13.0009 7.10107C12.5604 7.10107 12.138 7.2584 11.8265 7.53857C11.5151 7.81875 11.34 8.19898 11.34 8.59522V15.833C11.34 16.2292 11.5151 16.6095 11.8265 16.8896C12.138 17.1698 12.5604 17.3271 13.0009 17.3271C13.4414 17.3271 13.8638 17.1698 14.1753 16.8896C14.4868 16.6095 14.6618 16.2292 14.6618 15.833V8.59424V8.59522ZM23.7842 2.97314C23.7831 2.57787 23.6077 2.19905 23.2965 1.91992C22.9854 1.64079 22.5639 1.48437 22.1245 1.48438C21.6846 1.48411 21.2627 1.64055 20.9513 1.91992C20.6399 2.19929 20.4645 2.5785 20.4636 2.97412V18.8071C20.4744 19.1969 20.6541 19.5676 20.9644 19.8398C21.2747 20.1121 21.691 20.2643 22.1245 20.2642C22.5579 20.2643 22.9743 20.1121 23.2846 19.8398C23.5949 19.5676 23.7746 19.1969 23.7853 18.8071L23.7842 2.97314ZM32.9056 8.59522C32.9056 8.19898 32.7306 7.81875 32.4191 7.53857C32.1076 7.2584 31.6852 7.10107 31.2447 7.10107C30.8042 7.10107 30.3818 7.2584 30.0703 7.53857C29.7588 7.81875 29.5839 8.19898 29.5839 8.59522V15.833C29.5839 16.2292 29.7588 16.6095 30.0703 16.8896C30.3818 17.1698 30.8042 17.3271 31.2447 17.3271C31.6852 17.3271 32.1076 17.1698 32.4191 16.8896C32.7306 16.6095 32.9056 16.2292 32.9056 15.833V8.59424V8.59522ZM42.0213 12.7031C42.0216 12.3089 41.8479 11.9309 41.5384 11.6519C41.2288 11.3728 40.8087 11.2159 40.3705 11.2153C39.9311 11.2145 39.5093 11.3706 39.1979 11.6494C38.8865 11.9283 38.7108 12.3069 38.7096 12.7021V15.833C38.7096 16.2279 38.8841 16.607 39.1945 16.8862C39.5049 17.1655 39.9259 17.3223 40.3649 17.3223C40.803 17.3209 41.2226 17.1634 41.5318 16.8843C41.8411 16.6052 42.0147 16.2271 42.0147 15.833L42.0213 12.7031ZM51.1472 8.59522C51.1364 8.20666 50.9573 7.83737 50.6481 7.56592C50.3388 7.29447 49.9239 7.14223 49.4919 7.14209C49.0598 7.14223 48.6448 7.29447 48.3356 7.56592C48.0264 7.83737 47.8473 8.20666 47.8366 8.59522V15.833C47.8366 16.2279 48.0109 16.607 48.3214 16.8862C48.6318 17.1655 49.0529 17.3223 49.4919 17.3223C49.9309 17.3223 50.3519 17.1655 50.6623 16.8862C50.9727 16.607 51.1472 16.2279 51.1472 15.833V8.59424V8.59522ZM60.2752 2.97314C60.2749 2.57841 60.1003 2.19992 59.7899 1.9209C59.4795 1.64187 59.0587 1.48535 58.6199 1.48535C58.1811 1.48535 57.7602 1.64187 57.4498 1.9209C57.1394 2.19992 56.9649 2.57841 56.9646 2.97314V18.8071C56.9514 19.0759 57.0194 19.3428 57.1613 19.5796C57.3032 19.8164 57.5137 20.0145 57.7705 20.1523C58.0274 20.29 58.3209 20.3623 58.6199 20.3623C58.9189 20.3623 59.2123 20.29 59.4692 20.1523C59.7262 20.0144 59.9368 19.8161 60.0787 19.5791C60.2206 19.3421 60.2885 19.0751 60.2752 18.8062V2.97314ZM69.401 8.59522C69.4002 8.39802 69.3562 8.20288 69.2715 8.021C69.1868 7.83911 69.063 7.67398 68.9073 7.53516C68.7514 7.3968 68.5667 7.2875 68.3637 7.21338C68.1608 7.13926 67.9436 7.10162 67.7245 7.10303C67.2854 7.10329 66.8644 7.26064 66.554 7.54004C66.2436 7.81944 66.0692 8.19826 66.0692 8.59326V15.832C66.0687 16.028 66.1111 16.2221 66.1941 16.4033C66.2771 16.5845 66.399 16.7494 66.5528 16.8882C66.8634 17.1681 67.2849 17.3256 67.7245 17.3262C67.9439 17.3279 68.1614 17.2906 68.3647 17.2163C68.5679 17.142 68.7527 17.032 68.9085 16.8931C69.0645 16.7543 69.1883 16.5893 69.2728 16.4072C69.3573 16.2251 69.4009 16.0294 69.401 15.832V8.59326V8.59522ZM78.51 12.7031C78.51 12.3077 78.3354 11.9285 78.0246 11.6489C77.7137 11.3693 77.2922 11.2119 76.8526 11.2119C76.413 11.2119 75.9913 11.3693 75.6805 11.6489C75.3696 11.9285 75.195 12.3077 75.195 12.7031V15.833C75.1946 16.0291 75.2371 16.2235 75.3202 16.4048C75.4033 16.5861 75.5253 16.7508 75.6793 16.8896C75.8332 17.0285 76.0161 17.1386 76.2174 17.2139C76.4187 17.2891 76.6346 17.328 76.8526 17.3281C77.0704 17.3279 77.286 17.2891 77.4871 17.2139C77.6882 17.1386 77.8709 17.0284 78.0247 16.8896C78.1785 16.7509 78.3005 16.5864 78.3836 16.4053C78.4666 16.2242 78.5092 16.0299 78.5089 15.834V12.7041L78.51 12.7031Z" fill="#222222"/>
<path d="M76.5925 35.8672V36.0542H76.0011V37.4375H75.7576V36.0552H75.1641V35.8672H76.5925ZM76.716 35.8672H77.0961L77.6185 37.1553H77.6275L78.1332 35.8682H78.5068V37.4375H78.2578V36.1504H78.2489L77.7198 37.4375H77.4896L76.9727 36.1504H76.9616V37.4375H76.7181L76.716 35.8672Z" fill="#222222"/>
</svg>
