<svg width="136" height="24" viewBox="0 0 136 24" fill="none" xmlns="http://www.w3.org/2000/svg">
<g clipPath="url(#clip0_6554_2574)">
<path fill-rule="evenodd" clip-rule="evenodd" d="M4.91081 2.23493C5.92051 1.44576 7.09388 0.844175 8.36328 0.464868C9.63267 0.0855613 10.973 -0.0639673 12.3069 0.0249028C13.6409 0.113773 14.9421 0.439284 16.1355 0.982669C17.3289 1.52605 18.391 2.27656 19.2604 3.19093C21.13 4.89166 22.222 7.16163 22.3204 9.55185C22.4188 11.9421 21.5165 14.2785 19.7918 16.0989L11.8199 23.2699C10.2258 22.3139 7.56884 20.4019 8.63161 18.4889C10.7571 16.0989 13.4118 14.1889 15.5407 11.7959C17.1349 9.88393 16.0721 6.05893 12.8838 5.58093C12.1683 5.35597 11.4007 5.30002 10.6543 5.41843C9.90788 5.53684 9.2078 5.82565 8.62106 6.2572C8.03432 6.68875 7.58058 7.24858 7.3033 7.88308C7.02602 8.51758 6.93448 9.20549 7.03746 9.88093C7.03746 12.2709 9.16299 13.7049 10.7571 15.1399C9.16299 16.5739 7.03746 17.5299 7.03746 19.4399C5.44331 17.5279 2.78639 16.0939 1.72251 13.7029C0.750871 11.7461 0.536951 9.55272 1.11497 7.47363C1.693 5.39454 3.02956 3.54993 4.91081 2.23493Z" fill="#222222"/>
<path fill-rule="evenodd" clip-rule="evenodd" d="M38.9266 2.23561C39.458 0.801605 41.0522 1.2796 42.1149 1.2796V18.9626H38.9266V17.5326C37.6471 18.4606 36.053 18.9667 34.4093 18.9667C32.7657 18.9667 31.1716 18.4606 29.892 17.5326C28.4202 16.3238 27.5386 14.641 27.4391 12.8505C27.3396 11.0599 28.0302 9.30646 29.3606 7.97161C30.557 6.8003 32.1843 6.05819 33.9417 5.88245C35.6992 5.70671 37.468 6.10923 38.9211 7.0156L38.9266 2.23561ZM34.1464 8.4506C31.4895 8.9286 29.3662 12.2746 31.4895 14.6656C31.8865 15.1865 32.4288 15.6044 33.0621 15.8771C33.6954 16.1499 34.3973 16.268 35.0973 16.2196C35.7974 16.1711 36.471 15.9579 37.0504 15.6012C37.6299 15.2445 38.0948 14.757 38.3986 14.1876C39.9894 11.7966 37.3314 8.4496 34.1431 8.4496L34.1464 8.4506Z" fill="#222222"/>
<path fill-rule="evenodd" clip-rule="evenodd" d="M44.7656 6.05932H47.9539V7.01532C49.0167 5.58132 51.1422 5.58132 53.2689 6.05932C52.7375 7.01532 52.2061 7.49332 52.2061 8.44932C50.0806 7.97132 47.955 8.92732 47.955 10.3613V17.5323C47.4225 18.9713 45.8284 18.9713 44.7656 18.9713V6.05932Z" fill="#222222"/>
<path fill-rule="evenodd" clip-rule="evenodd" d="M58.0539 6.05667C63.3688 4.14467 68.6826 8.92467 67.6143 13.7057C66.546 18.4867 59.1111 20.8767 55.3858 17.5297C51.1348 14.1837 52.7289 7.01267 58.0427 6.05667H58.0539ZM59.648 8.44667C58.7556 8.66082 57.9418 9.08294 57.2887 9.67041C56.6356 10.2579 56.1664 10.9899 55.9283 11.7927C55.8193 12.3381 55.8493 12.8987 56.0163 13.4321C56.1833 13.9655 56.4827 14.4579 56.8921 14.872C57.3015 15.2861 57.8102 15.6112 58.3796 15.8226C58.9491 16.0341 59.5645 16.1264 60.1794 16.0927C62.3049 16.0927 64.4305 14.6587 64.4305 12.7467C64.4305 10.3587 61.7747 7.96867 59.6502 8.44667H59.648Z" fill="#222222"/>
<path fill-rule="evenodd" clip-rule="evenodd" d="M69.75 6.06123H72.9383V7.01723C74.3914 6.11085 76.1602 5.70833 77.9176 5.88407C79.6751 6.05981 81.3024 6.80192 82.4988 7.97323C83.1557 8.5875 83.6657 9.31645 83.9971 10.115C84.3285 10.9136 84.4744 11.7648 84.4256 12.6161C84.3768 13.4674 84.1345 14.3006 83.7136 15.0643C83.2927 15.828 82.7022 16.5059 81.9785 17.0562C79.853 19.4462 75.6008 19.4462 72.9439 18.0122V22.3122C72.4125 23.7462 70.8183 23.7462 69.7556 23.7462V6.06123H69.75ZM76.6591 8.45123C73.4708 8.92923 71.8789 12.2752 73.4708 14.1882C75.0649 16.5782 79.3171 16.5782 80.3799 14.1882C82.5043 11.7972 79.8474 8.45123 76.6591 8.45123Z" fill="#222222"/>
<path fill-rule="evenodd" clip-rule="evenodd" d="M89.9461 6.54075C91.2912 5.86228 92.8423 5.58905 94.3725 5.76108C95.9027 5.93311 97.3314 6.54137 98.4494 7.49675C97.918 7.97475 97.3866 8.93075 96.3238 9.40875C95.8285 9.04774 95.2466 8.79526 94.6241 8.67124C94.0017 8.54722 93.3557 8.55505 92.7372 8.69412C92.1187 8.83319 91.5446 9.09969 91.0602 9.47258C90.5758 9.84547 90.1944 10.3145 89.9461 10.8428C89.7152 11.4088 89.6324 12.0152 89.7043 12.6147C89.7761 13.2142 90.0007 13.7907 90.3606 14.2995C90.7204 14.8082 91.2058 15.2355 91.779 15.5481C92.3523 15.8607 92.9979 16.0501 93.6658 16.1018C94.7286 16.1018 95.7914 15.6238 96.8541 15.6238C97.8034 15.9998 98.5616 16.6819 98.9796 17.5358C95.26 20.4038 88.8822 19.4478 87.2881 15.1458C85.1626 12.2768 86.7567 8.45075 89.9461 6.54075Z" fill="#222222"/>
<path fill-rule="evenodd" clip-rule="evenodd" d="M98.9753 14.6611C97.3834 10.3591 101.101 5.57812 105.884 5.57812C107.798 5.65325 109.627 6.30817 111.074 7.43647C112.521 8.56477 113.502 10.1001 113.856 11.7931V18.9641C112.262 18.9641 111.199 18.9641 110.137 18.0081C106.417 20.3981 100.576 18.4861 98.9764 14.6621L98.9753 14.6611ZM105.884 8.44613C105.153 8.56999 104.464 8.84953 103.877 9.26143C103.29 9.67333 102.82 10.2056 102.508 10.8139C102.196 11.4222 102.05 12.0888 102.083 12.758C102.116 13.4273 102.326 14.0798 102.696 14.6611C104.822 17.0511 109.074 16.5731 110.137 14.1831C110.409 13.5527 110.508 12.8727 110.427 12.2004C110.345 11.5282 110.085 10.8835 109.668 10.3208C109.251 9.75813 108.689 9.29403 108.031 8.96774C107.372 8.64144 106.636 8.46253 105.884 8.44613Z" fill="#222222"/>
<path fill-rule="evenodd" clip-rule="evenodd" d="M115.984 6.06107H119.173V7.01707C120.767 5.10507 124.488 5.58307 126.613 7.49507C129.27 4.62707 134.585 5.58307 135.648 8.92907C136.179 11.7971 135.648 15.1441 135.648 18.0121C135.648 18.9681 134.054 18.9681 132.459 18.9681C132.459 16.1001 132.991 13.2311 132.459 10.3681C132.356 9.86617 132.06 9.41281 131.623 9.08654C131.187 8.76027 130.637 8.58165 130.069 8.58165C129.502 8.58165 128.952 8.76027 128.516 9.08654C128.079 9.41281 127.783 9.86617 127.679 10.3681V18.9681H124.491C124.579 15.9325 124.401 12.8955 123.96 9.88507C123.428 7.97307 119.709 8.45107 119.709 10.3631C119.267 13.2116 119.089 16.0881 119.177 18.9631H115.984V6.06107Z" fill="#222222"/>
</g>
<defs>
<clipPath id="clip0_6554_2574">
<rect width="135.087" height="23.743" fill="white" transform="translate(0.796875)"/>
</clipPath>
</defs>
</svg>
