<svg width="92" height="25" viewBox="0 0 92 25" fill="none" xmlns="http://www.w3.org/2000/svg">
<g clipPath="url(#clip0_6554_2588)">
<path d="M0.382812 17.57V0.364H3.74231V17.57H0.382812ZM12.3434 5.088C11.3928 5.06873 10.4475 5.22077 9.56322 5.53515C8.67894 5.84954 7.87353 6.31992 7.19443 6.91858C6.51532 7.51725 5.97626 8.23211 5.60899 9.02105C5.24171 9.80999 5.05365 10.6571 5.05587 11.5124C5.0581 12.3677 5.25057 13.214 5.62194 14.0014C5.99332 14.7887 6.5361 15.5013 7.21831 16.0971C7.90052 16.6929 8.70837 17.1599 9.59428 17.4706C10.4802 17.7812 11.4262 17.9293 12.3767 17.906C13.3198 17.9144 14.2554 17.7544 15.1292 17.4351C16.003 17.1158 16.7977 16.6437 17.4671 16.046C18.1365 15.4484 18.6674 14.7372 19.029 13.9536C19.3905 13.17 19.5756 12.3297 19.5733 11.4813C19.5711 10.6329 19.3817 9.79337 19.0161 9.01133C18.6505 8.22928 18.1159 7.52031 17.4434 6.92551C16.7708 6.33071 15.9737 5.86193 15.0983 5.54633C14.2228 5.23073 13.2864 5.07461 12.3434 5.087V5.088ZM12.3045 8C13.1945 7.99747 14.0579 8.27247 14.7478 8.77819C15.4378 9.28391 15.9115 9.98909 16.0885 10.7737C16.2654 11.5583 16.1346 12.3738 15.7183 13.0814C15.302 13.789 14.6259 14.3449 13.8052 14.6545C12.9845 14.9642 12.0699 15.0084 11.217 14.7797C10.3641 14.5509 9.62571 14.0633 9.12751 13.3999C8.62932 12.7366 8.40211 11.9384 8.48456 11.1412C8.56702 10.3441 8.95404 9.59731 9.57975 9.028C10.3018 8.37556 11.2811 8.00609 12.3045 8ZM28.0503 5.088C27.0997 5.06873 26.1544 5.22077 25.2702 5.53515C24.3859 5.84954 23.5805 6.31992 22.9014 6.91858C22.2223 7.51725 21.6832 8.23211 21.3159 9.02105C20.9487 9.80999 20.7606 10.6571 20.7628 11.5124C20.765 12.3677 20.9575 13.214 21.3289 14.0014C21.7003 14.7887 22.243 15.5013 22.9253 16.0971C23.6075 16.6929 24.4153 17.1599 25.3012 17.4706C26.1871 17.7812 27.1332 17.9293 28.0837 17.906C29.033 17.9268 29.9772 17.775 30.8598 17.4597C31.7423 17.1444 32.545 16.6721 33.2197 16.071C33.8945 15.4699 34.4274 14.7525 34.7865 13.9617C35.1456 13.171 35.3235 12.3231 35.3096 11.469C35.4039 10.2907 35.0142 9.12217 34.2146 8.185L35.1462 7.898V5.445H30.3804C29.6295 5.21092 28.8406 5.09029 28.0459 5.088H28.0503ZM28.0114 8C28.9013 7.99793 29.7645 8.27333 30.4541 8.77931C31.1436 9.28529 31.617 9.99059 31.7935 10.7752C31.97 11.5597 31.8389 12.3751 31.4223 13.0825C31.0058 13.7899 30.3296 14.3455 29.5089 14.6549C28.6882 14.9643 27.7736 15.0083 26.9209 14.7794C26.0681 14.5505 25.3299 14.0629 24.8319 13.3995C24.3339 12.7362 24.1068 11.938 24.1893 11.141C24.2718 10.3439 24.6588 9.59725 25.2845 9.028C26.007 8.37508 26.9873 8.00556 28.0114 8ZM31.9023 18.408C31.9023 19.3331 31.4938 20.2203 30.7666 20.8744C30.0394 21.5285 29.0532 21.896 28.0248 21.896C26.9964 21.896 26.0101 21.5285 25.2829 20.8744C24.5557 20.2203 24.1472 19.3331 24.1472 18.408H20.7377C20.7218 19.2701 20.9017 20.126 21.2665 20.9233C21.6313 21.7206 22.1733 22.4425 22.8592 23.0447C23.5451 23.6469 24.3605 24.1168 25.2555 24.4255C26.1504 24.7342 27.106 24.8752 28.0637 24.84C29.0124 24.8618 29.9563 24.7109 30.8387 24.3965C31.721 24.0821 32.5237 23.6106 33.1985 23.0103C33.8733 22.41 34.4064 21.6933 34.7657 20.9031C35.125 20.1129 35.3032 19.2656 35.2896 18.412L31.9023 18.408ZM36.6625 17.567V5.445H40.0231V17.57L36.6625 17.567ZM43.2848 17.567V8.161H41.4828V5.445H43.2848V1.722H46.6443V5.445H48.4953V8.161H46.6443V17.57L43.2848 17.567ZM40.5601 2C40.5601 2.39556 40.4297 2.78224 40.1854 3.11114C39.9411 3.44004 39.5938 3.69638 39.1876 3.84776C38.7813 3.99913 38.3343 4.03874 37.903 3.96157C37.4717 3.8844 37.0755 3.69392 36.7646 3.41421C36.4536 3.13451 36.2419 2.77814 36.1561 2.39018C36.0703 2.00222 36.1143 1.60009 36.2826 1.23463C36.4509 0.869181 36.7359 0.556824 37.1015 0.337061C37.4671 0.117298 37.897 0 38.3367 0C38.9264 0 39.4919 0.210714 39.9089 0.585786C40.3258 0.960859 40.5601 1.46957 40.5601 2ZM56.0491 5.08C55.0993 5.06267 54.1556 5.21999 53.2757 5.54231C52.3958 5.86463 51.5984 6.34518 50.9323 6.95449C50.2662 7.5638 49.7454 8.28906 49.4018 9.0858C49.0583 9.88255 48.8992 10.734 48.9344 11.588C48.8954 12.4402 49.056 13.2903 49.4056 14.0832C49.7552 14.8761 50.2861 15.594 50.9639 16.1905C51.6417 16.787 52.4513 17.2487 53.3401 17.5458C54.229 17.8429 55.1773 17.9687 56.1236 17.915C57.2655 17.9475 58.4019 17.7589 59.4558 17.3621C60.5097 16.9653 61.4566 16.3695 62.2323 15.615L59.9867 13.592C58.9792 14.5413 57.6207 15.1266 56.167 15.238C55.3239 15.2678 54.4955 15.0327 53.8241 14.5731C53.1527 14.1135 52.68 13.4579 52.4873 12.719H62.9571V11.887C62.9571 8.566 60.8205 5.081 56.0547 5.081L56.0491 5.08ZM55.938 7.741C56.7633 7.69831 57.5769 7.9329 58.2209 8.39928C58.8648 8.86565 59.2933 9.53055 59.4231 10.265H52.3861C52.5513 9.53374 52.9994 8.87884 53.6508 8.41672C54.3021 7.95459 55.1145 7.71517 55.9435 7.741H55.938ZM71.3559 17.916C70.4186 17.9169 69.4904 17.7516 68.6241 17.4298C67.7579 17.1079 66.9706 16.6358 66.3071 16.0402C64.9673 14.8375 64.2136 13.2052 64.2117 11.5025C64.2097 9.79981 64.9598 8.16617 66.2969 6.96097C67.634 5.75577 69.4486 5.07772 71.3414 5.076C72.4419 5.06859 73.5303 5.28239 74.5271 5.70176C75.524 6.12114 76.4041 6.73551 77.1033 7.5L74.7543 9.6C74.3346 9.13765 73.8128 8.75867 73.2219 8.48705C72.631 8.21543 71.9838 8.05708 71.3214 8.022C70.8112 8.01057 70.3037 8.09221 69.8295 8.26199C69.3553 8.43177 68.9243 8.68618 68.5624 9.00987C68.2005 9.33357 67.9152 9.71984 67.7237 10.1454C67.5322 10.571 67.4386 11.027 67.4483 11.486C67.4355 11.9461 67.5257 12.4037 67.7137 12.8318C67.9017 13.2598 68.1836 13.6494 68.5425 13.9773C68.9014 14.3052 69.3301 14.5648 69.803 14.7405C70.2758 14.9162 70.7831 15.0044 71.2947 15C71.9621 14.9688 72.6148 14.8121 73.2107 14.5399C73.8066 14.2678 74.3325 13.8863 74.7543 13.42L77.1222 15.52C76.421 16.282 75.5391 16.8931 74.5411 17.3084C73.5431 17.7237 72.4543 17.9327 71.3548 17.92L71.3559 17.916ZM78.3461 17.579V0.32H81.7056V6.661C82.211 6.13835 82.8406 5.72463 83.5478 5.45044C84.255 5.17626 85.0216 5.04863 85.7911 5.077C89.3095 5.077 91.3495 7.43 91.3495 10.439V17.579H87.9833V10.9C88.0338 10.5312 87.9941 10.157 87.8671 9.80348C87.74 9.44994 87.5287 9.12564 87.2478 8.85324C86.9669 8.58085 86.6232 8.36694 86.2408 8.22647C85.8585 8.086 85.4466 8.02236 85.034 8.04C84.5853 8.00791 84.1343 8.06407 83.7122 8.20458C83.2901 8.3451 82.9071 8.56659 82.5897 8.85368C82.2723 9.14077 82.0283 9.48657 81.8745 9.86706C81.7206 10.2475 81.6608 10.6536 81.699 11.057V17.584H78.3461V17.579Z" fill="#222222"/>
</g>
<defs>
<clipPath id="clip0_6554_2588">
<rect width="90.9667" height="24.845" fill="white" transform="translate(0.382812)"/>
</clipPath>
</defs>
</svg>
