<svg width="110" height="30" viewBox="0 0 110 30" fill="none" xmlns="http://www.w3.org/2000/svg">
<g clipPath="url(#clip0_6554_2590)">
<path d="M17.0122 3.38876e-08C13.7679 0.000197812 10.5965 0.86579 7.89898 2.48732C5.20151 4.10885 3.09915 6.41349 1.85774 9.10982C0.616334 11.8061 0.291639 14.773 0.924716 17.6354C1.55779 20.4977 3.12021 23.1269 5.41439 25.1904C7.70857 27.254 10.6315 28.6593 13.8135 29.2285C16.9955 29.7978 20.2938 29.5055 23.2911 28.3887C26.2885 27.2718 28.8504 25.3805 30.6528 22.9539C32.4553 20.5273 33.4173 17.6744 33.4173 14.756C33.4173 12.8181 32.993 10.8992 32.1685 9.10889C31.3441 7.31855 30.1357 5.69181 28.6123 4.32158C27.0889 2.95134 25.2805 1.86445 23.2901 1.12295C21.2998 0.381447 19.1665 -0.000131294 17.0122 3.38876e-08ZM24.535 21.282C24.4646 21.3848 24.3723 21.4741 24.2635 21.5448C24.1548 21.6155 24.0315 21.6663 23.9009 21.6941C23.7703 21.722 23.6349 21.7264 23.5024 21.7072C23.3699 21.6879 23.2429 21.6454 23.1287 21.582C19.2767 19.466 14.4287 18.982 8.71798 20.16C8.45352 20.2142 8.17593 20.1717 7.94629 20.0419C7.71665 19.912 7.55376 19.7054 7.49347 19.4675C7.43317 19.2296 7.48041 18.9799 7.62478 18.7733C7.76915 18.5668 7.99884 18.4202 8.26331 18.366C14.5121 17.082 19.8726 17.635 24.1959 20.012C24.3113 20.075 24.4116 20.158 24.4912 20.2561C24.5708 20.3541 24.6279 20.4654 24.6595 20.5835C24.691 20.7015 24.6962 20.824 24.6748 20.9439C24.6535 21.0638 24.6059 21.1787 24.535 21.282ZM26.5427 17.264C26.3654 17.5241 26.0805 17.7102 25.7508 17.7814C25.421 17.8527 25.0733 17.8032 24.784 17.644C19.8048 15.1469 13.928 14.528 8.44229 15.923C8.11797 16.0122 7.76752 15.9819 7.46804 15.8388C7.16855 15.6956 6.94457 15.4512 6.84536 15.1595C6.74615 14.8678 6.77983 14.5525 6.93901 14.2831C7.09818 14.0137 7.36981 13.8122 7.69413 13.723C10.7555 12.9302 13.9621 12.6952 17.1258 13.0318C20.2895 13.3683 23.3467 14.2697 26.118 15.683C26.2612 15.762 26.3857 15.8655 26.4843 15.9878C26.583 16.11 26.6539 16.2486 26.693 16.3955C26.7322 16.5424 26.7387 16.6948 26.7124 16.844C26.686 16.9932 26.6272 17.1362 26.5393 17.265L26.5427 17.264ZM26.715 13.08C21.4278 10.255 12.7078 9.995 7.65744 11.374C7.46345 11.4305 7.25888 11.4516 7.0557 11.4361C6.85253 11.4207 6.65482 11.3689 6.47413 11.2839C6.29344 11.199 6.1334 11.0824 6.00336 10.9411C5.87333 10.7999 5.7759 10.6367 5.71679 10.4611C5.65768 10.2856 5.63806 10.1012 5.65909 9.91877C5.68011 9.73633 5.74135 9.55949 5.83924 9.39858C5.93712 9.23768 6.06968 9.09595 6.22917 8.98167C6.38866 8.86738 6.57187 8.78285 6.7681 8.733C12.5622 7.151 22.1949 7.456 28.2825 10.707C28.4557 10.7994 28.6071 10.9217 28.7279 11.0668C28.8486 11.2118 28.9364 11.3769 28.9863 11.5525C29.0362 11.7281 29.0471 11.9108 29.0185 12.0902C28.9898 12.2696 28.9222 12.4421 28.8194 12.598C28.7166 12.7539 28.5807 12.89 28.4195 12.9987C28.2582 13.1073 28.0747 13.1863 27.8795 13.2311C27.6843 13.276 27.4812 13.2858 27.2818 13.2601C27.0823 13.2343 26.8905 13.1734 26.7172 13.081L26.715 13.08ZM45.2389 13.623C42.4064 13.015 41.9039 12.589 41.9039 11.693C41.9039 10.846 42.7932 10.277 44.1072 10.277C45.5243 10.3225 46.885 10.7876 47.9781 11.6C47.998 11.6132 48.0206 11.6227 48.0446 11.628C48.0686 11.6333 48.0935 11.6342 48.1179 11.6308C48.1423 11.6273 48.1657 11.6196 48.1867 11.6079C48.2078 11.5963 48.226 11.581 48.2405 11.563L49.6234 9.809C49.6508 9.77422 49.6624 9.73134 49.6558 9.68914C49.6491 9.64694 49.6248 9.60861 49.5878 9.582C48.0553 8.45437 46.128 7.85203 44.1484 7.882C41.0901 7.882 38.9535 9.533 38.9535 11.895C38.9535 14.428 40.7967 15.325 43.9816 16.017C46.6908 16.579 47.1488 17.049 47.1488 17.89C47.1488 18.822 46.2239 19.402 44.7353 19.402C43.047 19.3903 41.4296 18.7894 40.2241 17.726C40.1865 17.6972 40.1379 17.6825 40.0885 17.685C40.064 17.6865 40.04 17.6924 40.018 17.7023C39.9961 17.7123 39.9766 17.7261 39.9607 17.743L38.4043 19.403C38.3731 19.4363 38.3575 19.4793 38.3608 19.5227C38.3642 19.5662 38.3861 19.6068 38.4221 19.636C40.1322 21.0298 42.3599 21.7977 44.6675 21.789C47.9626 21.789 50.0914 20.17 50.0914 17.662C50.097 15.546 48.6885 14.374 45.2389 13.62H45.2334L45.2389 13.623ZM57.5519 11.11C56.8652 11.1019 56.1858 11.237 55.5668 11.5047C54.9479 11.7724 54.4063 12.1655 53.9845 12.653V11.485C53.9847 11.4631 53.98 11.4414 53.9708 11.4212C53.9616 11.4009 53.948 11.3825 53.9309 11.367C53.9137 11.3515 53.8933 11.3391 53.8709 11.3307C53.8484 11.3223 53.8243 11.318 53.8 11.318H51.2642C51.2399 11.318 51.2158 11.3223 51.1934 11.3307C51.1709 11.3391 51.1505 11.3515 51.1334 11.367C51.1162 11.3825 51.1026 11.4009 51.0934 11.4212C51.0842 11.4414 51.0796 11.4631 51.0797 11.485V24.454C51.0797 24.4981 51.0991 24.5404 51.1337 24.5717C51.1683 24.603 51.2152 24.6207 51.2642 24.621H53.7989C53.8479 24.6207 53.8949 24.603 53.9294 24.5717C53.964 24.5404 53.9834 24.4981 53.9834 24.454V20.361C54.4207 20.8263 54.9678 21.198 55.5849 21.4492C56.202 21.7003 56.8736 21.8246 57.5508 21.813C60.2055 21.813 62.8924 19.975 62.8924 16.462C62.8924 12.949 60.2088 11.109 57.5564 11.109L57.5519 11.11ZM59.9442 16.462C59.9887 16.8408 59.9452 17.2237 59.8164 17.5865C59.6877 17.9493 59.4767 18.2842 59.1966 18.5698C58.9165 18.8554 58.5735 19.0855 58.1893 19.2457C57.8052 19.4058 57.3883 19.4924 56.9649 19.5C56.5406 19.4878 56.1234 19.3986 55.7384 19.2378C55.3533 19.0769 55.0083 18.8478 54.7242 18.564C54.44 18.2803 54.2225 17.9479 54.0847 17.5866C53.9469 17.2254 53.8917 16.8429 53.9223 16.462C53.8915 16.081 53.9466 15.6984 54.0844 15.337C54.2221 14.9757 54.4396 14.6431 54.7238 14.3593C55.0079 14.0755 55.3529 13.8462 55.7381 13.6853C56.1232 13.5244 56.5405 13.4352 56.9649 13.423C57.3866 13.435 57.801 13.5245 58.1827 13.686C58.5644 13.8476 58.9053 14.0777 59.1844 14.3622C59.4635 14.6467 59.6749 14.9796 59.8056 15.3404C59.9363 15.7012 59.9835 16.0822 59.9442 16.46V16.462ZM69.7793 11.11C68.6046 11.1299 67.4627 11.4616 66.4969 12.0633C65.5311 12.665 64.7845 13.5101 64.3508 14.4922C63.917 15.4744 63.8156 16.55 64.0592 17.5839C64.3027 18.6177 64.8804 19.5638 65.7197 20.3033C66.559 21.0428 67.6225 21.5428 68.7766 21.7404C69.9308 21.9381 71.1241 21.8246 72.2068 21.4142C73.2894 21.0038 74.2131 20.3148 74.8619 19.4337C75.5108 18.5527 75.8557 17.5188 75.8535 16.462C75.8495 15.7507 75.6887 15.0472 75.3805 14.3922C75.0723 13.7372 74.6227 13.1436 74.0578 12.6459C73.493 12.1482 72.824 11.7562 72.0895 11.4925C71.3551 11.2289 70.5699 11.0989 69.7793 11.11ZM69.7793 19.518C69.3438 19.5144 68.9137 19.4314 68.5149 19.2742C68.116 19.1169 67.7567 18.8886 67.4587 18.603C67.1606 18.3174 66.93 17.9805 66.7806 17.6125C66.6313 17.2445 66.5664 16.8532 66.5899 16.462C66.5617 16.0747 66.6223 15.6864 66.7678 15.3211C66.9133 14.9557 67.1407 14.6211 67.4359 14.3381C67.7311 14.055 68.0877 13.8295 68.4837 13.6756C68.8798 13.5216 69.3067 13.4424 69.7382 13.443C70.1748 13.4457 70.6064 13.528 71.0068 13.6848C71.4072 13.8416 71.7682 14.0696 72.0679 14.3553C72.3677 14.6409 72.6001 14.9782 72.7511 15.3468C72.9021 15.7154 72.9685 16.1077 72.9465 16.5C72.9736 16.8884 72.9117 17.2777 72.7646 17.6437C72.6175 18.0097 72.3883 18.3446 72.0913 18.6276C71.7943 18.9106 71.4359 19.1356 71.0381 19.2888C70.6404 19.442 70.2119 19.52 69.7793 19.518ZM83.1528 11.318H80.3614V8.751C80.3615 8.72912 80.3569 8.70742 80.3477 8.68717C80.3385 8.66691 80.3249 8.64849 80.3077 8.63297C80.2906 8.61745 80.2702 8.60513 80.2477 8.59673C80.2253 8.58833 80.2012 8.584 80.1768 8.584H77.6411C77.592 8.58426 77.5449 8.60194 77.5102 8.6332C77.4754 8.66446 77.4557 8.70679 77.4555 8.751V11.318H76.2326C76.2083 11.318 76.1842 11.3223 76.1617 11.3307C76.1393 11.3391 76.1189 11.3515 76.1017 11.367C76.0846 11.3825 76.071 11.4009 76.0618 11.4212C76.0526 11.4414 76.0479 11.4631 76.0481 11.485V13.446C76.0481 13.4901 76.0675 13.5324 76.1021 13.5637C76.1366 13.595 76.1836 13.6127 76.2326 13.613H77.4555V18.687C77.4555 20.736 78.5894 21.776 80.8283 21.776C81.6586 21.7939 82.4789 21.6101 83.2029 21.244C83.2316 21.2299 83.2555 21.2091 83.2722 21.1837C83.2888 21.1584 83.2975 21.1294 83.2973 21.1V19.231C83.2973 19.2027 83.2892 19.1749 83.2738 19.1502C83.2584 19.1256 83.2363 19.1048 83.2095 19.09C83.1828 19.0747 83.1521 19.066 83.1205 19.0648C83.0889 19.0635 83.0575 19.0698 83.0294 19.083C82.5695 19.297 82.0587 19.4075 81.5409 19.405C80.7282 19.405 80.3636 19.072 80.3636 18.328V13.614H83.155C83.1794 13.614 83.2035 13.6097 83.2259 13.6013C83.2484 13.5929 83.2688 13.5805 83.2859 13.565C83.3031 13.5495 83.3167 13.5311 83.3259 13.5108C83.3351 13.4906 83.3397 13.4689 83.3396 13.447V11.487C83.3403 11.4651 83.3362 11.4434 83.3273 11.423C83.3185 11.4026 83.3051 11.3841 83.2881 11.3685C83.271 11.3529 83.2507 11.3405 83.2282 11.3322C83.2057 11.3239 83.1816 11.3197 83.1573 11.32L83.1528 11.318ZM92.8767 11.328V11.013C92.8767 10.086 93.2725 9.672 94.1573 9.672C94.6454 9.67719 95.1289 9.75734 95.587 9.909C95.6149 9.91746 95.6446 9.91979 95.6738 9.91579C95.7029 9.91179 95.7305 9.90158 95.7543 9.88602C95.7782 9.87046 95.7975 9.84999 95.8107 9.82632C95.824 9.80266 95.8307 9.77649 95.8304 9.75V7.823C95.8309 7.78713 95.8183 7.7521 95.7946 7.72323C95.771 7.69436 95.7375 7.67322 95.6992 7.663C95.015 7.47505 94.3025 7.3833 93.5871 7.391C91.2459 7.391 90.0063 8.578 90.0063 10.821V11.304H88.7835C88.7343 11.3043 88.6873 11.3219 88.6525 11.3532C88.6178 11.3845 88.5981 11.4268 88.5978 11.471V13.442C88.5981 13.4862 88.6178 13.5285 88.6525 13.5598C88.6873 13.5911 88.7343 13.6087 88.7835 13.609H90.0063V21.434C90.0063 21.4783 90.0259 21.5208 90.0607 21.5521C90.0955 21.5834 90.1427 21.601 90.192 21.601H92.7266C92.751 21.6011 92.7753 21.5969 92.7978 21.5886C92.8204 21.5802 92.841 21.5679 92.8582 21.5524C92.8755 21.5368 92.8892 21.5184 92.8984 21.4981C92.9077 21.4777 92.9124 21.456 92.9123 21.434V13.614H95.2802L98.9076 21.438C98.4962 22.259 98.0905 22.423 97.538 22.423C97.0457 22.412 96.5645 22.2888 96.1395 22.065C96.094 22.0445 96.0416 22.0403 95.9927 22.053C95.9682 22.0602 95.9457 22.0719 95.9266 22.0874C95.9074 22.1029 95.8921 22.1218 95.8816 22.143L95.0211 23.843C95.0013 23.8815 94.9985 23.9254 95.0134 23.9658C95.0283 24.0061 95.0596 24.0398 95.1012 24.06C95.9258 24.4806 96.8602 24.696 97.8081 24.684C99.6813 24.684 100.717 23.898 101.628 21.784L106.037 11.556C106.048 11.5309 106.052 11.5037 106.049 11.4769C106.045 11.4501 106.035 11.4243 106.018 11.4019C106.001 11.3795 105.979 11.3611 105.953 11.3482C105.926 11.3353 105.897 11.3284 105.867 11.328H103.225C103.187 11.3277 103.149 11.3384 103.117 11.3585C103.085 11.3786 103.061 11.4071 103.049 11.44L100.344 18.389L97.3768 11.436C97.3635 11.4046 97.3399 11.3775 97.3091 11.3584C97.2784 11.3393 97.2419 11.329 97.2045 11.329H92.8689L92.8767 11.328ZM87.2394 11.318H84.7036C84.6545 11.3183 84.6074 11.3359 84.5727 11.3672C84.5379 11.3985 84.5183 11.4408 84.518 11.485V21.437C84.518 21.4589 84.5228 21.4806 84.5321 21.5009C84.5414 21.5212 84.5551 21.5396 84.5723 21.5551C84.5896 21.5706 84.61 21.5829 84.6326 21.5913C84.6551 21.5997 84.6792 21.604 84.7036 21.604H87.2405C87.2648 21.604 87.289 21.5997 87.3115 21.5913C87.334 21.5829 87.3545 21.5706 87.3717 21.5551C87.389 21.5396 87.4027 21.5212 87.412 21.5009C87.4213 21.4806 87.4261 21.4589 87.4261 21.437V11.486C87.4261 11.4417 87.4066 11.3992 87.3717 11.3679C87.3369 11.3366 87.2897 11.319 87.2405 11.319L87.2394 11.318ZM85.9854 6.786C85.6257 6.7858 85.274 6.88156 84.9748 7.06116C84.6756 7.24076 84.4423 7.49614 84.3044 7.79501C84.1666 8.09387 84.1303 8.4228 84.2003 8.74019C84.2703 9.05758 84.4433 9.34918 84.6975 9.57812C84.9517 9.80706 85.2756 9.96305 85.6284 10.0264C85.9811 10.0897 86.3468 10.0575 86.6792 9.93385C87.0116 9.81021 87.2958 9.60067 87.4959 9.33174C87.6959 9.06281 87.8028 8.74657 87.803 8.423C87.8031 8.20816 87.7562 7.99539 87.665 7.79685C87.5737 7.59831 87.4399 7.41789 87.2711 7.26588C87.1023 7.11387 86.9019 6.99325 86.6813 6.91092C86.4607 6.82858 86.2242 6.78613 85.9854 6.786ZM108.203 14.523C107.85 14.5222 107.505 14.4272 107.211 14.2501C106.917 14.0729 106.689 13.8215 106.554 13.5275C106.419 13.2335 106.384 12.9102 106.453 12.5983C106.522 12.2864 106.692 11.9999 106.942 11.7749C107.192 11.55 107.51 11.3966 107.857 11.3343C108.204 11.2719 108.563 11.3033 108.89 11.4245C109.217 11.5457 109.497 11.7513 109.694 12.0153C109.891 12.2793 109.997 12.59 109.998 12.908C110 13.1206 109.955 13.3314 109.866 13.5282C109.776 13.7249 109.644 13.9037 109.477 14.0541C109.31 14.2044 109.111 14.3233 108.893 14.4039C108.674 14.4844 108.44 14.5249 108.203 14.523ZM108.213 11.463C107.894 11.4602 107.58 11.543 107.313 11.7009C107.046 11.8587 106.837 12.0845 106.713 12.3495C106.588 12.6145 106.555 12.9067 106.615 13.189C106.676 13.4714 106.829 13.731 107.055 13.935C107.28 14.139 107.568 14.2781 107.881 14.3346C108.195 14.3912 108.52 14.3626 108.815 14.2525C109.11 14.1424 109.363 13.9558 109.54 13.7164C109.717 13.477 109.811 13.1956 109.81 12.908C109.811 12.7187 109.771 12.531 109.691 12.3557C109.612 12.1804 109.494 12.0211 109.346 11.8868C109.197 11.7525 109.021 11.6459 108.827 11.5732C108.632 11.5004 108.424 11.463 108.213 11.463ZM108.609 13.073L109.115 13.709H108.688L108.233 13.126H107.843V13.709H107.486V12.023H108.321C108.758 12.023 109.044 12.223 109.044 12.561C109.05 12.6785 109.01 12.7942 108.931 12.8878C108.852 12.9815 108.739 13.047 108.611 13.073H108.609ZM108.308 12.313H107.843V12.846H108.308C108.539 12.846 108.678 12.746 108.678 12.579C108.678 12.412 108.538 12.308 108.307 12.308L108.308 12.313Z" fill="#222222"/>
</g>
<defs>
<clipPath id="clip0_6554_2590">
<rect width="109.389" height="29.512" fill="white" transform="translate(0.609375)"/>
</clipPath>
</defs>
</svg>
